SplineFontDB: 3.2
FontName: Pretension-BoldItalic
FullName: Pretension Bold Italic
FamilyName: Pretension
Weight: Bold
Copyright: Copyright 2016 The Inter Project Authors
Version: 4.000;git-a52131595
ItalicAngle: -9.39999
UnderlinePosition: -331
UnderlineWidth: 197
Ascent: 1638
Descent: 410
InvalidEm: 0
sfntRevision: 0x00040000
LayerCount: 2
Layer: 0 1 "Back" 1
Layer: 1 1 "Fore" 0
XUID: [1021 89 -1234937351 15543845]
StyleMap: 0x0021
FSType: 0
OS2Version: 4
OS2_WeightWidthSlopeOnly: 0
OS2_UseTypoMetrics: 1
CreationTime: 1700438797
ModificationTime: 1707761972
PfmFamily: 17
TTFWeight: 700
TTFWidth: 5
LineGap: 0
VLineGap: 0
Panose: 2 0 5 3 0 0 0 2 0 4
OS2TypoAscent: 1984
OS2TypoAOffset: 0
OS2TypoDescent: -494
OS2TypoDOffset: 0
OS2TypoLinegap: 0
OS2WinAscent: 1984
OS2WinAOffset: 0
OS2WinDescent: 494
OS2WinDOffset: 0
HheadAscent: 1984
HheadAOffset: 0
HheadDescent: -494
HheadDOffset: 0
OS2SubXSize: 1331
OS2SubYSize: 1229
OS2SubXOff: -25
OS2SubYOff: 154
OS2SupXSize: 1331
OS2SupYSize: 1229
OS2SupXOff: 119
OS2SupYOff: 717
OS2StrikeYSize: 197
OS2StrikeYPos: 653
OS2CapHeight: 1490
OS2XHeight: 1087
OS2Vendor: 'RSMS'
OS2CodePages: 0000019f.00000000
OS2UnicodeRanges: e0000aff.5200a1ff.00000021.00000000
Lookup: 1 0 0 "'aalt' Access All Alternates in Latin lookup 0" { "'aalt' Access All Alternates in Latin lookup 0 subtable"  } ['aalt' ('DFLT' <'dflt' > 'latn' <'CAT ' 'MOL ' 'ROM ' 'dflt' > ) ]
Lookup: 3 0 0 "'aalt' Access All Alternates in Latin lookup 1" { "'aalt' Access All Alternates in Latin lookup 1 subtable"  } ['aalt' ('DFLT' <'dflt' > 'latn' <'CAT ' 'MOL ' 'ROM ' 'dflt' > ) ]
Lookup: 1 0 0 "Single Substitution lookup 2" { "Single Substitution lookup 2 subtable"  } []
Lookup: 4 0 0 "'ccmp' Glyph Composition/Decomposition in Latin lookup 3" { "'ccmp' Glyph Composition/Decomposition in Latin lookup 3 subtable"  } ['ccmp' ('DFLT' <'dflt' > 'latn' <'CAT ' 'MOL ' 'ROM ' 'dflt' > ) ]

StartChar: .notdef
Encoding: 1114112 -1 0
Width: 1344
Flags: W
LayerCount: 2
Fore
SplineSet
858 -416 m 1,0,-1
 170 -416 l 1,1,-1
 546 1856 l 1,2,-1
 1234 1856 l 1,3,-1
 858 -416 l 1,0,-1
391 -192 m 1,4,-1
 381 -256 l 1,5,-1
 701 -256 l 1,6,-1
 711 -192 l 1,7,-1
 496 -192 l 1,8,-1
 732 -65 l 1,9,-1
 743 0 l 1,10,-1
 423 0 l 1,11,-1
 412 -64 l 1,12,-1
 628 -64 l 1,13,-1
 391 -192 l 1,4,-1
476 320 m 1,14,-1
 434 64 l 1,15,-1
 754 64 l 1,16,-1
 796 320 l 1,17,-1
 476 320 l 1,14,-1
700 128 m 1,18,-1
 508 128 l 1,19,-1
 529 256 l 1,20,-1
 721 256 l 1,21,-1
 700 128 l 1,18,-1
540 704 m 1,22,-1
 497 448 l 1,23,-1
 817 448 l 1,24,-1
 860 704 l 1,25,-1
 668 704 l 1,26,-1
 646 576 l 1,27,-1
 710 576 l 1,28,-1
 721 640 l 1,29,-1
 785 640 l 1,30,-1
 764 512 l 1,31,-1
 572 512 l 1,32,-1
 604 704 l 1,33,-1
 540 704 l 1,22,-1
561 832 m 1,34,-1
 550 768 l 1,35,-1
 870 768 l 1,36,-1
 907 992 l 1,37,-1
 843 992 l 1,38,-1
 817 832 l 1,39,-1
 561 832 l 1,34,-1
582 960 m 1,40,-1
 571 896 l 1,41,-1
 763 896 l 1,42,-1
 790 1056 l 1,43,-1
 918 1056 l 1,44,-1
 928 1120 l 1,45,-1
 608 1120 l 1,46,-1
 598 1056 l 1,47,-1
 726 1056 l 1,48,-1
 710 960 l 1,49,-1
 582 960 l 1,40,-1
758 1248 m 1,50,-1
 694 1248 l 1,51,-1
 709 1344 l 1,52,-1
 773 1344 l 1,53,-1
 758 1248 l 1,50,-1
656 1408 m 1,54,-1
 619 1184 l 1,55,-1
 939 1184 l 1,56,-1
 950 1248 l 1,57,-1
 822 1248 l 1,58,-1
 848 1408 l 1,59,-1
 656 1408 l 1,54,-1
677 1536 m 1,60,-1
 667 1472 l 1,61,-1
 987 1472 l 1,62,-1
 997 1536 l 1,63,-1
 853 1536 l 1,64,-1
 869 1632 l 1,65,-1
 1013 1632 l 1,66,-1
 1024 1696 l 1,67,-1
 704 1696 l 1,68,-1
 693 1632 l 1,69,-1
 805 1632 l 1,70,-1
 789 1536 l 1,71,-1
 677 1536 l 1,60,-1
EndSplineSet
EndChar

StartChar: A
Encoding: 65 65 2
Width: 1495
GlyphClass: 2
Flags: W
AnchorPoint: "Anchor-4" 1376 0 basechar 0
AnchorPoint: "Anchor-1" 904 1490 basechar 0
AnchorPoint: "Anchor-0" 657 0 basechar 0
LayerCount: 2
Fore
SplineSet
-61 0 m 1,0,-1
 703 1490 l 1,1,-1
 1101 1490 l 1,2,-1
 1376 0 l 1,3,-1
 1048 0 l 1,4,-1
 931 722 l 2,5,6
 912 860 912 860 892.5 1020.5 c 128,-1,7
 873 1181 873 1181 854 1375 c 1,8,-1
 930 1375 l 1,9,10
 849 1182 849 1182 778.5 1023 c 128,-1,11
 708 864 708 864 642 722 c 2,12,-1
 285 0 l 1,13,-1
 -61 0 l 1,0,-1
320 335 m 1,14,-1
 360 578 l 1,15,-1
 1147 578 l 1,16,-1
 1107 335 l 1,17,-1
 320 335 l 1,14,-1
EndSplineSet
Substitution2: "'c2sc' Capitals to Small Capitals in Latin lookup 67 subtable" a.sc
Substitution2: "'ss06' Style Set 6 in Latin lookup 52 subtable" A.squared
Substitution2: "'ss05' Style Set 5 in Latin lookup 51 subtable" uni24B6
Substitution2: "Single Substitution lookup 44 subtable" ordfeminine
AlternateSubs2: "'aalt' Access All Alternates in Latin lookup 1 subtable" ordfeminine a.sc
Position2: "'cpsp' Capital Spacing in Latin lookup 0 subtable" dx=0 dy=0 dh=0 dv=0
EndChar

StartChar: uni023A
Encoding: 570 570 46
Width: 1495
GlyphClass: 2
Flags: W
AnchorPoint: "Anchor-4" 1376 0 basechar 0
AnchorPoint: "Anchor-1" 904 1490 basechar 0
AnchorPoint: "Anchor-0" 657 0 basechar 0
LayerCount: 2
Fore
SplineSet
1323 1678 m 1,0,-1
 404 -190 l 1,1,-1
 286 -190 l 1,2,-1
 1205 1678 l 1,3,-1
 1323 1678 l 1,0,-1
-61 0 m 1,4,-1
 703 1490 l 1,5,-1
 1101 1490 l 1,6,-1
 1376 0 l 1,7,-1
 1048 0 l 1,8,-1
 931 722 l 2,9,10
 912 860 912 860 892.5 1020.5 c 128,-1,11
 873 1181 873 1181 854 1375 c 1,12,-1
 930 1375 l 1,13,14
 849 1182 849 1182 778.5 1023 c 128,-1,15
 708 864 708 864 642 722 c 2,16,-1
 285 0 l 1,17,-1
 -61 0 l 1,4,-1
320 335 m 1,18,-1
 360 578 l 1,19,-1
 1147 578 l 1,20,-1
 1107 335 l 1,21,-1
 320 335 l 1,18,-1
EndSplineSet
Position2: "'cpsp' Capital Spacing in Latin lookup 0 subtable" dx=0 dy=0 dh=0 dv=0
EndChar

StartChar: Lambda
Encoding: 923 923 60
Width: 1495
GlyphClass: 2
Flags: W
AnchorPoint: "Anchor-1" 904 1490 basechar 0
AnchorPoint: "Anchor-0" 657 0 basechar 0
LayerCount: 2
Fore
SplineSet
-61 0 m 1,0,-1
 703 1490 l 1,1,-1
 1101 1490 l 1,2,-1
 1376 0 l 1,3,-1
 1048 0 l 1,4,-1
 931 722 l 2,5,6
 911 860 911 860 892 1020.5 c 128,-1,7
 873 1181 873 1181 854 1375 c 1,8,-1
 930 1375 l 1,9,10
 849 1182 849 1182 778.5 1023 c 128,-1,11
 708 864 708 864 642 722 c 2,12,-1
 285 0 l 1,13,-1
 -61 0 l 1,0,-1
EndSplineSet
Position2: "'cpsp' Capital Spacing in Latin lookup 0 subtable" dx=0 dy=0 dh=0 dv=0
EndChar

StartChar: AE
Encoding: 198 198 61
Width: 2061
GlyphClass: 2
Flags: W
AnchorPoint: "Anchor-1" 1478 1490 basechar 0
LayerCount: 2
Fore
SplineSet
-61 0 m 1,0,-1
 820 1490 l 1,1,-1
 2124 1490 l 1,2,-1
 2082 1235 l 1,3,-1
 1388 1235 l 1,4,-1
 1328 871 l 1,5,-1
 1958 871 l 1,6,-1
 1916 623 l 1,7,-1
 1287 623 l 1,8,-1
 1225 257 l 1,9,-1
 1923 257 l 1,10,-1
 1880 0 l 1,11,-1
 882 0 l 1,12,-1
 1083 1211 l 1,13,-1
 966 1211 l 1,14,-1
 266 0 l 1,15,-1
 -61 0 l 1,0,-1
346 357 m 1,16,-1
 386 596 l 1,17,-1
 1118 596 l 1,18,-1
 1079 357 l 1,19,-1
 346 357 l 1,16,-1
EndSplineSet
Position2: "'cpsp' Capital Spacing in Latin lookup 0 subtable" dx=0 dy=0 dh=0 dv=0
EndChar

StartChar: B
Encoding: 66 66 65
Width: 1338
GlyphClass: 2
Flags: W
AnchorPoint: "Anchor-1" 804 1490 basechar 0
AnchorPoint: "Anchor-0" 561 0 basechar 0
LayerCount: 2
Fore
SplineSet
33 0 m 1,0,-1
 280 1490 l 1,1,-1
 866 1490 l 2,2,3
 1028 1490 1028 1490 1132 1439 c 128,-1,4
 1236 1388 1236 1388 1280 1297.5 c 128,-1,5
 1324 1207 1324 1207 1304 1089 c 0,6,7
 1291 1007 1291 1007 1245 945 c 128,-1,8
 1199 883 1199 883 1131 842 c 128,-1,9
 1063 801 1063 801 981 781 c 1,10,-1
 981 775 l 1,11,12
 1067 768 1067 768 1134 720.5 c 128,-1,13
 1201 673 1201 673 1233 591 c 128,-1,14
 1265 509 1265 509 1246 397 c 0,15,16
 1227 280 1227 280 1155 190.5 c 128,-1,17
 1083 101 1083 101 962 50.5 c 128,-1,18
 841 0 841 0 672 0 c 2,19,-1
 33 0 l 1,0,-1
377 247 m 1,20,-1
 647 247 l 2,21,22
 775 247 775 247 850.5 303 c 128,-1,23
 926 359 926 359 941 451 c 0,24,25
 951 511 951 511 929 555.5 c 128,-1,26
 907 600 907 600 857 623.5 c 128,-1,27
 807 647 807 647 731 647 c 2,28,-1
 444 647 l 1,29,-1
 377 247 l 1,20,-1
481 867 m 1,30,-1
 732 867 l 2,31,32
 798 867 798 867 854 892 c 128,-1,33
 910 917 910 917 947 963 c 128,-1,34
 984 1009 984 1009 994 1071 c 0,35,36
 1008 1150 1008 1150 960 1197.5 c 128,-1,37
 912 1245 912 1245 808 1245 c 2,38,-1
 543 1245 l 1,39,-1
 481 867 l 1,30,-1
EndSplineSet
Substitution2: "'ss06' Style Set 6 in Latin lookup 52 subtable" B.squared
Substitution2: "'ss05' Style Set 5 in Latin lookup 51 subtable" uni24B7
Position2: "'cpsp' Capital Spacing in Latin lookup 0 subtable" dx=0 dy=0 dh=0 dv=0
EndChar

StartChar: uni0181
Encoding: 385 385 70
Width: 1726
GlyphClass: 2
Flags: W
AnchorPoint: "Anchor-1" 1192 1490 basechar 0
AnchorPoint: "Anchor-0" 949 0 basechar 0
LayerCount: 2
Fore
SplineSet
125 1049 m 1,0,-1
 143 1160 l 2,1,2
 169 1321 169 1321 272 1405.5 c 128,-1,3
 375 1490 375 1490 556 1490 c 2,4,-1
 668 1490 l 1,5,-1
 625 1236 l 1,6,-1
 550 1236 l 2,7,8
 493 1236 493 1236 461 1211 c 128,-1,9
 429 1186 429 1186 420 1132 c 2,10,-1
 407 1049 l 1,11,-1
 125 1049 l 1,0,-1
421 0 m 1,12,-1
 668 1490 l 1,13,-1
 1254 1490 l 2,14,15
 1416 1490 1416 1490 1520 1439 c 128,-1,16
 1624 1388 1624 1388 1668 1297.5 c 128,-1,17
 1712 1207 1712 1207 1692 1089 c 0,18,19
 1679 1007 1679 1007 1633 945 c 128,-1,20
 1587 883 1587 883 1519 842 c 128,-1,21
 1451 801 1451 801 1369 781 c 1,22,-1
 1369 775 l 1,23,24
 1455 768 1455 768 1522 720.5 c 128,-1,25
 1589 673 1589 673 1621 591 c 128,-1,26
 1653 509 1653 509 1634 397 c 0,27,28
 1615 280 1615 280 1543 190.5 c 128,-1,29
 1471 101 1471 101 1350 50.5 c 128,-1,30
 1229 0 1229 0 1060 0 c 2,31,-1
 421 0 l 1,12,-1
765 247 m 1,32,-1
 1035 247 l 2,33,34
 1163 247 1163 247 1238.5 303 c 128,-1,35
 1314 359 1314 359 1329 451 c 0,36,37
 1339 511 1339 511 1317 555.5 c 128,-1,38
 1295 600 1295 600 1245 623.5 c 128,-1,39
 1195 647 1195 647 1119 647 c 2,40,-1
 832 647 l 1,41,-1
 765 247 l 1,32,-1
869 867 m 1,42,-1
 1120 867 l 2,43,44
 1186 867 1186 867 1242 892 c 128,-1,45
 1298 917 1298 917 1335 963 c 128,-1,46
 1372 1009 1372 1009 1382 1071 c 0,47,48
 1396 1150 1396 1150 1348 1197.5 c 128,-1,49
 1300 1245 1300 1245 1196 1245 c 2,50,-1
 931 1245 l 1,51,-1
 869 867 l 1,42,-1
EndSplineSet
Position2: "'cpsp' Capital Spacing in Latin lookup 0 subtable" dx=0 dy=0 dh=0 dv=0
EndChar

StartChar: C
Encoding: 67 67 73
Width: 1505
GlyphClass: 2
Flags: W
AnchorPoint: "Anchor-3" 678 1 basechar 0
AnchorPoint: "Anchor-1" 929 1490 basechar 0
LayerCount: 2
Fore
SplineSet
701 -22 m 0,0,1
 522 -22 522 -22 386.5 51.5 c 128,-1,2
 251 125 251 125 176 261.5 c 128,-1,3
 101 398 101 398 101 591 c 0,4,5
 101 773 101 773 158.5 939 c 128,-1,6
 216 1105 216 1105 324.5 1234 c 128,-1,7
 433 1363 433 1363 584.5 1437.5 c 128,-1,8
 736 1512 736 1512 924 1512 c 0,9,10
 1054 1512 1054 1512 1161 1475.5 c 128,-1,11
 1268 1439 1268 1439 1345 1369.5 c 128,-1,12
 1422 1300 1422 1300 1462 1200 c 128,-1,13
 1502 1100 1502 1100 1498 973 c 1,14,-1
 1190 973 l 1,15,16
 1188 1036 1188 1036 1168.5 1086 c 128,-1,17
 1149 1136 1149 1136 1113.5 1170.5 c 128,-1,18
 1078 1205 1078 1205 1028.5 1223 c 128,-1,19
 979 1241 979 1241 916 1241 c 0,20,21
 792 1241 792 1241 697.5 1184.5 c 128,-1,22
 603 1128 603 1128 538.5 1033.5 c 128,-1,23
 474 939 474 939 441 824 c 128,-1,24
 408 709 408 709 408 593 c 0,25,26
 408 483 408 483 445 406 c 128,-1,27
 482 329 482 329 551.5 289 c 128,-1,28
 621 249 621 249 719 249 c 0,29,30
 788 249 788 249 849 267.5 c 128,-1,31
 910 286 910 286 961.5 320.5 c 128,-1,32
 1013 355 1013 355 1052 404 c 128,-1,33
 1091 453 1091 453 1115 517 c 1,34,-1
 1424 517 l 1,35,36
 1390 403 1390 403 1323 305 c 128,-1,37
 1256 207 1256 207 1161.5 133.5 c 128,-1,38
 1067 60 1067 60 951 19 c 128,-1,39
 835 -22 835 -22 701 -22 c 0,0,1
EndSplineSet
Substitution2: "'ss06' Style Set 6 in Latin lookup 52 subtable" C.squared
Substitution2: "'ss05' Style Set 5 in Latin lookup 51 subtable" uni24B8
Position2: "'cpsp' Capital Spacing in Latin lookup 0 subtable" dx=0 dy=0 dh=0 dv=0
EndChar

StartChar: uni0187
Encoding: 391 391 74
Width: 1505
GlyphClass: 2
Flags: W
AnchorPoint: "Anchor-3" 678 1 basechar 0
AnchorPoint: "Anchor-1" 929 1490 basechar 0
LayerCount: 2
Fore
SplineSet
1206 973 m 1,0,-1
 1272 1367 l 2,1,2
 1298 1526 1298 1526 1399.5 1605.5 c 128,-1,3
 1501 1685 1501 1685 1679 1685 c 0,4,5
 1727 1685 1727 1685 1767 1682.5 c 128,-1,6
 1807 1680 1807 1680 1836 1676 c 1,7,-1
 1799 1450 l 1,8,9
 1778 1451 1778 1451 1749.5 1452 c 128,-1,10
 1721 1453 1721 1453 1695 1453 c 0,11,12
 1633 1453 1633 1453 1602 1431 c 128,-1,13
 1571 1409 1571 1409 1564 1361 c 2,14,-1
 1499 973 l 1,15,-1
 1206 973 l 1,0,-1
701 -22 m 0,16,17
 522 -22 522 -22 386.5 51.5 c 128,-1,18
 251 125 251 125 176 261.5 c 128,-1,19
 101 398 101 398 101 591 c 0,20,21
 101 773 101 773 158.5 939 c 128,-1,22
 216 1105 216 1105 324.5 1234 c 128,-1,23
 433 1363 433 1363 584.5 1437.5 c 128,-1,24
 736 1512 736 1512 924 1512 c 0,25,26
 1054 1512 1054 1512 1161 1475.5 c 128,-1,27
 1268 1439 1268 1439 1345 1369.5 c 128,-1,28
 1422 1300 1422 1300 1462 1200 c 128,-1,29
 1502 1100 1502 1100 1498 973 c 1,30,-1
 1190 973 l 1,31,32
 1188 1036 1188 1036 1168.5 1086 c 128,-1,33
 1149 1136 1149 1136 1113.5 1170.5 c 128,-1,34
 1078 1205 1078 1205 1028.5 1223 c 128,-1,35
 979 1241 979 1241 916 1241 c 0,36,37
 792 1241 792 1241 697.5 1184.5 c 128,-1,38
 603 1128 603 1128 538.5 1033.5 c 128,-1,39
 474 939 474 939 441 824 c 128,-1,40
 408 709 408 709 408 593 c 0,41,42
 408 483 408 483 445 406 c 128,-1,43
 482 329 482 329 551.5 289 c 128,-1,44
 621 249 621 249 719 249 c 0,45,46
 788 249 788 249 849 267.5 c 128,-1,47
 910 286 910 286 961.5 320.5 c 128,-1,48
 1013 355 1013 355 1052 404 c 128,-1,49
 1091 453 1091 453 1115 517 c 1,50,-1
 1424 517 l 1,51,52
 1390 403 1390 403 1323 305 c 128,-1,53
 1256 207 1256 207 1161.5 133.5 c 128,-1,54
 1067 60 1067 60 951 19 c 128,-1,55
 835 -22 835 -22 701 -22 c 0,16,17
EndSplineSet
Position2: "'cpsp' Capital Spacing in Latin lookup 0 subtable" dx=0 dy=0 dh=0 dv=0
EndChar

StartChar: uni023B
Encoding: 571 571 81
Width: 1505
GlyphClass: 2
Flags: W
AnchorPoint: "Anchor-3" 678 1 basechar 0
AnchorPoint: "Anchor-1" 929 1490 basechar 0
LayerCount: 2
Fore
SplineSet
241 -190 m 1,0,-1
 1159 1678 l 1,1,-1
 1348 1678 l 1,2,-1
 429 -190 l 1,3,-1
 241 -190 l 1,0,-1
701 -22 m 0,4,5
 522 -22 522 -22 386.5 51.5 c 128,-1,6
 251 125 251 125 176 261.5 c 128,-1,7
 101 398 101 398 101 591 c 0,8,9
 101 773 101 773 158.5 939 c 128,-1,10
 216 1105 216 1105 324.5 1234 c 128,-1,11
 433 1363 433 1363 584.5 1437.5 c 128,-1,12
 736 1512 736 1512 924 1512 c 0,13,14
 1054 1512 1054 1512 1161 1475.5 c 128,-1,15
 1268 1439 1268 1439 1345 1369.5 c 128,-1,16
 1422 1300 1422 1300 1462 1200 c 128,-1,17
 1502 1100 1502 1100 1498 973 c 1,18,-1
 1190 973 l 1,19,20
 1188 1036 1188 1036 1168.5 1086 c 128,-1,21
 1149 1136 1149 1136 1113.5 1170.5 c 128,-1,22
 1078 1205 1078 1205 1028.5 1223 c 128,-1,23
 979 1241 979 1241 916 1241 c 0,24,25
 792 1241 792 1241 697.5 1184.5 c 128,-1,26
 603 1128 603 1128 538.5 1033.5 c 128,-1,27
 474 939 474 939 441 824 c 128,-1,28
 408 709 408 709 408 593 c 0,29,30
 408 483 408 483 445 406 c 128,-1,31
 482 329 482 329 551.5 289 c 128,-1,32
 621 249 621 249 719 249 c 0,33,34
 788 249 788 249 849 267.5 c 128,-1,35
 910 286 910 286 961.5 320.5 c 128,-1,36
 1013 355 1013 355 1052 404 c 128,-1,37
 1091 453 1091 453 1115 517 c 1,38,-1
 1424 517 l 1,39,40
 1390 403 1390 403 1323 305 c 128,-1,41
 1256 207 1256 207 1161.5 133.5 c 128,-1,42
 1067 60 1067 60 951 19 c 128,-1,43
 835 -22 835 -22 701 -22 c 0,4,5
EndSplineSet
Ligature2: "'ccmp' Glyph Composition/Decomposition in Latin lookup 6 subtable" C uni0338
Position2: "'cpsp' Capital Spacing in Latin lookup 0 subtable" dx=0 dy=0 dh=0 dv=0
EndChar

StartChar: uni0186
Encoding: 390 390 82
Width: 1505
GlyphClass: 2
Flags: W
AnchorPoint: "Anchor-3" 894 1490 basechar 0
AnchorPoint: "Anchor-1" 643 0 basechar 0
LayerCount: 2
Fore
SplineSet
871 1512 m 0,0,1
 1051 1512 1051 1512 1186.5 1439.5 c 128,-1,2
 1322 1367 1322 1367 1397 1229.5 c 128,-1,3
 1472 1092 1472 1092 1472 900 c 0,4,5
 1472 718 1472 718 1414 552 c 128,-1,6
 1356 386 1356 386 1248 256.5 c 128,-1,7
 1140 127 1140 127 988.5 52.5 c 128,-1,8
 837 -22 837 -22 649 -22 c 0,9,10
 519 -22 519 -22 412 14.5 c 128,-1,11
 305 51 305 51 228 121 c 128,-1,12
 151 191 151 191 111 291 c 128,-1,13
 71 391 71 391 74 518 c 1,14,-1
 384 518 l 1,15,16
 385 454 385 454 404 404.5 c 128,-1,17
 423 355 423 355 459 320.5 c 128,-1,18
 495 286 495 286 544.5 267.5 c 128,-1,19
 594 249 594 249 657 249 c 0,20,21
 781 249 781 249 876 306 c 128,-1,22
 971 363 971 363 1035 457.5 c 128,-1,23
 1099 552 1099 552 1132 666.5 c 128,-1,24
 1165 781 1165 781 1165 897 c 0,25,26
 1165 1008 1165 1008 1128.5 1084.5 c 128,-1,27
 1092 1161 1092 1161 1022.5 1201 c 128,-1,28
 953 1241 953 1241 853 1241 c 0,29,30
 786 1241 786 1241 724.5 1223.5 c 128,-1,31
 663 1206 663 1206 611.5 1171 c 128,-1,32
 560 1136 560 1136 520.5 1086.5 c 128,-1,33
 481 1037 481 1037 458 974 c 1,34,-1
 149 974 l 1,35,36
 183 1088 183 1088 250 1186 c 128,-1,37
 317 1284 317 1284 411.5 1357.5 c 128,-1,38
 506 1431 506 1431 622.5 1471.5 c 128,-1,39
 739 1512 739 1512 871 1512 c 0,0,1
EndSplineSet
Position2: "'cpsp' Capital Spacing in Latin lookup 0 subtable" dx=0 dy=0 dh=0 dv=0
EndChar

StartChar: D
Encoding: 68 68 84
Width: 1457
GlyphClass: 2
Flags: W
AnchorPoint: "Anchor-1" 753 1490 basechar 0
AnchorPoint: "Anchor-0" 552 0 basechar 0
LayerCount: 2
Fore
SplineSet
605 0 m 2,0,-1
 173 0 l 1,1,-1
 215 261 l 1,2,-1
 586 261 l 2,3,4
 733 261 733 261 840 315 c 128,-1,5
 947 369 947 369 1013.5 477 c 128,-1,6
 1080 585 1080 585 1106 746 c 0,7,8
 1133 908 1133 908 1104.5 1015 c 128,-1,9
 1076 1122 1076 1122 991 1175.5 c 128,-1,10
 906 1229 906 1229 760 1229 c 2,11,-1
 369 1229 l 1,12,-1
 413 1490 l 1,13,-1
 792 1490 l 2,14,15
 1017 1490 1017 1490 1169 1400 c 128,-1,16
 1321 1310 1321 1310 1386 1143.5 c 128,-1,17
 1451 977 1451 977 1412 745 c 0,18,19
 1375 514 1375 514 1270.5 347 c 128,-1,20
 1166 180 1166 180 999.5 90 c 128,-1,21
 833 0 833 0 605 0 c 2,0,-1
586 1490 m 1,22,-1
 339 0 l 1,23,-1
 33 0 l 1,24,-1
 280 1490 l 1,25,-1
 586 1490 l 1,22,-1
EndSplineSet
Substitution2: "'ss06' Style Set 6 in Latin lookup 52 subtable" D.squared
Substitution2: "'ss05' Style Set 5 in Latin lookup 51 subtable" uni24B9
Position2: "'cpsp' Capital Spacing in Latin lookup 0 subtable" dx=0 dy=0 dh=0 dv=0
EndChar

StartChar: uni018A
Encoding: 394 394 85
Width: 1845
GlyphClass: 2
Flags: W
AnchorPoint: "Anchor-1" 1141 1490 basechar 0
AnchorPoint: "Anchor-0" 940 0 basechar 0
LayerCount: 2
Fore
SplineSet
125 1049 m 1,0,-1
 143 1160 l 2,1,2
 169 1321 169 1321 272 1405.5 c 128,-1,3
 375 1490 375 1490 557 1490 c 2,4,-1
 668 1490 l 1,5,-1
 626 1236 l 1,6,-1
 551 1236 l 2,7,8
 493 1236 493 1236 461 1211 c 128,-1,9
 429 1186 429 1186 420 1132 c 2,10,-1
 407 1049 l 1,11,-1
 125 1049 l 1,0,-1
993 0 m 2,12,-1
 561 0 l 1,13,-1
 603 261 l 1,14,-1
 974 261 l 2,15,16
 1121 261 1121 261 1228 315 c 128,-1,17
 1335 369 1335 369 1401.5 477 c 128,-1,18
 1468 585 1468 585 1494 746 c 0,19,20
 1521 908 1521 908 1492.5 1015 c 128,-1,21
 1464 1122 1464 1122 1379 1175.5 c 128,-1,22
 1294 1229 1294 1229 1148 1229 c 2,23,-1
 757 1229 l 1,24,-1
 801 1490 l 1,25,-1
 1180 1490 l 2,26,27
 1405 1490 1405 1490 1557 1400 c 128,-1,28
 1709 1310 1709 1310 1774 1143.5 c 128,-1,29
 1839 977 1839 977 1800 745 c 0,30,31
 1763 514 1763 514 1658.5 347 c 128,-1,32
 1554 180 1554 180 1387.5 90 c 128,-1,33
 1221 0 1221 0 993 0 c 2,12,-1
974 1490 m 1,34,-1
 727 0 l 1,35,-1
 421 0 l 1,36,-1
 668 1490 l 1,37,-1
 974 1490 l 1,34,-1
EndSplineSet
Position2: "'cpsp' Capital Spacing in Latin lookup 0 subtable" dx=0 dy=0 dh=0 dv=0
EndChar

StartChar: E
Encoding: 69 69 95
Width: 1248
GlyphClass: 2
Flags: W
AnchorPoint: "Anchor-4" 1067 0 basechar 0
AnchorPoint: "Anchor-3" 553 0 basechar 0
AnchorPoint: "Anchor-1" 798 1490 basechar 0
AnchorPoint: "Anchor-0" 551 0 basechar 0
LayerCount: 2
Fore
SplineSet
33 0 m 1,0,-1
 280 1490 l 1,1,-1
 1313 1490 l 1,2,-1
 1270 1233 l 1,3,-1
 544 1233 l 1,4,-1
 486 880 l 1,5,-1
 1157 880 l 1,6,-1
 1115 626 l 1,7,-1
 443 626 l 1,8,-1
 383 259 l 1,9,-1
 1110 259 l 1,10,-1
 1067 0 l 1,11,-1
 33 0 l 1,0,-1
EndSplineSet
Substitution2: "'ss06' Style Set 6 in Latin lookup 52 subtable" E.squared
Substitution2: "'ss05' Style Set 5 in Latin lookup 51 subtable" uni24BA
Position2: "'cpsp' Capital Spacing in Latin lookup 0 subtable" dx=0 dy=0 dh=0 dv=0
EndChar

StartChar: uni0246
Encoding: 582 582 121
Width: 1248
GlyphClass: 2
Flags: W
AnchorPoint: "Anchor-4" 1067 0 basechar 0
AnchorPoint: "Anchor-3" 553 0 basechar 0
AnchorPoint: "Anchor-1" 798 1490 basechar 0
AnchorPoint: "Anchor-0" 551 0 basechar 0
LayerCount: 2
Fore
SplineSet
189 -190 m 1,0,-1
 1038 1678 l 1,1,-1
 1203 1678 l 1,2,-1
 355 -190 l 1,3,-1
 189 -190 l 1,0,-1
33 0 m 1,4,-1
 280 1490 l 1,5,-1
 1313 1490 l 1,6,-1
 1270 1233 l 1,7,-1
 544 1233 l 1,8,-1
 486 880 l 1,9,-1
 1157 880 l 1,10,-1
 1115 626 l 1,11,-1
 443 626 l 1,12,-1
 383 259 l 1,13,-1
 1110 259 l 1,14,-1
 1067 0 l 1,15,-1
 33 0 l 1,4,-1
EndSplineSet
Position2: "'cpsp' Capital Spacing in Latin lookup 0 subtable" dx=0 dy=0 dh=0 dv=0
EndChar

StartChar: Eturn
Encoding: 398 398 122
Width: 1248
GlyphClass: 2
Flags: W
AnchorPoint: "Anchor-4" 248 1490 basechar 0
AnchorPoint: "Anchor-3" 510 0 basechar 0
AnchorPoint: "Anchor-1" 758 1490 basechar 0
AnchorPoint: "Anchor-0" 508 0 basechar 0
LayerCount: 2
Fore
SplineSet
1282 1490 m 1,0,-1
 1035 0 l 1,1,-1
 2 0 l 1,2,-1
 45 259 l 1,3,-1
 771 259 l 1,4,-1
 830 612 l 1,5,-1
 158 612 l 1,6,-1
 200 864 l 1,7,-1
 872 864 l 1,8,-1
 933 1233 l 1,9,-1
 205 1233 l 1,10,-1
 248 1490 l 1,11,-1
 1282 1490 l 1,0,-1
EndSplineSet
Position2: "'cpsp' Capital Spacing in Latin lookup 0 subtable" dx=0 dy=0 dh=0 dv=0
EndChar

StartChar: F
Encoding: 70 70 137
Width: 1198
GlyphClass: 2
Flags: W
AnchorPoint: "Anchor-1" 784 1490 basechar 0
AnchorPoint: "Anchor-0" 187 0 basechar 0
LayerCount: 2
Fore
SplineSet
33 0 m 1,0,-1
 280 1490 l 1,1,-1
 1288 1490 l 1,2,-1
 1245 1233 l 1,3,-1
 544 1233 l 1,4,-1
 479 840 l 1,5,-1
 1123 840 l 1,6,-1
 1081 588 l 1,7,-1
 437 588 l 1,8,-1
 339 0 l 1,9,-1
 33 0 l 1,0,-1
EndSplineSet
Substitution2: "'ss06' Style Set 6 in Latin lookup 52 subtable" F.squared
Substitution2: "'ss05' Style Set 5 in Latin lookup 51 subtable" uni24BB
Position2: "'cpsp' Capital Spacing in Latin lookup 0 subtable" dx=0 dy=0 dh=0 dv=0
EndChar

StartChar: uni0191
Encoding: 401 401 138
Width: 1198
GlyphClass: 2
Flags: W
AnchorPoint: "Anchor-1" 784 1490 basechar 0
AnchorPoint: "Anchor-0" 187 0 basechar 0
LayerCount: 2
Fore
SplineSet
-250 -417 m 1,0,-1
 -210 -178 l 1,1,2
 -191 -180 -191 -180 -162 -181 c 128,-1,3
 -133 -182 -133 -182 -107 -182 c 0,4,5
 -45 -182 -45 -182 -17.5 -160.5 c 128,-1,6
 10 -139 10 -139 18 -92 c 2,7,-1
 53 124 l 1,8,-1
 360 124 l 1,9,-1
 322 -108 l 2,10,11
 295 -265 295 -265 191.5 -345.5 c 128,-1,12
 88 -426 88 -426 -90 -426 c 0,13,14
 -140 -426 -140 -426 -181 -424 c 128,-1,15
 -222 -422 -222 -422 -250 -417 c 1,0,-1
33 0 m 1,16,-1
 280 1490 l 1,17,-1
 1288 1490 l 1,18,-1
 1245 1233 l 1,19,-1
 544 1233 l 1,20,-1
 479 840 l 1,21,-1
 1123 840 l 1,22,-1
 1081 588 l 1,23,-1
 437 588 l 1,24,-1
 339 0 l 1,25,-1
 33 0 l 1,16,-1
EndSplineSet
Position2: "'cpsp' Capital Spacing in Latin lookup 0 subtable" dx=0 dy=0 dh=0 dv=0
EndChar

StartChar: Fturn
Encoding: 8498 8498 140
Width: 1198
GlyphClass: 2
Flags: W
AnchorPoint: "Anchor-1" 1079 1490 basechar 0
AnchorPoint: "Anchor-0" 475 0 basechar 0
LayerCount: 2
Fore
SplineSet
1232 1490 m 1,0,-1
 985 0 l 1,1,-1
 -23 0 l 1,2,-1
 19 259 l 1,3,-1
 721 259 l 1,4,-1
 786 650 l 1,5,-1
 142 650 l 1,6,-1
 184 903 l 1,7,-1
 828 903 l 1,8,-1
 925 1490 l 1,9,-1
 1232 1490 l 1,0,-1
EndSplineSet
Position2: "'cpsp' Capital Spacing in Latin lookup 0 subtable" dx=0 dy=0 dh=0 dv=0
EndChar

StartChar: G
Encoding: 1114113 -1 141
Width: 1523
GlyphClass: 2
Flags: W
AnchorPoint: "Anchor-1" 929 1490 basechar 0
AnchorPoint: "Anchor-0" 680 0 basechar 0
LayerCount: 2
Fore
SplineSet
706 -22 m 0,0,1
 519 -22 519 -22 383.5 53 c 128,-1,2
 248 128 248 128 174.5 265.5 c 128,-1,3
 101 403 101 403 101 591 c 0,4,5
 101 774 101 774 159.5 940 c 128,-1,6
 218 1106 218 1106 327 1235 c 128,-1,7
 436 1364 436 1364 587.5 1438 c 128,-1,8
 739 1512 739 1512 923 1512 c 0,9,10
 1048 1512 1048 1512 1155 1476.5 c 128,-1,11
 1262 1441 1262 1441 1340.5 1373.5 c 128,-1,12
 1419 1306 1419 1306 1461.5 1211.5 c 128,-1,13
 1504 1117 1504 1117 1499 1001 c 1,14,-1
 1187 1001 l 1,15,16
 1184 1056 1184 1056 1164.5 1100 c 128,-1,17
 1145 1144 1145 1144 1110.5 1176 c 128,-1,18
 1076 1208 1076 1208 1027.5 1224.5 c 128,-1,19
 979 1241 979 1241 917 1241 c 0,20,21
 794 1241 794 1241 699 1184.5 c 128,-1,22
 604 1128 604 1128 539.5 1034.5 c 128,-1,23
 475 941 475 941 441.5 826.5 c 128,-1,24
 408 712 408 712 408 596 c 0,25,26
 408 431 408 431 490.5 340 c 128,-1,27
 573 249 573 249 725 249 c 0,28,29
 834 249 834 249 923 291.5 c 128,-1,30
 1012 334 1012 334 1069.5 407.5 c 128,-1,31
 1127 481 1127 481 1143 578 c 1,32,-1
 1209 560 l 1,33,-1
 815 560 l 1,34,-1
 854 793 l 1,35,-1
 1477 793 l 1,36,-1
 1445 595 l 2,37,38
 1421 453 1421 453 1355.5 339.5 c 128,-1,39
 1290 226 1290 226 1192 145 c 128,-1,40
 1094 64 1094 64 970 21 c 128,-1,41
 846 -22 846 -22 706 -22 c 0,0,1
EndSplineSet
Substitution2: "'c2sc' Capitals to Small Capitals in Latin lookup 67 subtable" g.sc
Substitution2: "'cv10' Character Variants 10 in Latin lookup 64 subtable" G.1
Substitution2: "'ss06' Style Set 6 in Latin lookup 52 subtable" G.squared
Substitution2: "'ss05' Style Set 5 in Latin lookup 51 subtable" uni24BC
Substitution2: "'salt' Stylistic Alternatives in Latin lookup 46 subtable" G.1
Substitution2: "'aalt' Access All Alternates in Latin lookup 0 subtable" g.sc
Position2: "'cpsp' Capital Spacing in Latin lookup 0 subtable" dx=0 dy=0 dh=0 dv=0
EndChar

StartChar: uni0193
Encoding: 1114115 -1 143
Width: 1523
GlyphClass: 2
Flags: W
AnchorPoint: "Anchor-1" 929 1490 basechar 0
AnchorPoint: "Anchor-0" 680 0 basechar 0
LayerCount: 2
Fore
SplineSet
1293 1032 m 1,0,-1
 1303 1374 l 2,1,2
 1304 1482 1304 1482 1348 1549 c 128,-1,3
 1392 1616 1392 1616 1474.5 1648 c 128,-1,4
 1557 1680 1557 1680 1673 1680 c 0,5,6
 1723 1680 1723 1680 1762.5 1678 c 128,-1,7
 1802 1676 1802 1676 1831 1672 c 1,8,-1
 1793 1445 l 1,9,10
 1774 1446 1774 1446 1745 1447 c 128,-1,11
 1716 1448 1716 1448 1689 1448 c 0,12,13
 1628 1448 1628 1448 1597.5 1426.5 c 128,-1,14
 1567 1405 1567 1405 1558 1357 c 2,15,-1
 1500 1001 l 1,16,-1
 1293 1032 l 1,0,-1
706 -22 m 0,17,18
 519 -22 519 -22 383.5 53 c 128,-1,19
 248 128 248 128 174.5 265.5 c 128,-1,20
 101 403 101 403 101 591 c 0,21,22
 101 774 101 774 159.5 940 c 128,-1,23
 218 1106 218 1106 327 1235 c 128,-1,24
 436 1364 436 1364 587.5 1438 c 128,-1,25
 739 1512 739 1512 923 1512 c 0,26,27
 1048 1512 1048 1512 1155 1476.5 c 128,-1,28
 1262 1441 1262 1441 1340.5 1373.5 c 128,-1,29
 1419 1306 1419 1306 1461.5 1211.5 c 128,-1,30
 1504 1117 1504 1117 1499 1001 c 1,31,-1
 1187 1001 l 1,32,33
 1184 1056 1184 1056 1164.5 1100 c 128,-1,34
 1145 1144 1145 1144 1110.5 1176 c 128,-1,35
 1076 1208 1076 1208 1027.5 1224.5 c 128,-1,36
 979 1241 979 1241 917 1241 c 0,37,38
 794 1241 794 1241 699 1184.5 c 128,-1,39
 604 1128 604 1128 539.5 1034.5 c 128,-1,40
 475 941 475 941 441.5 826.5 c 128,-1,41
 408 712 408 712 408 596 c 0,42,43
 408 431 408 431 490.5 340 c 128,-1,44
 573 249 573 249 725 249 c 0,45,46
 834 249 834 249 923 291.5 c 128,-1,47
 1012 334 1012 334 1069.5 407.5 c 128,-1,48
 1127 481 1127 481 1143 578 c 1,49,-1
 1209 560 l 1,50,-1
 815 560 l 1,51,-1
 854 793 l 1,52,-1
 1477 793 l 1,53,-1
 1445 595 l 2,54,55
 1421 453 1421 453 1355.5 339.5 c 128,-1,56
 1290 226 1290 226 1192 145 c 128,-1,57
 1094 64 1094 64 970 21 c 128,-1,58
 846 -22 846 -22 706 -22 c 0,17,18
EndSplineSet
Substitution2: "'c2sc' Capitals to Small Capitals in Latin lookup 67 subtable" uni0260.sc
Substitution2: "'cv10' Character Variants 10 in Latin lookup 64 subtable" uni0193.1
Substitution2: "'salt' Stylistic Alternatives in Latin lookup 46 subtable" uni0193.1
Substitution2: "'aalt' Access All Alternates in Latin lookup 0 subtable" uni0260.sc
Position2: "'cpsp' Capital Spacing in Latin lookup 0 subtable" dx=0 dy=0 dh=0 dv=0
EndChar

StartChar: G.1
Encoding: 57346 57346 151
AltUni2: 000047.ffffffff.0
Width: 1522
GlyphClass: 2
Flags: W
AnchorPoint: "Anchor-1" 935 1490 basechar 0
AnchorPoint: "Anchor-0" 672 2 basechar 0
LayerCount: 2
Fore
SplineSet
658 -22 m 0,0,1
 468 -22 468 -22 331 72.5 c 128,-1,2
 194 167 194 167 133.5 339.5 c 128,-1,3
 73 512 73 512 111 743 c 0,4,5
 142 923 142 923 218.5 1066 c 128,-1,6
 295 1209 295 1209 406 1308.5 c 128,-1,7
 517 1408 517 1408 653 1460 c 128,-1,8
 789 1512 789 1512 939 1512 c 0,9,10
 1066 1512 1066 1512 1170 1475 c 128,-1,11
 1274 1438 1274 1438 1349.5 1369.5 c 128,-1,12
 1425 1301 1425 1301 1464 1207.5 c 128,-1,13
 1503 1114 1503 1114 1499 1001 c 1,14,-1
 1188 1001 l 1,15,16
 1183 1056 1183 1056 1162 1100 c 128,-1,17
 1141 1144 1141 1144 1104 1176 c 128,-1,18
 1067 1208 1067 1208 1016 1224.5 c 128,-1,19
 965 1241 965 1241 900 1241 c 0,20,21
 781 1241 781 1241 681.5 1182.5 c 128,-1,22
 582 1124 582 1124 515 1012.5 c 128,-1,23
 448 901 448 901 422 746 c 0,24,25
 396 590 396 590 426.5 479 c 128,-1,26
 457 368 457 368 538 308.5 c 128,-1,27
 619 249 619 249 743 249 c 0,28,29
 848 249 848 249 932.5 289.5 c 128,-1,30
 1017 330 1017 330 1072 404 c 128,-1,31
 1127 478 1127 478 1144 579 c 1,32,-1
 1276 579 l 1,33,-1
 1258 467 l 2,34,35
 1241 364 1241 364 1191.5 275 c 128,-1,36
 1142 186 1142 186 1063.5 119.5 c 128,-1,37
 985 53 985 53 883 15.5 c 128,-1,38
 781 -22 781 -22 658 -22 c 0,0,1
1143 0 m 1,39,-1
 1152 311 l 1,40,-1
 1193 560 l 1,41,-1
 815 560 l 1,42,-1
 854 793 l 1,43,-1
 1477 793 l 1,44,-1
 1346 0 l 1,45,-1
 1143 0 l 1,39,-1
EndSplineSet
Substitution2: "'ss06' Style Set 6 in Latin lookup 52 subtable" G.1.squared
EndChar

StartChar: uni0193.1
Encoding: 57348 57348 153
AltUni2: 000193.ffffffff.0
Width: 1522
GlyphClass: 2
Flags: W
AnchorPoint: "Anchor-1" 935 1490 basechar 0
AnchorPoint: "Anchor-0" 672 2 basechar 0
LayerCount: 2
Fore
SplineSet
1292 1032 m 1,0,-1
 1303 1374 l 2,1,2
 1304 1482 1304 1482 1347.5 1549 c 128,-1,3
 1391 1616 1391 1616 1474 1648 c 128,-1,4
 1557 1680 1557 1680 1673 1680 c 0,5,6
 1722 1680 1722 1680 1762 1678 c 128,-1,7
 1802 1676 1802 1676 1830 1672 c 1,8,-1
 1793 1445 l 1,9,10
 1773 1446 1773 1446 1744 1447 c 128,-1,11
 1715 1448 1715 1448 1689 1448 c 0,12,13
 1628 1448 1628 1448 1597 1426.5 c 128,-1,14
 1566 1405 1566 1405 1557 1357 c 2,15,-1
 1499 1001 l 1,16,-1
 1292 1032 l 1,0,-1
658 -22 m 0,17,18
 468 -22 468 -22 331 72.5 c 128,-1,19
 194 167 194 167 133.5 339.5 c 128,-1,20
 73 512 73 512 111 743 c 0,21,22
 142 923 142 923 218.5 1066 c 128,-1,23
 295 1209 295 1209 406 1308.5 c 128,-1,24
 517 1408 517 1408 653 1460 c 128,-1,25
 789 1512 789 1512 939 1512 c 0,26,27
 1066 1512 1066 1512 1170 1475 c 128,-1,28
 1274 1438 1274 1438 1349.5 1369.5 c 128,-1,29
 1425 1301 1425 1301 1464 1207.5 c 128,-1,30
 1503 1114 1503 1114 1499 1001 c 1,31,-1
 1188 1001 l 1,32,33
 1183 1056 1183 1056 1162 1100 c 128,-1,34
 1141 1144 1141 1144 1104 1176 c 128,-1,35
 1067 1208 1067 1208 1016 1224.5 c 128,-1,36
 965 1241 965 1241 900 1241 c 0,37,38
 781 1241 781 1241 681.5 1182.5 c 128,-1,39
 582 1124 582 1124 515 1012.5 c 128,-1,40
 448 901 448 901 422 746 c 0,41,42
 396 590 396 590 426.5 479 c 128,-1,43
 457 368 457 368 538 308.5 c 128,-1,44
 619 249 619 249 743 249 c 0,45,46
 848 249 848 249 932.5 289.5 c 128,-1,47
 1017 330 1017 330 1072 404 c 128,-1,48
 1127 478 1127 478 1144 579 c 1,49,-1
 1276 579 l 1,50,-1
 1258 467 l 2,51,52
 1241 364 1241 364 1191.5 275 c 128,-1,53
 1142 186 1142 186 1063.5 119.5 c 128,-1,54
 985 53 985 53 883 15.5 c 128,-1,55
 781 -22 781 -22 658 -22 c 0,17,18
1143 0 m 1,56,-1
 1152 311 l 1,57,-1
 1193 560 l 1,58,-1
 815 560 l 1,59,-1
 854 793 l 1,60,-1
 1477 793 l 1,61,-1
 1346 0 l 1,62,-1
 1143 0 l 1,56,-1
EndSplineSet
EndChar

StartChar: H
Encoding: 72 72 161
Width: 1501
GlyphClass: 2
Flags: W
AnchorPoint: "Anchor-3" 188 0 basechar 0
AnchorPoint: "Anchor-1" 908 1490 basechar 0
AnchorPoint: "Anchor-0" 661 0 basechar 0
LayerCount: 2
Fore
SplineSet
33 0 m 1,0,-1
 280 1490 l 1,1,-1
 586 1490 l 1,2,-1
 487 890 l 1,3,-1
 1128 890 l 1,4,-1
 1228 1490 l 1,5,-1
 1534 1490 l 1,6,-1
 1287 0 l 1,7,-1
 981 0 l 1,8,-1
 1085 632 l 1,9,-1
 444 632 l 1,10,-1
 339 0 l 1,11,-1
 33 0 l 1,0,-1
EndSplineSet
Substitution2: "'c2sc' Capitals to Small Capitals in Latin lookup 67 subtable" h.sc
Substitution2: "'ss06' Style Set 6 in Latin lookup 52 subtable" H.squared
Substitution2: "'ss05' Style Set 5 in Latin lookup 51 subtable" uni24BD
Substitution2: "'aalt' Access All Alternates in Latin lookup 0 subtable" h.sc
Position2: "'cpsp' Capital Spacing in Latin lookup 0 subtable" dx=0 dy=0 dh=0 dv=0
EndChar

StartChar: Hbar
Encoding: 294 294 169
Width: 1623
GlyphClass: 2
Flags: W
AnchorPoint: "Anchor-3" 248 0 basechar 0
AnchorPoint: "Anchor-1" 967 1490 basechar 0
AnchorPoint: "Anchor-0" 720 0 basechar 0
LayerCount: 2
Fore
SplineSet
1676 1226 m 1,0,-1
 1647 1052 l 1,1,-1
 146 1052 l 1,2,-1
 174 1226 l 1,3,-1
 1676 1226 l 1,0,-1
93 0 m 1,4,-1
 340 1490 l 1,5,-1
 646 1490 l 1,6,-1
 547 890 l 1,7,-1
 1188 890 l 1,8,-1
 1287 1490 l 1,9,-1
 1594 1490 l 1,10,-1
 1347 0 l 1,11,-1
 1040 0 l 1,12,-1
 1145 632 l 1,13,-1
 504 632 l 1,14,-1
 399 0 l 1,15,-1
 93 0 l 1,4,-1
EndSplineSet
Position2: "'cpsp' Capital Spacing in Latin lookup 0 subtable" dx=0 dy=0 dh=0 dv=0
EndChar

StartChar: uni04C7
Encoding: 1223 1223 170
Width: 1501
GlyphClass: 2
Flags: W
AnchorPoint: "Anchor-3" 188 0 basechar 0
AnchorPoint: "Anchor-1" 908 1490 basechar 0
AnchorPoint: "Anchor-0" 661 0 basechar 0
LayerCount: 2
Fore
SplineSet
698 -417 m 1,0,-1
 737 -178 l 1,1,2
 757 -180 757 -180 786 -181 c 128,-1,3
 815 -182 815 -182 841 -182 c 0,4,5
 903 -182 903 -182 930.5 -160.5 c 128,-1,6
 958 -139 958 -139 965 -92 c 2,7,-1
 1001 124 l 1,8,-1
 1308 124 l 1,9,-1
 1270 -108 l 2,10,11
 1243 -265 1243 -265 1139.5 -345.5 c 128,-1,12
 1036 -426 1036 -426 857 -426 c 0,13,14
 808 -426 808 -426 767 -424 c 128,-1,15
 726 -422 726 -422 698 -417 c 1,0,-1
33 0 m 1,16,-1
 280 1490 l 1,17,-1
 586 1490 l 1,18,-1
 487 890 l 1,19,-1
 1128 890 l 1,20,-1
 1228 1490 l 1,21,-1
 1534 1490 l 1,22,-1
 1287 0 l 1,23,-1
 981 0 l 1,24,-1
 1085 632 l 1,25,-1
 444 632 l 1,26,-1
 339 0 l 1,27,-1
 33 0 l 1,16,-1
EndSplineSet
Position2: "'cpsp' Capital Spacing in Latin lookup 0 subtable" dx=0 dy=0 dh=0 dv=0
EndChar

StartChar: uni04A4
Encoding: 1188 1188 173
Width: 2030
GlyphClass: 2
Flags: W
AnchorPoint: "Anchor-3" 188 0 basechar 0
AnchorPoint: "Anchor-1" 908 1490 basechar 0
AnchorPoint: "Anchor-0" 661 0 basechar 0
LayerCount: 2
Fore
SplineSet
2127 1490 m 1,0,-1
 2085 1240 l 1,1,-1
 1440 1240 l 1,2,-1
 1237 1490 l 1,3,-1
 2127 1490 l 1,0,-1
33 0 m 1,4,-1
 280 1490 l 1,5,-1
 586 1490 l 1,6,-1
 487 890 l 1,7,-1
 1128 890 l 1,8,-1
 1228 1490 l 1,9,-1
 1534 1490 l 1,10,-1
 1287 0 l 1,11,-1
 981 0 l 1,12,-1
 1085 632 l 1,13,-1
 444 632 l 1,14,-1
 339 0 l 1,15,-1
 33 0 l 1,4,-1
EndSplineSet
Position2: "'cpsp' Capital Spacing in Latin lookup 0 subtable" dx=0 dy=0 dh=0 dv=0
EndChar

StartChar: uni01F6
Encoding: 502 502 174
Width: 2238
Flags: W
LayerCount: 2
Fore
SplineSet
1523 -21 m 0,0,1
 1360 -21 1360 -21 1246.5 40.5 c 128,-1,2
 1133 102 1133 102 1084 212.5 c 128,-1,3
 1035 323 1035 323 1059 472 c 2,4,-1
 1084 624 l 1,5,-1
 443 624 l 1,6,-1
 339 0 l 1,7,-1
 33 0 l 1,8,-1
 280 1490 l 1,9,-1
 586 1490 l 1,10,-1
 486 882 l 1,11,-1
 1127 882 l 1,12,-1
 1228 1490 l 1,13,-1
 1535 1490 l 1,14,-1
 1364 461 l 2,15,16
 1345 345 1345 345 1389 288.5 c 128,-1,17
 1433 232 1433 232 1532 232 c 0,18,19
 1607 232 1607 232 1665 261.5 c 128,-1,20
 1723 291 1723 291 1761.5 347.5 c 128,-1,21
 1800 404 1800 404 1812 480 c 2,22,-1
 1910 1073 l 1,23,-1
 2210 1073 l 1,24,-1
 2108 452 l 2,25,26
 2084 303 2084 303 2003.5 197.5 c 128,-1,27
 1923 92 1923 92 1799.5 35.5 c 128,-1,28
 1676 -21 1676 -21 1523 -21 c 0,0,1
EndSplineSet
Position2: "'cpsp' Capital Spacing in Latin lookup 0 subtable" dx=0 dy=0 dh=0 dv=0
EndChar

StartChar: I
Encoding: 73 73 197
Width: 553
GlyphClass: 2
Flags: W
AnchorPoint: "Anchor-4" 339 0 basechar 0
AnchorPoint: "Anchor-1" 435 1490 basechar 0
AnchorPoint: "Anchor-0" 186 0 basechar 0
LayerCount: 2
Fore
SplineSet
586 1490 m 1,0,-1
 339 0 l 1,1,-1
 33 0 l 1,2,-1
 280 1490 l 1,3,-1
 586 1490 l 1,0,-1
EndSplineSet
Substitution2: "'c2sc' Capitals to Small Capitals in Latin lookup 67 subtable" i.sc
Substitution2: "'cv08' Character Variants 08 in Latin lookup 62 subtable" I.1
Substitution2: "'ss06' Style Set 6 in Latin lookup 52 subtable" I.squared
Substitution2: "'ss05' Style Set 5 in Latin lookup 51 subtable" uni24BE
Substitution2: "'ss04' Style Set 4 in Latin lookup 50 subtable" I.1
Substitution2: "'ss02' Style Set 2 in Latin lookup 48 subtable" I.1
Substitution2: "'salt' Stylistic Alternatives in Latin lookup 46 subtable" I.1
Substitution2: "'aalt' Access All Alternates in Latin lookup 0 subtable" i.sc
Position2: "'cpsp' Capital Spacing in Latin lookup 0 subtable" dx=0 dy=0 dh=0 dv=0
EndChar

StartChar: I.1
Encoding: 57356 57356 235
Width: 890
GlyphClass: 2
Flags: W
AnchorPoint: "Anchor-4" 731 0 basechar 0
AnchorPoint: "Anchor-1" 602 1490 basechar 0
AnchorPoint: "Anchor-0" 355 0 basechar 0
LayerCount: 2
Fore
SplineSet
-21 0 m 1,0,-1
 20 251 l 1,1,-1
 243 251 l 1,2,-1
 407 1239 l 1,3,-1
 185 1239 l 1,4,-1
 226 1490 l 1,5,-1
 978 1490 l 1,6,-1
 935 1239 l 1,7,-1
 714 1239 l 1,8,-1
 549 251 l 1,9,-1
 773 251 l 1,10,-1
 731 0 l 1,11,-1
 -21 0 l 1,0,-1
EndSplineSet
EndChar

StartChar: J
Encoding: 74 74 267
Width: 1175
GlyphClass: 2
Flags: W
AnchorPoint: "Anchor-1" 1058 1490 basechar 0
LayerCount: 2
Fore
SplineSet
479 -21 m 0,0,1
 275 -21 275 -21 157 75 c 128,-1,2
 39 171 39 171 39 351 c 0,3,4
 39 366 39 366 40.5 386.5 c 128,-1,5
 42 407 42 407 47.5 443.5 c 128,-1,6
 53 480 53 480 64 543 c 1,7,-1
 362 543 l 1,8,9
 352 485 352 485 347.5 455 c 128,-1,10
 343 425 343 425 342 412 c 128,-1,11
 341 399 341 399 341 391 c 0,12,13
 341 313 341 313 383.5 273 c 128,-1,14
 426 233 426 233 503 233 c 0,15,16
 591 233 591 233 653 287 c 128,-1,17
 715 341 715 341 733 447 c 2,18,-1
 906 1490 l 1,19,-1
 1211 1490 l 1,20,-1
 1037 447 l 2,21,22
 1000 222 1000 222 855 100.5 c 128,-1,23
 710 -21 710 -21 479 -21 c 0,0,1
EndSplineSet
Substitution2: "'ss06' Style Set 6 in Latin lookup 52 subtable" J.squared
Substitution2: "'ss05' Style Set 5 in Latin lookup 51 subtable" uni24BF
Position2: "'cpsp' Capital Spacing in Latin lookup 0 subtable" dx=0 dy=0 dh=0 dv=0
EndChar

StartChar: K
Encoding: 75 75 272
Width: 1438
GlyphClass: 2
Flags: W
AnchorPoint: "Anchor-1" 872 1490 basechar 0
AnchorPoint: "Anchor-0" 625 0 basechar 0
LayerCount: 2
Fore
SplineSet
310 324 m 1,0,-1
 352 654 l 1,1,2
 412 727 412 727 471 792.5 c 128,-1,3
 530 858 530 858 592 923 c 128,-1,4
 654 988 654 988 726 1062 c 2,5,-1
 1164 1490 l 1,6,-1
 1549 1490 l 1,7,-1
 799 763 l 1,8,-1
 774 768 l 1,9,-1
 310 324 l 1,0,-1
33 0 m 1,10,-1
 280 1490 l 1,11,-1
 591 1490 l 1,12,-1
 522 1081 l 1,13,-1
 456 702 l 1,14,-1
 435 555 l 1,15,-1
 344 0 l 1,16,-1
 33 0 l 1,10,-1
979 0 m 1,17,-1
 647 675 l 1,18,-1
 854 905 l 1,19,-1
 1318 0 l 1,20,-1
 979 0 l 1,17,-1
EndSplineSet
Substitution2: "'ss06' Style Set 6 in Latin lookup 52 subtable" K.squared
Substitution2: "'ss05' Style Set 5 in Latin lookup 51 subtable" uni24C0
Position2: "'cpsp' Capital Spacing in Latin lookup 0 subtable" dx=0 dy=0 dh=0 dv=0
EndChar

StartChar: uni04A0
Encoding: 1184 1184 278
Width: 1781
GlyphClass: 2
Flags: W
AnchorPoint: "Anchor-1" 1187 1490 basechar 0
LayerCount: 2
Fore
SplineSet
769 1490 m 1,0,-1
 727 1233 l 1,1,-1
 175 1233 l 1,2,-1
 218 1490 l 1,3,-1
 769 1490 l 1,0,-1
375 0 m 1,4,-1
 622 1490 l 1,5,-1
 929 1490 l 1,6,-1
 830 889 l 1,7,-1
 977 889 l 1,8,-1
 1513 1490 l 1,9,-1
 1882 1490 l 1,10,-1
 1218 766 l 1,11,-1
 1660 0 l 1,12,-1
 1314 0 l 1,13,-1
 958 632 l 1,14,-1
 787 632 l 1,15,-1
 682 0 l 1,16,-1
 375 0 l 1,4,-1
EndSplineSet
Position2: "'cpsp' Capital Spacing in Latin lookup 0 subtable" dx=0 dy=0 dh=0 dv=0
EndChar

StartChar: uni0198
Encoding: 408 408 280
Width: 1461
Flags: W
LayerCount: 2
Fore
SplineSet
33 0 m 1,0,-1
 280 1490 l 1,1,-1
 583 1490 l 1,2,-1
 475 841 l 1,3,-1
 494 841 l 1,4,-1
 1081 1370 l 2,5,6
 1168 1447 1168 1447 1258 1481.5 c 128,-1,7
 1348 1516 1348 1516 1436 1507 c 128,-1,8
 1524 1498 1524 1498 1607 1443 c 1,9,-1
 1473 1228 l 1,10,11
 1419 1259 1419 1259 1372 1243.5 c 128,-1,12
 1325 1228 1325 1228 1265 1176 c 2,13,-1
 846 805 l 1,14,-1
 1328 0 l 1,15,-1
 964 0 l 1,16,-1
 617 589 l 1,17,-1
 402 393 l 1,18,-1
 337 0 l 1,19,-1
 33 0 l 1,0,-1
EndSplineSet
Position2: "'cpsp' Capital Spacing in Latin lookup 0 subtable" dx=0 dy=0 dh=0 dv=0
EndChar

StartChar: L
Encoding: 76 76 282
Width: 1149
GlyphClass: 2
Flags: W
AnchorPoint: "Anchor-1" 433 1490 basechar 0
AnchorPoint: "Anchor-0" 508 0 basechar 0
LayerCount: 2
Fore
SplineSet
33 0 m 1,0,-1
 280 1490 l 1,1,-1
 586 1490 l 1,2,-1
 383 259 l 1,3,-1
 1042 259 l 1,4,-1
 999 0 l 1,5,-1
 33 0 l 1,0,-1
EndSplineSet
Substitution2: "'c2sc' Capitals to Small Capitals in Latin lookup 67 subtable" l.sc
Substitution2: "'ss06' Style Set 6 in Latin lookup 52 subtable" L.squared
Substitution2: "'ss05' Style Set 5 in Latin lookup 51 subtable" uni24C1
Substitution2: "'aalt' Access All Alternates in Latin lookup 0 subtable" l.sc
Position2: "'cpsp' Capital Spacing in Latin lookup 0 subtable" dx=0 dy=0 dh=0 dv=0
EndChar

StartChar: M
Encoding: 77 77 293
Width: 1870
GlyphClass: 2
Flags: W
AnchorPoint: "Anchor-1" 1091 1490 basechar 0
AnchorPoint: "Anchor-0" 845 0 basechar 0
LayerCount: 2
Fore
SplineSet
33 0 m 1,0,-1
 281 1490 l 1,1,-1
 738 1490 l 1,2,-1
 868 801 l 2,3,4
 876 753 876 753 883.5 680 c 128,-1,5
 891 607 891 607 899 526 c 128,-1,6
 907 445 907 445 912.5 369.5 c 128,-1,7
 918 294 918 294 921 241 c 1,8,-1
 852 244 l 1,9,10
 873 298 873 298 903.5 373 c 128,-1,11
 934 448 934 448 968.5 529.5 c 128,-1,12
 1003 611 1003 611 1034.5 683.5 c 128,-1,13
 1066 756 1066 756 1089 802 c 2,14,-1
 1444 1490 l 1,15,-1
 1904 1490 l 1,16,-1
 1656 0 l 1,17,-1
 1352 0 l 1,18,-1
 1469 708 l 2,19,20
 1478 758 1478 758 1491.5 829.5 c 128,-1,21
 1505 901 1505 901 1520.5 982.5 c 128,-1,22
 1536 1064 1536 1064 1552 1146.5 c 128,-1,23
 1568 1229 1568 1229 1580 1301 c 1,24,-1
 1609 1298 l 1,25,26
 1574 1217 1574 1217 1536 1131.5 c 128,-1,27
 1498 1046 1498 1046 1461 965.5 c 128,-1,28
 1424 885 1424 885 1393 817.5 c 128,-1,29
 1362 750 1362 750 1339 705 c 2,30,-1
 972 0 l 1,31,-1
 719 0 l 1,32,-1
 583 707 l 2,33,34
 573 767 573 767 559.5 864.5 c 128,-1,35
 546 962 546 962 531.5 1077 c 128,-1,36
 517 1192 517 1192 504 1301 c 1,37,-1
 538 1298 l 1,38,39
 527 1225 527 1225 515 1142 c 128,-1,40
 503 1059 503 1059 492 978 c 128,-1,41
 481 897 481 897 471 826 c 128,-1,42
 461 755 461 755 453 705 c 2,43,-1
 337 0 l 1,44,-1
 33 0 l 1,0,-1
EndSplineSet
Substitution2: "'c2sc' Capitals to Small Capitals in Latin lookup 67 subtable" m.sc
Substitution2: "'ss06' Style Set 6 in Latin lookup 52 subtable" M.squared
Substitution2: "'ss05' Style Set 5 in Latin lookup 51 subtable" uni24C2
Substitution2: "'aalt' Access All Alternates in Latin lookup 0 subtable" m.sc
Position2: "'cpsp' Capital Spacing in Latin lookup 0 subtable" dx=0 dy=0 dh=0 dv=0
EndChar

StartChar: N
Encoding: 78 78 301
Width: 1524
GlyphClass: 2
Flags: W
AnchorPoint: "Anchor-1" 920 1490 basechar 0
AnchorPoint: "Anchor-0" 673 0 basechar 0
LayerCount: 2
Fore
SplineSet
33 0 m 1,0,-1
 280 1490 l 1,1,-1
 609 1490 l 1,2,-1
 958 733 l 2,3,4
 979 687 979 687 1004.5 624.5 c 128,-1,5
 1030 562 1030 562 1056 486 c 128,-1,6
 1082 410 1082 410 1104 326 c 1,7,-1
 1067 286 l 1,8,9
 1075 361 1075 361 1085 452 c 128,-1,10
 1095 543 1095 543 1107 627 c 128,-1,11
 1119 711 1119 711 1127 764 c 2,12,-1
 1248 1490 l 1,13,-1
 1558 1490 l 1,14,-1
 1311 0 l 1,15,-1
 983 0 l 1,16,-1
 664 687 l 2,17,18
 638 747 638 747 609 817 c 128,-1,19
 580 887 580 887 547 976 c 128,-1,20
 514 1065 514 1065 476 1176 c 1,21,-1
 521 1194 l 1,22,23
 509 1082 509 1082 497 984.5 c 128,-1,24
 485 887 485 887 475 811 c 128,-1,25
 465 735 465 735 457 688 c 2,26,-1
 344 0 l 1,27,-1
 33 0 l 1,0,-1
EndSplineSet
Substitution2: "'c2sc' Capitals to Small Capitals in Latin lookup 67 subtable" n.sc
Substitution2: "'ss06' Style Set 6 in Latin lookup 52 subtable" N.squared
Substitution2: "'ss05' Style Set 5 in Latin lookup 51 subtable" uni24C3
Substitution2: "'aalt' Access All Alternates in Latin lookup 0 subtable" n.sc
Position2: "'cpsp' Capital Spacing in Latin lookup 0 subtable" dx=0 dy=0 dh=0 dv=0
EndChar

StartChar: Nhook
Encoding: 413 413 311
Width: 1524
GlyphClass: 2
Flags: W
AnchorPoint: "Anchor-1" 920 1490 basechar 0
AnchorPoint: "Anchor-0" 673 0 basechar 0
LayerCount: 2
Fore
SplineSet
-250 -417 m 1,0,-1
 -210 -178 l 1,1,2
 -191 -180 -191 -180 -162 -181 c 128,-1,3
 -133 -182 -133 -182 -107 -182 c 0,4,5
 -45 -182 -45 -182 -17.5 -160.5 c 128,-1,6
 10 -139 10 -139 18 -92 c 2,7,-1
 53 124 l 1,8,-1
 360 124 l 1,9,-1
 322 -108 l 2,10,11
 295 -265 295 -265 191.5 -345.5 c 128,-1,12
 88 -426 88 -426 -90 -426 c 0,13,14
 -140 -426 -140 -426 -181 -424 c 128,-1,15
 -222 -422 -222 -422 -250 -417 c 1,0,-1
33 0 m 1,16,-1
 280 1490 l 1,17,-1
 609 1490 l 1,18,-1
 958 733 l 2,19,20
 979 687 979 687 1004.5 624.5 c 128,-1,21
 1030 562 1030 562 1056 486 c 128,-1,22
 1082 410 1082 410 1104 326 c 1,23,-1
 1067 286 l 1,24,25
 1075 361 1075 361 1085 452 c 128,-1,26
 1095 543 1095 543 1107 627 c 128,-1,27
 1119 711 1119 711 1127 764 c 2,28,-1
 1248 1490 l 1,29,-1
 1558 1490 l 1,30,-1
 1311 0 l 1,31,-1
 983 0 l 1,32,-1
 664 687 l 2,33,34
 638 747 638 747 609 817 c 128,-1,35
 580 887 580 887 547 976 c 128,-1,36
 514 1065 514 1065 476 1176 c 1,37,-1
 521 1194 l 1,38,39
 509 1082 509 1082 497 984.5 c 128,-1,40
 485 887 485 887 475 811 c 128,-1,41
 465 735 465 735 457 688 c 2,42,-1
 344 0 l 1,43,-1
 33 0 l 1,16,-1
EndSplineSet
Position2: "'cpsp' Capital Spacing in Latin lookup 0 subtable" dx=0 dy=0 dh=0 dv=0
EndChar

StartChar: Eng
Encoding: 330 330 312
Width: 1524
GlyphClass: 2
Flags: W
AnchorPoint: "Anchor-1" 920 1490 basechar 0
AnchorPoint: "Anchor-0" 673 0 basechar 0
LayerCount: 2
Fore
SplineSet
723 -417 m 1,0,-1
 763 -178 l 1,1,2
 783 -180 783 -180 811.5 -181 c 128,-1,3
 840 -182 840 -182 867 -182 c 0,4,5
 928 -182 928 -182 956 -160.5 c 128,-1,6
 984 -139 984 -139 991 -92 c 2,7,-1
 1027 124 l 1,8,-1
 1333 124 l 1,9,-1
 1295 -108 l 2,10,11
 1268 -265 1268 -265 1164.5 -345.5 c 128,-1,12
 1061 -426 1061 -426 883 -426 c 0,13,14
 834 -426 834 -426 792.5 -424 c 128,-1,15
 751 -422 751 -422 723 -417 c 1,0,-1
33 0 m 1,16,-1
 280 1490 l 1,17,-1
 609 1490 l 1,18,-1
 958 733 l 2,19,20
 979 687 979 687 1004.5 624.5 c 128,-1,21
 1030 562 1030 562 1056 486 c 128,-1,22
 1082 410 1082 410 1104 326 c 1,23,-1
 1067 286 l 1,24,25
 1075 361 1075 361 1085 452 c 128,-1,26
 1095 543 1095 543 1107 627 c 128,-1,27
 1119 711 1119 711 1127 764 c 2,28,-1
 1248 1490 l 1,29,-1
 1558 1490 l 1,30,-1
 1311 0 l 1,31,-1
 983 0 l 1,32,-1
 664 687 l 2,33,34
 638 747 638 747 609 817 c 128,-1,35
 580 887 580 887 547 976 c 128,-1,36
 514 1065 514 1065 476 1176 c 1,37,-1
 521 1194 l 1,38,39
 509 1082 509 1082 497 984.5 c 128,-1,40
 485 887 485 887 475 811 c 128,-1,41
 465 735 465 735 457 688 c 2,42,-1
 344 0 l 1,43,-1
 33 0 l 1,16,-1
EndSplineSet
Position2: "'cpsp' Capital Spacing in Latin lookup 0 subtable" dx=0 dy=0 dh=0 dv=0
EndChar

StartChar: uni0418
Encoding: 1048 1048 313
Width: 1524
GlyphClass: 2
Flags: W
AnchorPoint: "Anchor-1" 908 1490 basechar 0
AnchorPoint: "Anchor-0" 672 0 basechar 0
LayerCount: 2
Fore
SplineSet
1311 0 m 1,0,-1
 1001 0 l 1,1,-1
 1115 688 l 2,2,3
 1123 735 1123 735 1137.5 811.5 c 128,-1,4
 1152 888 1152 888 1172.5 985.5 c 128,-1,5
 1193 1083 1193 1083 1218 1194 c 1,6,-1
 1266 1173 l 1,7,8
 1190 1061 1190 1061 1128 972.5 c 128,-1,9
 1066 884 1066 884 1014 813 c 128,-1,10
 962 742 962 742 916 683 c 2,11,-1
 371 0 l 1,12,-1
 33 0 l 1,13,-1
 280 1490 l 1,14,-1
 591 1490 l 1,15,-1
 470 764 l 2,16,17
 461 710 461 710 444.5 626 c 128,-1,18
 428 542 428 542 409 451.5 c 128,-1,19
 390 361 390 361 372 286 c 1,20,-1
 343 338 l 1,21,22
 393 420 393 420 443.5 494 c 128,-1,23
 494 568 494 568 540 629 c 128,-1,24
 586 690 586 690 623 736 c 2,25,-1
 1223 1490 l 1,26,-1
 1558 1490 l 1,27,-1
 1311 0 l 1,0,-1
EndSplineSet
Position2: "'cpsp' Capital Spacing in Latin lookup 0 subtable" dx=0 dy=0 dh=0 dv=0
EndChar

StartChar: O
Encoding: 79 79 322
Width: 1556
GlyphClass: 2
Flags: W
AnchorPoint: "Anchor-4" 1521 898 basechar 0
AnchorPoint: "Anchor-1" 935 1490 basechar 0
AnchorPoint: "Anchor-0" 689 0 basechar 0
LayerCount: 2
Fore
SplineSet
701 -22 m 0,0,1
 523 -22 523 -22 387.5 51.5 c 128,-1,2
 252 125 252 125 176.5 262 c 128,-1,3
 101 399 101 399 101 592 c 0,4,5
 101 773 101 773 159 939 c 128,-1,6
 217 1105 217 1105 325.5 1234 c 128,-1,7
 434 1363 434 1363 585 1437.5 c 128,-1,8
 736 1512 736 1512 922 1512 c 0,9,10
 1100 1512 1100 1512 1235 1439 c 128,-1,11
 1370 1366 1370 1366 1445.5 1229 c 128,-1,12
 1521 1092 1521 1092 1521 898 c 0,13,14
 1521 715 1521 715 1462.5 549.5 c 128,-1,15
 1404 384 1404 384 1296 255 c 128,-1,16
 1188 126 1188 126 1037 52 c 128,-1,17
 886 -22 886 -22 701 -22 c 0,0,1
714 249 m 0,18,19
 836 249 836 249 929.5 306.5 c 128,-1,20
 1023 364 1023 364 1086.5 458.5 c 128,-1,21
 1150 553 1150 553 1182.5 667.5 c 128,-1,22
 1215 782 1215 782 1215 898 c 0,23,24
 1215 1010 1215 1010 1178 1086 c 128,-1,25
 1141 1162 1141 1162 1072.5 1201.5 c 128,-1,26
 1004 1241 1004 1241 909 1241 c 0,27,28
 788 1241 788 1241 694 1184 c 128,-1,29
 600 1127 600 1127 536.5 1032.5 c 128,-1,30
 473 938 473 938 440.5 823.5 c 128,-1,31
 408 709 408 709 408 593 c 0,32,33
 408 482 408 482 445 405.5 c 128,-1,34
 482 329 482 329 550.5 289 c 128,-1,35
 619 249 619 249 714 249 c 0,18,19
EndSplineSet
Substitution2: "'ss06' Style Set 6 in Latin lookup 52 subtable" O.squared
Substitution2: "'ss05' Style Set 5 in Latin lookup 51 subtable" uni24C4
Substitution2: "Single Substitution lookup 44 subtable" ordmasculine
Substitution2: "'aalt' Access All Alternates in Latin lookup 0 subtable" ordmasculine
Position2: "'cpsp' Capital Spacing in Latin lookup 0 subtable" dx=0 dy=0 dh=0 dv=0
EndChar

StartChar: Ohorn
Encoding: 416 416 326
Width: 1564
GlyphClass: 2
Flags: W
AnchorPoint: "Anchor-4" 1521 898 basechar 0
AnchorPoint: "Anchor-1" 935 1490 basechar 0
AnchorPoint: "Anchor-0" 689 0 basechar 0
LayerCount: 2
Fore
SplineSet
910 1322 m 1,0,-1
 943 1512 l 1,1,2
 984 1512 984 1512 1014.5 1510 c 128,-1,3
 1045 1508 1045 1508 1074.5 1504.5 c 128,-1,4
 1104 1501 1104 1501 1139.5 1498 c 128,-1,5
 1175 1495 1175 1495 1224.5 1492.5 c 128,-1,6
 1274 1490 1274 1490 1345 1490 c 0,7,8
 1370 1490 1370 1490 1375 1516 c 2,9,-1
 1407 1714 l 1,10,-1
 1673 1714 l 1,11,-1
 1638 1497 l 2,12,13
 1620 1395 1620 1395 1553 1348.5 c 128,-1,14
 1486 1302 1486 1302 1388 1302 c 0,15,16
 1338 1302 1338 1302 1291 1305 c 128,-1,17
 1244 1308 1244 1308 1191 1312.5 c 128,-1,18
 1138 1317 1138 1317 1070.5 1319.5 c 128,-1,19
 1003 1322 1003 1322 910 1322 c 1,0,-1
701 -22 m 0,20,21
 523 -22 523 -22 387.5 51.5 c 128,-1,22
 252 125 252 125 176.5 262 c 128,-1,23
 101 399 101 399 101 592 c 0,24,25
 101 773 101 773 159 939 c 128,-1,26
 217 1105 217 1105 325.5 1234 c 128,-1,27
 434 1363 434 1363 585 1437.5 c 128,-1,28
 736 1512 736 1512 922 1512 c 0,29,30
 1100 1512 1100 1512 1235 1439 c 128,-1,31
 1370 1366 1370 1366 1445.5 1229 c 128,-1,32
 1521 1092 1521 1092 1521 898 c 0,33,34
 1521 715 1521 715 1462.5 549.5 c 128,-1,35
 1404 384 1404 384 1296 255 c 128,-1,36
 1188 126 1188 126 1037 52 c 128,-1,37
 886 -22 886 -22 701 -22 c 0,20,21
714 249 m 0,38,39
 836 249 836 249 929.5 306.5 c 128,-1,40
 1023 364 1023 364 1086.5 458.5 c 128,-1,41
 1150 553 1150 553 1182.5 667.5 c 128,-1,42
 1215 782 1215 782 1215 898 c 0,43,44
 1215 1010 1215 1010 1178 1086 c 128,-1,45
 1141 1162 1141 1162 1072.5 1201.5 c 128,-1,46
 1004 1241 1004 1241 909 1241 c 0,47,48
 788 1241 788 1241 694 1184 c 128,-1,49
 600 1127 600 1127 536.5 1032.5 c 128,-1,50
 473 938 473 938 440.5 823.5 c 128,-1,51
 408 709 408 709 408 593 c 0,52,53
 408 482 408 482 445 405.5 c 128,-1,54
 482 329 482 329 550.5 289 c 128,-1,55
 619 249 619 249 714 249 c 0,38,39
EndSplineSet
Position2: "'cpsp' Capital Spacing in Latin lookup 0 subtable" dx=0 dy=0 dh=0 dv=0
EndChar

StartChar: uni03F4
Encoding: 1012 1012 368
Width: 1556
GlyphClass: 2
Flags: W
AnchorPoint: "Anchor-4" 1521 898 basechar 0
AnchorPoint: "Anchor-1" 935 1490 basechar 0
AnchorPoint: "Anchor-0" 689 0 basechar 0
LayerCount: 2
Fore
SplineSet
1316 845 m 1,0,-1
 1289 645 l 1,1,-1
 325 645 l 1,2,-1
 351 845 l 1,3,-1
 1316 845 l 1,0,-1
701 -22 m 0,4,5
 523 -22 523 -22 387.5 51.5 c 128,-1,6
 252 125 252 125 176.5 262 c 128,-1,7
 101 399 101 399 101 592 c 0,8,9
 101 773 101 773 159 939 c 128,-1,10
 217 1105 217 1105 325.5 1234 c 128,-1,11
 434 1363 434 1363 585 1437.5 c 128,-1,12
 736 1512 736 1512 922 1512 c 0,13,14
 1100 1512 1100 1512 1235 1439 c 128,-1,15
 1370 1366 1370 1366 1445.5 1229 c 128,-1,16
 1521 1092 1521 1092 1521 898 c 0,17,18
 1521 715 1521 715 1462.5 549.5 c 128,-1,19
 1404 384 1404 384 1296 255 c 128,-1,20
 1188 126 1188 126 1037 52 c 128,-1,21
 886 -22 886 -22 701 -22 c 0,4,5
714 249 m 0,22,23
 836 249 836 249 929.5 306.5 c 128,-1,24
 1023 364 1023 364 1086.5 458.5 c 128,-1,25
 1150 553 1150 553 1182.5 667.5 c 128,-1,26
 1215 782 1215 782 1215 898 c 0,27,28
 1215 1010 1215 1010 1178 1086 c 128,-1,29
 1141 1162 1141 1162 1072.5 1201.5 c 128,-1,30
 1004 1241 1004 1241 909 1241 c 0,31,32
 788 1241 788 1241 694 1184 c 128,-1,33
 600 1127 600 1127 536.5 1032.5 c 128,-1,34
 473 938 473 938 440.5 823.5 c 128,-1,35
 408 709 408 709 408 593 c 0,36,37
 408 482 408 482 445 405.5 c 128,-1,38
 482 329 482 329 550.5 289 c 128,-1,39
 619 249 619 249 714 249 c 0,22,23
EndSplineSet
Position2: "'cpsp' Capital Spacing in Latin lookup 0 subtable" dx=0 dy=0 dh=0 dv=0
EndChar

StartChar: OE
Encoding: 338 338 375
Width: 2082
GlyphClass: 2
Flags: W
AnchorPoint: "Anchor-4" 1901 0 basechar 0
AnchorPoint: "Anchor-3" 1387 0 basechar 0
AnchorPoint: "Anchor-1" 1632 1490 basechar 0
AnchorPoint: "Anchor-0" 1385 0 basechar 0
LayerCount: 2
Fore
SplineSet
693 0 m 2,0,1
 481 0 481 0 337.5 89 c 128,-1,2
 194 178 194 178 133.5 344.5 c 128,-1,3
 73 511 73 511 111 744 c 0,4,5
 151 979 151 979 266.5 1146 c 128,-1,6
 382 1313 382 1313 554.5 1401.5 c 128,-1,7
 727 1490 727 1490 936 1490 c 2,8,-1
 1259 1490 l 1,9,-1
 1217 1236 l 1,10,-1
 904 1236 l 2,11,12
 775 1236 775 1236 675 1181.5 c 128,-1,13
 575 1127 575 1127 509 1017.5 c 128,-1,14
 443 908 443 908 416 744 c 0,15,16
 389 582 389 582 419 473 c 128,-1,17
 449 364 449 364 531 309 c 128,-1,18
 613 254 613 254 744 254 c 2,19,-1
 1052 254 l 1,20,-1
 1008 0 l 1,21,-1
 693 0 l 2,0,1
867 0 m 1,22,-1
 1114 1490 l 1,23,-1
 2147 1490 l 1,24,-1
 2104 1233 l 1,25,-1
 1378 1233 l 1,26,-1
 1320 880 l 1,27,-1
 1991 880 l 1,28,-1
 1949 626 l 1,29,-1
 1277 626 l 1,30,-1
 1217 259 l 1,31,-1
 1944 259 l 1,32,-1
 1901 0 l 1,33,-1
 867 0 l 1,22,-1
EndSplineSet
Substitution2: "'c2sc' Capitals to Small Capitals in Latin lookup 67 subtable" oe.sc
Substitution2: "'aalt' Access All Alternates in Latin lookup 0 subtable" oe.sc
Position2: "'cpsp' Capital Spacing in Latin lookup 0 subtable" dx=0 dy=0 dh=0 dv=0
EndChar

StartChar: P
Encoding: 80 80 376
Width: 1310
GlyphClass: 2
Flags: W
AnchorPoint: "Anchor-1" 803 1490 basechar 0
LayerCount: 2
Fore
SplineSet
33 0 m 1,0,-1
 280 1490 l 1,1,-1
 863 1490 l 2,2,3
 1032 1490 1032 1490 1142.5 1428 c 128,-1,4
 1253 1366 1253 1366 1299.5 1254 c 128,-1,5
 1346 1142 1346 1142 1322 993 c 256,6,7
 1298 844 1298 844 1214 733 c 128,-1,8
 1130 622 1130 622 997 560.5 c 128,-1,9
 864 499 864 499 695 499 c 2,10,-1
 302 499 l 1,11,-1
 344 752 l 1,12,-1
 704 752 l 2,13,14
 793 752 793 752 857.5 782.5 c 128,-1,15
 922 813 922 813 962 868 c 128,-1,16
 1002 923 1002 923 1013 995 c 0,17,18
 1026 1068 1026 1068 1004 1122 c 128,-1,19
 982 1176 982 1176 927 1206 c 128,-1,20
 872 1236 872 1236 784 1236 c 2,21,-1
 544 1236 l 1,22,-1
 339 0 l 1,23,-1
 33 0 l 1,0,-1
EndSplineSet
Substitution2: "'ss06' Style Set 6 in Latin lookup 52 subtable" P.squared
Substitution2: "'ss05' Style Set 5 in Latin lookup 51 subtable" uni24C5
Position2: "'cpsp' Capital Spacing in Latin lookup 0 subtable" dx=0 dy=0 dh=0 dv=0
EndChar

StartChar: uni048E
Encoding: 1166 1166 379
Width: 1324
GlyphClass: 2
Flags: W
AnchorPoint: "Anchor-1" 808 1490 basechar 0
LayerCount: 2
Fore
SplineSet
822 976 m 1,0,-1
 1113 417 l 1,1,-1
 970 332 l 1,2,-1
 679 891 l 1,3,-1
 822 976 l 1,0,-1
38 0 m 1,4,-1
 285 1490 l 1,5,-1
 868 1490 l 2,6,7
 1037 1490 1037 1490 1147.5 1428 c 128,-1,8
 1258 1366 1258 1366 1305 1254 c 128,-1,9
 1352 1142 1352 1142 1327 993 c 0,10,11
 1303 844 1303 844 1219 733 c 128,-1,12
 1135 622 1135 622 1002.5 560.5 c 128,-1,13
 870 499 870 499 700 499 c 2,14,-1
 307 499 l 1,15,-1
 349 752 l 1,16,-1
 710 752 l 2,17,18
 798 752 798 752 863 782.5 c 128,-1,19
 928 813 928 813 967.5 868 c 128,-1,20
 1007 923 1007 923 1019 995 c 0,21,22
 1032 1068 1032 1068 1009.5 1122 c 128,-1,23
 987 1176 987 1176 932.5 1206 c 128,-1,24
 878 1236 878 1236 790 1236 c 2,25,-1
 550 1236 l 1,26,-1
 345 0 l 1,27,-1
 38 0 l 1,4,-1
EndSplineSet
Position2: "'cpsp' Capital Spacing in Latin lookup 0 subtable" dx=0 dy=0 dh=0 dv=0
EndChar

StartChar: uni01A4
Encoding: 420 420 380
Width: 1698
GlyphClass: 2
Flags: W
AnchorPoint: "Anchor-1" 1191 1490 basechar 0
LayerCount: 2
Fore
SplineSet
126 1049 m 1,0,-1
 144 1160 l 2,1,2
 170 1321 170 1321 273 1405.5 c 128,-1,3
 376 1490 376 1490 558 1490 c 2,4,-1
 669 1490 l 1,5,-1
 627 1236 l 1,6,-1
 552 1236 l 2,7,8
 494 1236 494 1236 462 1211 c 128,-1,9
 430 1186 430 1186 421 1132 c 2,10,-1
 408 1049 l 1,11,-1
 126 1049 l 1,0,-1
421 0 m 1,12,-1
 668 1490 l 1,13,-1
 1251 1490 l 2,14,15
 1420 1490 1420 1490 1530.5 1428 c 128,-1,16
 1641 1366 1641 1366 1687.5 1254 c 128,-1,17
 1734 1142 1734 1142 1710 993 c 256,18,19
 1686 844 1686 844 1602 733 c 128,-1,20
 1518 622 1518 622 1385 560.5 c 128,-1,21
 1252 499 1252 499 1083 499 c 2,22,-1
 690 499 l 1,23,-1
 732 752 l 1,24,-1
 1092 752 l 2,25,26
 1181 752 1181 752 1245.5 782.5 c 128,-1,27
 1310 813 1310 813 1350 868 c 128,-1,28
 1390 923 1390 923 1401 995 c 0,29,30
 1414 1068 1414 1068 1392 1122 c 128,-1,31
 1370 1176 1370 1176 1315 1206 c 128,-1,32
 1260 1236 1260 1236 1172 1236 c 2,33,-1
 932 1236 l 1,34,-1
 727 0 l 1,35,-1
 421 0 l 1,12,-1
EndSplineSet
Position2: "'cpsp' Capital Spacing in Latin lookup 0 subtable" dx=0 dy=0 dh=0 dv=0
EndChar

StartChar: Q
Encoding: 81 81 383
Width: 1556
GlyphClass: 2
Flags: W
AnchorPoint: "Anchor-4" 1521 898 basechar 0
AnchorPoint: "Anchor-1" 935 1490 basechar 0
AnchorPoint: "Anchor-0" 689 0 basechar 0
LayerCount: 2
Fore
SplineSet
675 512 m 1,0,-1
 913 512 l 1,1,-1
 1022 335 l 1,2,-1
 1121 191 l 1,3,-1
 1321 -124 l 1,4,-1
 1060 -124 l 1,5,-1
 927 88 l 1,6,-1
 856 206 l 1,7,-1
 675 512 l 1,0,-1
701 -22 m 0,8,9
 523 -22 523 -22 387.5 51.5 c 128,-1,10
 252 125 252 125 176.5 262 c 128,-1,11
 101 399 101 399 101 592 c 0,12,13
 101 773 101 773 159 939 c 128,-1,14
 217 1105 217 1105 325.5 1234 c 128,-1,15
 434 1363 434 1363 585 1437.5 c 128,-1,16
 736 1512 736 1512 922 1512 c 0,17,18
 1100 1512 1100 1512 1235 1439 c 128,-1,19
 1370 1366 1370 1366 1445.5 1229 c 128,-1,20
 1521 1092 1521 1092 1521 898 c 0,21,22
 1521 715 1521 715 1462.5 549.5 c 128,-1,23
 1404 384 1404 384 1296 255 c 128,-1,24
 1188 126 1188 126 1037 52 c 128,-1,25
 886 -22 886 -22 701 -22 c 0,8,9
714 249 m 0,26,27
 836 249 836 249 929.5 306.5 c 128,-1,28
 1023 364 1023 364 1086.5 458.5 c 128,-1,29
 1150 553 1150 553 1182.5 667.5 c 128,-1,30
 1215 782 1215 782 1215 898 c 0,31,32
 1215 1010 1215 1010 1178 1086 c 128,-1,33
 1141 1162 1141 1162 1072.5 1201.5 c 128,-1,34
 1004 1241 1004 1241 909 1241 c 0,35,36
 788 1241 788 1241 694 1184 c 128,-1,37
 600 1127 600 1127 536.5 1032.5 c 128,-1,38
 473 938 473 938 440.5 823.5 c 128,-1,39
 408 709 408 709 408 593 c 0,40,41
 408 482 408 482 445 405.5 c 128,-1,42
 482 329 482 329 550.5 289 c 128,-1,43
 619 249 619 249 714 249 c 0,26,27
EndSplineSet
Substitution2: "'ss06' Style Set 6 in Latin lookup 52 subtable" Q.squared
Substitution2: "'ss05' Style Set 5 in Latin lookup 51 subtable" uni24C6
Position2: "'cpsp' Capital Spacing in Latin lookup 0 subtable" dx=0 dy=0 dh=0 dv=0
EndChar

StartChar: Q_rthook
Encoding: 586 586 384
Width: 1564
GlyphClass: 2
Flags: W
LayerCount: 2
Fore
SplineSet
1597 1490 m 1,0,-1
 1350 0 l 1,1,-1
 1053 0 l 1,2,-1
 1089 220 l 1,3,-1
 1083 220 l 1,4,5
 1007 110 1007 110 886 44 c 128,-1,6
 765 -22 765 -22 617 -22 c 0,7,8
 479 -22 479 -22 373.5 35 c 128,-1,9
 268 92 268 92 200 195.5 c 128,-1,10
 132 299 132 299 108.5 438.5 c 128,-1,11
 85 578 85 578 112 743 c 0,12,13
 140 908 140 908 209.5 1048 c 128,-1,14
 279 1188 279 1188 381 1292 c 128,-1,15
 483 1396 483 1396 608 1453.5 c 128,-1,16
 733 1511 733 1511 871 1511 c 0,17,18
 1019 1511 1019 1511 1118 1445.5 c 128,-1,19
 1217 1380 1217 1380 1258 1274 c 1,20,-1
 1264 1274 l 1,21,-1
 1300 1490 l 1,22,-1
 1597 1490 l 1,0,-1
717 248 m 0,23,24
 840 248 840 248 934 309.5 c 128,-1,25
 1028 371 1028 371 1089.5 482.5 c 128,-1,26
 1151 594 1151 594 1176 745 c 0,27,28
 1202 896 1202 896 1177 1008.5 c 128,-1,29
 1152 1121 1152 1121 1078 1182 c 128,-1,30
 1004 1243 1004 1243 883 1243 c 0,31,32
 766 1243 766 1243 671 1182 c 128,-1,33
 576 1121 576 1121 511 1009.5 c 128,-1,34
 446 898 446 898 421 745 c 0,35,36
 396 591 396 591 423.5 479.5 c 128,-1,37
 451 368 451 368 526 308 c 128,-1,38
 601 248 601 248 717 248 c 0,23,24
1337 -426 m 0,39,40
 1160 -426 1160 -426 1084.5 -346 c 128,-1,41
 1009 -266 1009 -266 1035 -108 c 2,42,-1
 1053 0 l 1,43,-1
 1350 0 l 1,44,-1
 1333 -102 l 2,45,46
 1325 -150 1325 -150 1347.5 -172 c 128,-1,47
 1370 -194 1370 -194 1431 -194 c 0,48,49
 1457 -194 1457 -194 1486 -193 c 128,-1,50
 1515 -192 1515 -192 1536 -191 c 1,51,-1
 1498 -417 l 1,52,53
 1468 -422 1468 -422 1427 -424 c 128,-1,54
 1386 -426 1386 -426 1337 -426 c 0,39,40
EndSplineSet
Position2: "'cpsp' Capital Spacing in Latin lookup 0 subtable" dx=0 dy=0 dh=0 dv=0
EndChar

StartChar: R
Encoding: 82 82 385
Width: 1339
GlyphClass: 2
Flags: W
AnchorPoint: "Anchor-1" 817 1490 basechar 0
AnchorPoint: "Anchor-0" 590 0 basechar 0
LayerCount: 2
Fore
SplineSet
33 0 m 1,0,-1
 280 1490 l 1,1,-1
 867 1490 l 2,2,3
 1037 1490 1037 1490 1147.5 1430 c 128,-1,4
 1258 1370 1258 1370 1305 1261 c 128,-1,5
 1352 1152 1352 1152 1327 1003 c 0,6,7
 1304 856 1304 856 1219.5 749 c 128,-1,8
 1135 642 1135 642 1001.5 584.5 c 128,-1,9
 868 527 868 527 697 527 c 2,10,-1
 303 527 l 1,11,-1
 344 774 l 1,12,-1
 713 774 l 2,13,14
 801 774 801 774 865 801.5 c 128,-1,15
 929 829 929 829 968.5 881 c 128,-1,16
 1008 933 1008 933 1020 1005 c 0,17,18
 1039 1117 1039 1117 978.5 1177 c 128,-1,19
 918 1237 918 1237 788 1237 c 2,20,-1
 545 1237 l 1,21,-1
 339 0 l 1,22,-1
 33 0 l 1,0,-1
877 0 m 1,23,-1
 637 676 l 1,24,-1
 957 676 l 1,25,-1
 1204 0 l 1,26,-1
 877 0 l 1,23,-1
EndSplineSet
Substitution2: "'c2sc' Capitals to Small Capitals in Latin lookup 67 subtable" r.sc
Substitution2: "'ss06' Style Set 6 in Latin lookup 52 subtable" R.squared
Substitution2: "'ss05' Style Set 5 in Latin lookup 51 subtable" uni24C7
Substitution2: "'aalt' Access All Alternates in Latin lookup 0 subtable" r.sc
Position2: "'cpsp' Capital Spacing in Latin lookup 0 subtable" dx=0 dy=0 dh=0 dv=0
EndChar

StartChar: uni211F
Encoding: 8479 8479 395
Width: 1322
GlyphClass: 2
Flags: W
AnchorPoint: "Anchor-1" 821 1490 basechar 0
AnchorPoint: "Anchor-0" 594 0 basechar 0
LayerCount: 2
Fore
SplineSet
1140 1697 m 1,0,-1
 338 -365 l 1,1,-1
 225 -347 l 1,2,-1
 994 1620 l 1,3,-1
 688 1698 l 1,4,-1
 739 1806 l 1,5,-1
 1140 1697 l 1,0,-1
37 0 m 1,6,-1
 284 1490 l 1,7,-1
 872 1490 l 2,8,9
 1041 1490 1041 1490 1151.5 1430 c 128,-1,10
 1262 1370 1262 1370 1309.5 1261 c 128,-1,11
 1357 1152 1357 1152 1332 1003 c 0,12,13
 1308 856 1308 856 1223.5 749 c 128,-1,14
 1139 642 1139 642 1005.5 584.5 c 128,-1,15
 872 527 872 527 701 527 c 2,16,-1
 307 527 l 1,17,-1
 348 774 l 1,18,-1
 717 774 l 2,19,20
 805 774 805 774 869 801.5 c 128,-1,21
 933 829 933 829 972.5 881 c 128,-1,22
 1012 933 1012 933 1024 1005 c 0,23,24
 1043 1117 1043 1117 983 1177 c 128,-1,25
 923 1237 923 1237 793 1237 c 2,26,-1
 549 1237 l 1,27,-1
 344 0 l 1,28,-1
 37 0 l 1,6,-1
881 0 m 1,29,-1
 641 676 l 1,30,-1
 961 676 l 1,31,-1
 1209 0 l 1,32,-1
 881 0 l 1,29,-1
EndSplineSet
EndChar

StartChar: Rx
Encoding: 8478 8478 396
Width: 1533
Flags: W
LayerCount: 2
Fore
SplineSet
280 1490 m 1,0,-1
 848 1490 l 2,1,2
 1029 1490 1029 1490 1139.5 1433 c 128,-1,3
 1250 1376 1250 1376 1292.5 1272 c 128,-1,4
 1335 1168 1335 1168 1311 1026 c 0,5,6
 1291 908 1291 908 1234 819.5 c 128,-1,7
 1177 731 1177 731 1093.5 672.5 c 128,-1,8
 1010 614 1010 614 908 582 c 1,9,-1
 837 555 l 1,10,-1
 323 555 l 1,11,-1
 363 806 l 1,12,-1
 729 806 l 2,13,14
 811 806 811 806 869.5 831 c 128,-1,15
 928 856 928 856 963.5 904 c 128,-1,16
 999 952 999 952 1010 1020 c 0,17,18
 1018 1068 1018 1068 1010.5 1107.5 c 128,-1,19
 1003 1147 1003 1147 979.5 1176 c 128,-1,20
 956 1205 956 1205 913 1222 c 128,-1,21
 870 1239 870 1239 806 1239 c 2,22,-1
 542 1240 l 1,23,-1
 337 0 l 1,24,-1
 33 0 l 1,25,-1
 280 1490 l 1,0,-1
1094 0 m 1,26,-1
 720 672 l 1,27,-1
 981 672 l 1,28,-1
 1361 0 l 1,29,-1
 1094 0 l 1,26,-1
844 0 m 1,30,-1
 623 0 l 1,31,-1
 1225 672 l 1,32,-1
 1438 672 l 1,33,-1
 844 0 l 1,30,-1
EndSplineSet
EndChar

StartChar: uni024C
Encoding: 588 588 397
Width: 1348
GlyphClass: 2
Flags: W
AnchorPoint: "Anchor-1" 848 1490 basechar 0
AnchorPoint: "Anchor-0" 621 0 basechar 0
LayerCount: 2
Fore
SplineSet
336 552 m 1,0,-1
 9 552 l 1,1,-1
 46 781 l 1,2,-1
 373 781 l 1,3,-1
 336 552 l 1,0,-1
64 0 m 1,4,-1
 311 1490 l 1,5,-1
 898 1490 l 2,6,7
 1068 1490 1068 1490 1178.5 1430 c 128,-1,8
 1289 1370 1289 1370 1336 1261 c 128,-1,9
 1383 1152 1383 1152 1358 1003 c 0,10,11
 1335 856 1335 856 1250.5 749 c 128,-1,12
 1166 642 1166 642 1032.5 584.5 c 128,-1,13
 899 527 899 527 727 527 c 2,14,-1
 334 527 l 1,15,-1
 375 774 l 1,16,-1
 744 774 l 2,17,18
 831 774 831 774 895.5 801.5 c 128,-1,19
 960 829 960 829 999.5 881 c 128,-1,20
 1039 933 1039 933 1051 1005 c 0,21,22
 1070 1117 1070 1117 1009.5 1177 c 128,-1,23
 949 1237 949 1237 819 1237 c 2,24,-1
 576 1237 l 1,25,-1
 370 0 l 1,26,-1
 64 0 l 1,4,-1
908 0 m 1,27,-1
 668 676 l 1,28,-1
 988 676 l 1,29,-1
 1235 0 l 1,30,-1
 908 0 l 1,27,-1
EndSplineSet
Position2: "'cpsp' Capital Spacing in Latin lookup 0 subtable" dx=0 dy=0 dh=0 dv=0
EndChar

StartChar: S
Encoding: 83 83 398
Width: 1339
GlyphClass: 2
Flags: W
AnchorPoint: "Anchor-3" 581 0 basechar 0
AnchorPoint: "Anchor-1" 826 1490 basechar 0
AnchorPoint: "Anchor-0" 584 0 basechar 0
LayerCount: 2
Fore
SplineSet
602 -23 m 0,0,1
 416 -23 416 -23 287.5 35.5 c 128,-1,2
 159 94 159 94 101 205.5 c 128,-1,3
 43 317 43 317 67 475 c 1,4,-1
 364 475 l 1,5,6
 354 397 354 397 383 342.5 c 128,-1,7
 412 288 412 288 473.5 260 c 128,-1,8
 535 232 535 232 624 232 c 0,9,10
 708 232 708 232 775 256.5 c 128,-1,11
 842 281 842 281 884 324.5 c 128,-1,12
 926 368 926 368 935 426 c 0,13,14
 944 475 944 475 921.5 509.5 c 128,-1,15
 899 544 899 544 846.5 570 c 128,-1,16
 794 596 794 596 709 616 c 2,17,-1
 554 654 l 2,18,19
 360 700 360 700 266 802 c 128,-1,20
 172 904 172 904 200 1070 c 0,21,22
 221 1203 221 1203 305.5 1303 c 128,-1,23
 390 1403 390 1403 522 1457.5 c 128,-1,24
 654 1512 654 1512 817 1512 c 0,25,26
 986 1512 986 1512 1105 1455 c 128,-1,27
 1224 1398 1224 1398 1280.5 1294 c 128,-1,28
 1337 1190 1337 1190 1316 1049 c 1,29,-1
 1026 1049 l 1,30,31
 1033 1148 1033 1148 972.5 1203 c 128,-1,32
 912 1258 912 1258 794 1258 c 0,33,34
 717 1258 717 1258 656 1234.5 c 128,-1,35
 595 1211 595 1211 557 1170 c 128,-1,36
 519 1129 519 1129 510 1076 c 0,37,38
 502 1027 502 1027 525 992.5 c 128,-1,39
 548 958 548 958 598.5 934.5 c 128,-1,40
 649 911 649 911 724 892 c 2,41,-1
 857 860 l 2,42,43
 959 837 959 837 1037.5 799.5 c 128,-1,44
 1116 762 1116 762 1166.5 709 c 128,-1,45
 1217 656 1217 656 1236.5 585 c 128,-1,46
 1256 514 1256 514 1241 424 c 0,47,48
 1219 286 1219 286 1136 186 c 128,-1,49
 1053 86 1053 86 918 31.5 c 128,-1,50
 783 -23 783 -23 602 -23 c 0,0,1
EndSplineSet
Substitution2: "'ss06' Style Set 6 in Latin lookup 52 subtable" S.squared
Substitution2: "'ss05' Style Set 5 in Latin lookup 51 subtable" uni24C8
Position2: "'cpsp' Capital Spacing in Latin lookup 0 subtable" dx=0 dy=0 dh=0 dv=0
EndChar

StartChar: uni01A7
Encoding: 423 423 410
Width: 1339
GlyphClass: 2
Flags: W
AnchorPoint: "Anchor-3" 577 0 basechar 0
AnchorPoint: "Anchor-1" 828 1490 basechar 0
AnchorPoint: "Anchor-0" 575 0 basechar 0
LayerCount: 2
Fore
SplineSet
580 -23 m 0,0,1
 398 -23 398 -23 273.5 33 c 128,-1,2
 149 89 149 89 92.5 191.5 c 128,-1,3
 36 294 36 294 60 432 c 0,4,5
 74 521 74 521 116 590.5 c 128,-1,6
 158 660 158 660 225 712 c 128,-1,7
 292 764 292 764 382 801 c 128,-1,8
 472 838 472 838 582 861 c 2,9,-1
 726 893 l 2,10,11
 807 911 807 911 866.5 935 c 128,-1,12
 926 959 926 959 961.5 994 c 128,-1,13
 997 1029 997 1029 1006 1079 c 0,14,15
 1014 1132 1014 1132 992 1172.5 c 128,-1,16
 970 1213 970 1213 919.5 1235.5 c 128,-1,17
 869 1258 869 1258 792 1258 c 0,18,19
 714 1258 714 1258 649.5 1232.5 c 128,-1,20
 585 1207 585 1207 541.5 1160.5 c 128,-1,21
 498 1114 498 1114 481 1049 c 1,22,-1
 189 1049 l 1,23,24
 217 1189 217 1189 300 1293.5 c 128,-1,25
 383 1398 383 1398 513.5 1455 c 128,-1,26
 644 1512 644 1512 812 1512 c 0,27,28
 978 1512 978 1512 1098.5 1455.5 c 128,-1,29
 1219 1399 1219 1399 1277.5 1298 c 128,-1,30
 1336 1197 1336 1197 1313 1061 c 0,31,32
 1285 899 1285 899 1160.5 799 c 128,-1,33
 1036 699 1036 699 825 652 c 2,34,-1
 657 614 l 2,35,36
 567 594 567 594 504 568.5 c 128,-1,37
 441 543 441 543 407 508 c 128,-1,38
 373 473 373 473 364 423 c 0,39,40
 350 337 350 337 413 284.5 c 128,-1,41
 476 232 476 232 600 232 c 0,42,43
 690 232 690 232 763.5 260 c 128,-1,44
 837 288 837 288 887 342.5 c 128,-1,45
 937 397 937 397 953 475 c 1,46,-1
 1250 475 l 1,47,48
 1222 317 1222 317 1133.5 205 c 128,-1,49
 1045 93 1045 93 905 35 c 128,-1,50
 765 -23 765 -23 580 -23 c 0,0,1
EndSplineSet
Position2: "'cpsp' Capital Spacing in Latin lookup 0 subtable" dx=0 dy=0 dh=0 dv=0
EndChar

StartChar: uni1E9E
Encoding: 7838 7838 411
Width: 1445
Flags: W
LayerCount: 2
Fore
SplineSet
33 0 m 1,0,-1
 196 982 l 2,1,2
 224 1150 224 1150 306.5 1268 c 128,-1,3
 389 1386 389 1386 518 1448.5 c 128,-1,4
 647 1511 647 1511 816 1511 c 0,5,6
 929 1511 929 1511 1035 1478 c 128,-1,7
 1141 1445 1141 1445 1233.5 1387.5 c 128,-1,8
 1326 1330 1326 1330 1400 1255 c 1,9,-1
 1004 863 l 1,10,11
 1129 847 1129 847 1213 788.5 c 128,-1,12
 1297 730 1297 730 1332.5 638 c 128,-1,13
 1368 546 1368 546 1349 431 c 0,14,15
 1325 293 1325 293 1241 192 c 128,-1,16
 1157 91 1157 91 1029 35.5 c 128,-1,17
 901 -20 901 -20 746 -20 c 0,18,19
 665 -20 665 -20 581 -4 c 128,-1,20
 497 12 497 12 432 40 c 1,21,-1
 554 268 l 1,22,23
 599 249 599 249 653.5 235 c 128,-1,24
 708 221 708 221 766 221 c 0,25,26
 883 221 883 221 958.5 276.5 c 128,-1,27
 1034 332 1034 332 1050 432 c 0,28,29
 1061 491 1061 491 1049.5 533 c 128,-1,30
 1038 575 1038 575 1011.5 602 c 128,-1,31
 985 629 985 629 949.5 645 c 128,-1,32
 914 661 914 661 875.5 667 c 128,-1,33
 837 673 837 673 803 673 c 2,34,-1
 665 673 l 1,35,-1
 696 859 l 1,36,-1
 1021 1184 l 1,37,38
 984 1218 984 1218 922.5 1242.5 c 128,-1,39
 861 1267 861 1267 780 1268 c 0,40,41
 693 1268 693 1268 635.5 1230.5 c 128,-1,42
 578 1193 578 1193 546 1127.5 c 128,-1,43
 514 1062 514 1062 500 978 c 2,44,-1
 337 0 l 1,45,-1
 33 0 l 1,0,-1
EndSplineSet
Position2: "'cpsp' Capital Spacing in Latin lookup 0 subtable" dx=0 dy=0 dh=0 dv=0
EndChar

StartChar: T
Encoding: 84 84 412
Width: 1336
GlyphClass: 2
Flags: W
AnchorPoint: "Anchor-3" 575 0 basechar 0
AnchorPoint: "Anchor-1" 825 1490 basechar 0
AnchorPoint: "Anchor-0" 578 0 basechar 0
LayerCount: 2
Fore
SplineSet
175 1233 m 1,0,-1
 217 1490 l 1,1,-1
 1432 1490 l 1,2,-1
 1389 1233 l 1,3,-1
 935 1233 l 1,4,-1
 732 0 l 1,5,-1
 425 0 l 1,6,-1
 629 1233 l 1,7,-1
 175 1233 l 1,0,-1
EndSplineSet
Substitution2: "'c2sc' Capitals to Small Capitals in Latin lookup 67 subtable" t.sc
Substitution2: "'ss06' Style Set 6 in Latin lookup 52 subtable" T.squared
Substitution2: "'ss05' Style Set 5 in Latin lookup 51 subtable" uni24C9
Substitution2: "'aalt' Access All Alternates in Latin lookup 0 subtable" t.sc
Position2: "'cpsp' Capital Spacing in Latin lookup 0 subtable" dx=0 dy=0 dh=0 dv=0
EndChar

StartChar: uni01AC
Encoding: 428 428 420
Width: 1446
GlyphClass: 2
Flags: W
LayerCount: 2
Fore
SplineSet
179 1049 m 1,0,-1
 197 1160 l 2,1,2
 224 1321 224 1321 326.5 1405.5 c 128,-1,3
 429 1490 429 1490 611 1490 c 2,4,-1
 722 1490 l 1,5,-1
 679 1236 l 1,6,-1
 604 1236 l 2,7,8
 547 1236 547 1236 515 1211 c 128,-1,9
 483 1186 483 1186 475 1132 c 2,10,-1
 461 1049 l 1,11,-1
 179 1049 l 1,0,-1
679 1233 m 1,12,-1
 722 1490 l 1,13,-1
 1542 1490 l 1,14,-1
 1499 1233 l 1,15,-1
 1043 1233 l 1,16,-1
 839 0 l 1,17,-1
 533 0 l 1,18,-1
 736 1233 l 1,19,-1
 679 1233 l 1,12,-1
EndSplineSet
Position2: "'cpsp' Capital Spacing in Latin lookup 0 subtable" dx=0 dy=0 dh=0 dv=0
EndChar

StartChar: uni01AC.base
Encoding: 60940 60940 421
Width: 1345
GlyphClass: 2
Flags: W
LayerCount: 2
Fore
SplineSet
578 1233 m 1,0,-1
 621 1490 l 1,1,-1
 1441 1490 l 1,2,-1
 1398 1233 l 1,3,-1
 942 1233 l 1,4,-1
 738 0 l 1,5,-1
 432 0 l 1,6,-1
 635 1233 l 1,7,-1
 578 1233 l 1,0,-1
EndSplineSet
EndChar

StartChar: Trthook
Encoding: 430 430 422
Width: 1336
GlyphClass: 2
Flags: W
AnchorPoint: "Anchor-3" 575 0 basechar 0
AnchorPoint: "Anchor-1" 825 1490 basechar 0
AnchorPoint: "Anchor-0" 578 0 basechar 0
LayerCount: 2
Fore
SplineSet
729 0 m 1,0,-1
 717 -74 l 2,1,2
 706 -141 706 -141 752 -162 c 128,-1,3
 798 -183 798 -183 859 -183 c 2,4,-1
 921 -183 l 1,5,-1
 882 -418 l 1,6,-1
 742 -418 l 2,7,8
 671 -418 671 -418 605.5 -403 c 128,-1,9
 540 -388 540 -388 491.5 -350 c 128,-1,10
 443 -312 443 -312 422 -244.5 c 128,-1,11
 401 -177 401 -177 419 -73 c 2,12,-1
 432 0 l 1,13,-1
 729 0 l 1,0,-1
175 1233 m 1,14,-1
 217 1490 l 1,15,-1
 1432 1490 l 1,16,-1
 1389 1233 l 1,17,-1
 935 1233 l 1,18,-1
 732 0 l 1,19,-1
 425 0 l 1,20,-1
 629 1233 l 1,21,-1
 175 1233 l 1,14,-1
EndSplineSet
Position2: "'cpsp' Capital Spacing in Latin lookup 0 subtable" dx=0 dy=0 dh=0 dv=0
EndChar

StartChar: uni023E
Encoding: 574 574 423
Width: 1336
GlyphClass: 2
Flags: W
AnchorPoint: "Anchor-3" 575 0 basechar 0
AnchorPoint: "Anchor-1" 825 1490 basechar 0
AnchorPoint: "Anchor-0" 578 0 basechar 0
LayerCount: 2
Fore
SplineSet
174 -190 m 1,0,-1
 1094 1678 l 1,1,-1
 1282 1678 l 1,2,-1
 362 -190 l 1,3,-1
 174 -190 l 1,0,-1
175 1233 m 1,4,-1
 217 1490 l 1,5,-1
 1432 1490 l 1,6,-1
 1389 1233 l 1,7,-1
 935 1233 l 1,8,-1
 732 0 l 1,9,-1
 425 0 l 1,10,-1
 629 1233 l 1,11,-1
 175 1233 l 1,4,-1
EndSplineSet
Position2: "'cpsp' Capital Spacing in Latin lookup 0 subtable" dx=0 dy=0 dh=0 dv=0
EndChar

StartChar: U
Encoding: 85 85 425
Width: 1471
GlyphClass: 2
Flags: W
AnchorPoint: "Anchor-4" 1345 512 basechar 0
AnchorPoint: "Anchor-1" 892 1490 basechar 0
AnchorPoint: "Anchor-0" 645 0 basechar 0
LayerCount: 2
Fore
SplineSet
657 -22 m 0,0,1
 469 -22 469 -22 338 48.5 c 128,-1,2
 207 119 207 119 150 244 c 128,-1,3
 93 369 93 369 119 531 c 2,4,-1
 278 1490 l 1,5,-1
 581 1490 l 1,6,-1
 424 536 l 2,7,8
 410 449 410 449 435 384 c 128,-1,9
 460 319 460 319 520.5 282.5 c 128,-1,10
 581 246 581 246 670 246 c 0,11,12
 768 246 768 246 848.5 287 c 128,-1,13
 929 328 929 328 981.5 398.5 c 128,-1,14
 1034 469 1034 469 1048 557 c 2,15,-1
 1203 1490 l 1,16,-1
 1506 1490 l 1,17,-1
 1345 512 l 2,18,19
 1318 349 1318 349 1224 229 c 128,-1,20
 1130 109 1130 109 984.5 43.5 c 128,-1,21
 839 -22 839 -22 657 -22 c 0,0,1
EndSplineSet
Substitution2: "'ss06' Style Set 6 in Latin lookup 52 subtable" U.squared
Substitution2: "'ss05' Style Set 5 in Latin lookup 51 subtable" uni24CA
Position2: "'cpsp' Capital Spacing in Latin lookup 0 subtable" dx=0 dy=0 dh=0 dv=0
EndChar

StartChar: Uhorn
Encoding: 431 431 426
Width: 1469
GlyphClass: 2
Flags: W
AnchorPoint: "Anchor-4" 1345 512 basechar 0
AnchorPoint: "Anchor-1" 892 1490 basechar 0
AnchorPoint: "Anchor-0" 645 0 basechar 0
LayerCount: 2
Fore
SplineSet
1172 1297 m 1,0,-1
 1204 1490 l 1,1,-1
 1386 1490 l 2,2,3
 1411 1490 1411 1490 1415 1516 c 2,4,-1
 1447 1714 l 1,5,-1
 1713 1714 l 1,6,-1
 1677 1497 l 2,7,8
 1661 1395 1661 1395 1593 1346 c 128,-1,9
 1525 1297 1525 1297 1427 1297 c 2,10,-1
 1172 1297 l 1,0,-1
657 -22 m 0,11,12
 469 -22 469 -22 338 48.5 c 128,-1,13
 207 119 207 119 150 244 c 128,-1,14
 93 369 93 369 119 531 c 2,15,-1
 278 1490 l 1,16,-1
 581 1490 l 1,17,-1
 424 536 l 2,18,19
 410 449 410 449 435 384 c 128,-1,20
 460 319 460 319 520.5 282.5 c 128,-1,21
 581 246 581 246 670 246 c 0,22,23
 768 246 768 246 848.5 287 c 128,-1,24
 929 328 929 328 981.5 398.5 c 128,-1,25
 1034 469 1034 469 1048 557 c 2,26,-1
 1203 1490 l 1,27,-1
 1506 1490 l 1,28,-1
 1345 512 l 2,29,30
 1318 349 1318 349 1224 229 c 128,-1,31
 1130 109 1130 109 984.5 43.5 c 128,-1,32
 839 -22 839 -22 657 -22 c 0,11,12
EndSplineSet
Position2: "'cpsp' Capital Spacing in Latin lookup 0 subtable" dx=0 dy=0 dh=0 dv=0
EndChar

StartChar: uni0244
Encoding: 580 580 456
Width: 1529
GlyphClass: 2
Flags: W
AnchorPoint: "Anchor-4" 1378 512 basechar 0
AnchorPoint: "Anchor-1" 926 1490 basechar 0
AnchorPoint: "Anchor-0" 679 0 basechar 0
LayerCount: 2
Fore
SplineSet
1601 848 m 1,0,-1
 1572 674 l 1,1,-1
 1 674 l 1,2,-1
 30 848 l 1,3,-1
 1601 848 l 1,0,-1
691 -22 m 0,4,5
 502 -22 502 -22 371.5 48.5 c 128,-1,6
 241 119 241 119 183.5 244 c 128,-1,7
 126 369 126 369 153 531 c 2,8,-1
 312 1490 l 1,9,-1
 615 1490 l 1,10,-1
 458 536 l 2,11,12
 443 449 443 449 468 384 c 128,-1,13
 493 319 493 319 554 282.5 c 128,-1,14
 615 246 615 246 703 246 c 0,15,16
 801 246 801 246 882 287 c 128,-1,17
 963 328 963 328 1015 398.5 c 128,-1,18
 1067 469 1067 469 1082 557 c 2,19,-1
 1236 1490 l 1,20,-1
 1540 1490 l 1,21,-1
 1378 512 l 2,22,23
 1352 349 1352 349 1257.5 229 c 128,-1,24
 1163 109 1163 109 1018 43.5 c 128,-1,25
 873 -22 873 -22 691 -22 c 0,4,5
EndSplineSet
Position2: "'cpsp' Capital Spacing in Latin lookup 0 subtable" dx=0 dy=0 dh=0 dv=0
EndChar

StartChar: V
Encoding: 86 86 457
Width: 1488
GlyphClass: 2
Flags: W
AnchorPoint: "Anchor-1" 900 1490 basechar 0
AnchorPoint: "Anchor-0" 653 0 basechar 0
LayerCount: 2
Fore
SplineSet
462 0 m 1,0,-1
 186 1490 l 1,1,-1
 517 1490 l 1,2,-1
 638 768 l 2,3,4
 659 630 659 630 677 470.5 c 128,-1,5
 695 311 695 311 715 120 c 1,6,-1
 638 120 l 1,7,8
 720 310 720 310 790 471 c 128,-1,9
 860 632 860 632 924 768 c 2,10,-1
 1275 1490 l 1,11,-1
 1615 1490 l 1,12,-1
 857 0 l 1,13,-1
 462 0 l 1,0,-1
EndSplineSet
Substitution2: "'ss06' Style Set 6 in Latin lookup 52 subtable" V.squared
Substitution2: "'ss05' Style Set 5 in Latin lookup 51 subtable" uni24CB
Position2: "'cpsp' Capital Spacing in Latin lookup 0 subtable" dx=0 dy=0 dh=0 dv=0
EndChar

StartChar: W
Encoding: 87 87 460
Width: 2083
GlyphClass: 2
Flags: W
AnchorPoint: "Anchor-1" 1198 1490 basechar 0
AnchorPoint: "Anchor-0" 951 0 basechar 0
LayerCount: 2
Fore
SplineSet
339 0 m 1,0,-1
 186 1490 l 1,1,-1
 515 1490 l 1,2,-1
 566 754 l 2,3,4
 572 662 572 662 574 563.5 c 128,-1,5
 576 465 576 465 576.5 366.5 c 128,-1,6
 577 268 577 268 579 173 c 1,7,-1
 520 173 l 1,8,9
 555 268 555 268 589.5 366.5 c 128,-1,10
 624 465 624 465 660 563.5 c 128,-1,11
 696 662 696 662 733 754 c 2,12,-1
 1039 1490 l 1,13,-1
 1354 1490 l 1,14,-1
 1415 754 l 2,15,16
 1422 662 1422 662 1425.5 563.5 c 128,-1,17
 1429 465 1429 465 1431 366.5 c 128,-1,18
 1433 268 1433 268 1436 173 c 1,19,-1
 1375 173 l 1,20,21
 1409 268 1409 268 1442 366.5 c 128,-1,22
 1475 465 1475 465 1510 563.5 c 128,-1,23
 1545 662 1545 662 1582 754 c 2,24,-1
 1878 1490 l 1,25,-1
 2211 1490 l 1,26,-1
 1563 0 l 1,27,-1
 1217 0 l 1,28,-1
 1143 788 l 2,29,30
 1133 897 1133 897 1132 1024.5 c 128,-1,31
 1131 1152 1131 1152 1126 1300 c 1,32,-1
 1206 1300 l 1,33,34
 1151 1154 1151 1154 1109 1026.5 c 128,-1,35
 1067 899 1067 899 1020 788 c 2,36,-1
 686 0 l 1,37,-1
 339 0 l 1,0,-1
EndSplineSet
Substitution2: "'ss06' Style Set 6 in Latin lookup 52 subtable" W.squared
Substitution2: "'ss05' Style Set 5 in Latin lookup 51 subtable" uni24CC
Position2: "'cpsp' Capital Spacing in Latin lookup 0 subtable" dx=0 dy=0 dh=0 dv=0
EndChar

StartChar: X
Encoding: 88 88 467
Width: 1471
GlyphClass: 2
Flags: W
AnchorPoint: "Anchor-1" 892 1490 basechar 0
AnchorPoint: "Anchor-0" 645 -2 basechar 0
LayerCount: 2
Fore
SplineSet
-59 0 m 1,0,-1
 700 874 l 1,1,-1
 662 644 l 1,2,-1
 236 1490 l 1,3,-1
 578 1490 l 1,4,-1
 699 1238 l 2,5,6
 728 1179 728 1179 749 1126 c 128,-1,7
 770 1073 770 1073 789 1022.5 c 128,-1,8
 808 972 808 972 829 918 c 1,9,-1
 749 918 l 1,10,11
 789 971 789 971 825.5 1022 c 128,-1,12
 862 1073 862 1073 901 1126.5 c 128,-1,13
 940 1180 940 1180 989 1238 c 2,14,-1
 1200 1490 l 1,15,-1
 1552 1490 l 1,16,-1
 857 662 l 1,17,-1
 894 880 l 1,18,-1
 1349 0 l 1,19,-1
 998 0 l 1,20,-1
 842 314 l 2,21,22
 817 366 817 366 797.5 409 c 128,-1,23
 778 452 778 452 761 492 c 128,-1,24
 744 532 744 532 725 577 c 1,25,-1
 773 577 l 1,26,27
 739 532 739 532 708.5 492 c 128,-1,28
 678 452 678 452 644 409 c 128,-1,29
 610 366 610 366 566 314 c 2,30,-1
 301 0 l 1,31,-1
 -59 0 l 1,0,-1
EndSplineSet
Substitution2: "'ss06' Style Set 6 in Latin lookup 52 subtable" X.squared
Substitution2: "'ss05' Style Set 5 in Latin lookup 51 subtable" uni24CD
Position2: "'cpsp' Capital Spacing in Latin lookup 0 subtable" dx=0 dy=0 dh=0 dv=0
EndChar

StartChar: Y
Encoding: 89 89 473
Width: 1455
GlyphClass: 2
Flags: W
AnchorPoint: "Anchor-4" 793 0 basechar 0
AnchorPoint: "Anchor-1" 884 1490 basechar 0
AnchorPoint: "Anchor-0" 640 0 basechar 0
LayerCount: 2
Fore
SplineSet
491 0 m 1,0,-1
 583 559 l 1,1,-1
 186 1490 l 1,2,-1
 526 1490 l 1,3,-1
 702 1035 l 2,4,5
 729 969 729 969 749.5 904 c 128,-1,6
 770 839 770 839 789 761 c 1,7,-1
 722 761 l 1,8,9
 766 840 766 840 807 905 c 128,-1,10
 848 970 848 970 894 1035 c 2,11,-1
 1215 1490 l 1,12,-1
 1583 1490 l 1,13,-1
 885 559 l 1,14,-1
 793 0 l 1,15,-1
 491 0 l 1,0,-1
EndSplineSet
Substitution2: "'c2sc' Capitals to Small Capitals in Latin lookup 67 subtable" y.sc
Substitution2: "'ss06' Style Set 6 in Latin lookup 52 subtable" Y.squared
Substitution2: "'ss05' Style Set 5 in Latin lookup 51 subtable" uni24CE
Substitution2: "'aalt' Access All Alternates in Latin lookup 0 subtable" y.sc
Position2: "'cpsp' Capital Spacing in Latin lookup 0 subtable" dx=0 dy=0 dh=0 dv=0
EndChar

StartChar: uni01B3
Encoding: 435 435 474
Width: 1579
Flags: W
LayerCount: 2
Fore
SplineSet
795 810 m 1,0,-1
 801 844 l 1,1,-1
 836 844 l 1,2,-1
 831 810 l 1,3,-1
 795 810 l 1,0,-1
199 1490 m 1,4,-1
 531 1490 l 1,5,-1
 817 830 l 1,6,-1
 1179 1305 l 2,7,8
 1260 1410 1260 1410 1352 1457.5 c 128,-1,9
 1444 1505 1444 1505 1537 1507 c 128,-1,10
 1630 1509 1630 1509 1715 1474 c 1,11,-1
 1610 1245 l 1,12,13
 1543 1268 1543 1268 1494 1249 c 128,-1,14
 1445 1230 1445 1230 1390 1161 c 2,15,-1
 925 580 l 1,16,-1
 829 0 l 1,17,-1
 527 0 l 1,18,-1
 624 580 l 1,19,-1
 199 1490 l 1,4,-1
EndSplineSet
Position2: "'cpsp' Capital Spacing in Latin lookup 0 subtable" dx=0 dy=0 dh=0 dv=0
EndChar

StartChar: uni024E
Encoding: 590 590 484
Width: 1452
GlyphClass: 2
Flags: W
AnchorPoint: "Anchor-4" 793 0 basechar 0
AnchorPoint: "Anchor-1" 884 1490 basechar 0
AnchorPoint: "Anchor-0" 640 0 basechar 0
LayerCount: 2
Fore
SplineSet
1551 1180 m 1,0,-1
 1525 1022 l 1,1,-1
 85 1022 l 1,2,-1
 111 1180 l 1,3,-1
 1551 1180 l 1,0,-1
491 0 m 1,4,-1
 583 559 l 1,5,-1
 186 1490 l 1,6,-1
 526 1490 l 1,7,-1
 702 1035 l 2,8,9
 729 969 729 969 749.5 904 c 128,-1,10
 770 839 770 839 789 761 c 1,11,-1
 722 761 l 1,12,13
 766 840 766 840 807 905 c 128,-1,14
 848 970 848 970 894 1035 c 2,15,-1
 1215 1490 l 1,16,-1
 1583 1490 l 1,17,-1
 885 559 l 1,18,-1
 793 0 l 1,19,-1
 491 0 l 1,4,-1
EndSplineSet
Position2: "'cpsp' Capital Spacing in Latin lookup 0 subtable" dx=0 dy=0 dh=0 dv=0
EndChar

StartChar: Z
Encoding: 90 90 497
Width: 1336
GlyphClass: 2
Flags: W
AnchorPoint: "Anchor-1" 828 1490 basechar 0
AnchorPoint: "Anchor-0" 578 0 basechar 0
LayerCount: 2
Fore
SplineSet
14 0 m 1,0,-1
 44 182 l 1,1,-1
 966 1240 l 1,2,-1
 217 1240 l 1,3,-1
 259 1490 l 1,4,-1
 1390 1490 l 1,5,-1
 1360 1307 l 1,6,-1
 437 252 l 1,7,-1
 1187 252 l 1,8,-1
 1146 0 l 1,9,-1
 14 0 l 1,0,-1
EndSplineSet
Substitution2: "'ss06' Style Set 6 in Latin lookup 52 subtable" Z.squared
Substitution2: "'ss05' Style Set 5 in Latin lookup 51 subtable" uni24CF
Position2: "'cpsp' Capital Spacing in Latin lookup 0 subtable" dx=0 dy=0 dh=0 dv=0
EndChar

StartChar: uni0224
Encoding: 548 548 504
Width: 1336
GlyphClass: 2
Flags: W
AnchorPoint: "Anchor-1" 828 1490 basechar 0
AnchorPoint: "Anchor-0" 578 0 basechar 0
LayerCount: 2
Fore
SplineSet
555 -417 m 1,0,-1
 595 -178 l 1,1,2
 614 -180 614 -180 643 -181 c 128,-1,3
 672 -182 672 -182 699 -182 c 0,4,5
 759 -182 759 -182 787.5 -161 c 128,-1,6
 816 -140 816 -140 824 -92 c 2,7,-1
 839 0 l 1,8,-1
 1146 0 l 1,9,-1
 1127 -108 l 2,10,11
 1101 -266 1101 -266 996.5 -346 c 128,-1,12
 892 -426 892 -426 715 -426 c 0,13,14
 667 -426 667 -426 625.5 -424 c 128,-1,15
 584 -422 584 -422 555 -417 c 1,0,-1
14 0 m 1,16,-1
 44 182 l 1,17,-1
 966 1240 l 1,18,-1
 217 1240 l 1,19,-1
 259 1490 l 1,20,-1
 1390 1490 l 1,21,-1
 1360 1307 l 1,22,-1
 437 252 l 1,23,-1
 1187 252 l 1,24,-1
 1146 0 l 1,25,-1
 14 0 l 1,16,-1
EndSplineSet
Position2: "'cpsp' Capital Spacing in Latin lookup 0 subtable" dx=0 dy=0 dh=0 dv=0
EndChar

StartChar: uni2C7F
Encoding: 11391 11391 507
Width: 1347
Flags: W
LayerCount: 2
Fore
SplineSet
911 -434 m 0,0,1
 820 -434 820 -434 753 -402.5 c 128,-1,2
 686 -371 686 -371 633.5 -321.5 c 128,-1,3
 581 -272 581 -272 531.5 -216.5 c 128,-1,4
 482 -161 482 -161 425.5 -111.5 c 128,-1,5
 369 -62 369 -62 294.5 -31 c 128,-1,6
 220 0 220 0 118 0 c 2,7,-1
 14 0 l 1,8,-1
 42 171 l 1,9,-1
 961 1244 l 1,10,-1
 218 1244 l 1,11,-1
 259 1490 l 1,12,-1
 1383 1490 l 1,13,-1
 1355 1320 l 1,14,-1
 413 214 l 1,15,16
 501 187 501 187 564.5 137.5 c 128,-1,17
 628 88 628 88 677.5 32 c 128,-1,18
 727 -24 727 -24 771.5 -73.5 c 128,-1,19
 816 -123 816 -123 865.5 -155 c 128,-1,20
 915 -187 915 -187 981 -187 c 0,21,22
 1023 -187 1023 -187 1058.5 -181.5 c 128,-1,23
 1094 -176 1094 -176 1129 -166 c 1,24,-1
 1090 -406 l 1,25,26
 1056 -418 1056 -418 1010 -426 c 128,-1,27
 964 -434 964 -434 911 -434 c 0,0,1
EndSplineSet
Position2: "'cpsp' Capital Spacing in Latin lookup 0 subtable" dx=0 dy=0 dh=0 dv=0
EndChar

StartChar: a
Encoding: 97 97 508
Width: 1257
GlyphClass: 2
Flags: W
AnchorPoint: "Anchor-4" 1050 0 basechar 0
AnchorPoint: "Anchor-1" 721 1087 basechar 0
AnchorPoint: "Anchor-0" 537 0 basechar 0
LayerCount: 2
Fore
SplineSet
432 -20 m 0,0,1
 299 -20 299 -20 207 47.5 c 128,-1,2
 115 115 115 115 77.5 241.5 c 128,-1,3
 40 368 40 368 70 544 c 0,4,5
 99 721 99 721 179.5 846 c 128,-1,6
 260 971 260 971 374 1038 c 128,-1,7
 488 1105 488 1105 618 1105 c 0,8,9
 699 1105 699 1105 756 1080 c 128,-1,10
 813 1055 813 1055 849 1013.5 c 128,-1,11
 885 972 885 972 903 922 c 1,12,-1
 909 922 l 1,13,-1
 937 1087 l 1,14,-1
 1230 1087 l 1,15,-1
 1050 0 l 1,16,-1
 759 0 l 1,17,-1
 787 169 l 1,18,-1
 777 169 l 1,19,20
 744 116 744 116 693.5 73 c 128,-1,21
 643 30 643 30 578 5 c 128,-1,22
 513 -20 513 -20 432 -20 c 0,0,1
557 220 m 0,23,24
 633 220 633 220 694 260.5 c 128,-1,25
 755 301 755 301 797 373.5 c 128,-1,26
 839 446 839 446 855 545 c 0,27,28
 870 643 870 643 852.5 715 c 128,-1,29
 835 787 835 787 787 826.5 c 128,-1,30
 739 866 739 866 663 866 c 0,31,32
 588 866 588 866 528.5 826.5 c 128,-1,33
 469 787 469 787 429 714.5 c 128,-1,34
 389 642 389 642 371 545 c 0,35,36
 356 446 356 446 372.5 373 c 128,-1,37
 389 300 389 300 435.5 260 c 128,-1,38
 482 220 482 220 557 220 c 0,23,24
EndSplineSet
Substitution2: "'smcp' Lowercase to Small Capitals in Latin lookup 68 subtable" a.sc
Substitution2: "'c2sc' Capitals to Small Capitals in Latin lookup 67 subtable" a.sc
Substitution2: "Single Substitution lookup 44 subtable" ordfeminine
Substitution2: "'sups' Superscript in Latin lookup 39 subtable" a.sups
Substitution2: "'subs' Subscript in Latin lookup 38 subtable" a.subs
Substitution2: "'sinf' Scientific Inferiors in Latin lookup 18 subtable" a.subs
AlternateSubs2: "'aalt' Access All Alternates in Latin lookup 1 subtable" ordfeminine a.sups a.subs a.sc
EndChar

StartChar: aturn
Encoding: 592 592 540
Width: 1257
GlyphClass: 2
Flags: W
AnchorPoint: "Anchor-4" 207 1087 basechar 0
AnchorPoint: "Anchor-1" 733 1087 basechar 0
AnchorPoint: "Anchor-0" 552 0 basechar 0
LayerCount: 2
Fore
SplineSet
825 1107 m 0,0,1
 958 1107 958 1107 1050 1039.5 c 128,-1,2
 1142 972 1142 972 1179.5 846 c 128,-1,3
 1217 720 1217 720 1187 544 c 0,4,5
 1158 368 1158 368 1077.5 242 c 128,-1,6
 997 116 997 116 883 49 c 128,-1,7
 769 -18 769 -18 639 -18 c 0,8,9
 558 -18 558 -18 501 7.5 c 128,-1,10
 444 33 444 33 408 74.5 c 128,-1,11
 372 116 372 116 354 166 c 1,12,-1
 347 166 l 1,13,-1
 320 0 l 1,14,-1
 27 0 l 1,15,-1
 207 1087 l 1,16,-1
 498 1087 l 1,17,-1
 470 919 l 1,18,-1
 479 919 l 1,19,20
 514 972 514 972 564 1014.5 c 128,-1,21
 614 1057 614 1057 679.5 1082 c 128,-1,22
 745 1107 745 1107 825 1107 c 0,0,1
700 867 m 0,23,24
 624 867 624 867 563 827 c 128,-1,25
 502 787 502 787 460.5 714.5 c 128,-1,26
 419 642 419 642 402 544 c 0,27,28
 386 446 386 446 403.5 373.5 c 128,-1,29
 421 301 421 301 469.5 261.5 c 128,-1,30
 518 222 518 222 593 222 c 0,31,32
 669 222 669 222 728.5 261.5 c 128,-1,33
 788 301 788 301 828.5 373.5 c 128,-1,34
 869 446 869 446 885 544 c 0,35,36
 901 643 901 643 884.5 715.5 c 128,-1,37
 868 788 868 788 821.5 827.5 c 128,-1,38
 775 867 775 867 700 867 c 0,23,24
EndSplineSet
EndChar

StartChar: ae
Encoding: 230 230 544
Width: 1855
GlyphClass: 2
Flags: W
AnchorPoint: "Anchor-1" 991 1087 basechar 0
LayerCount: 2
Fore
SplineSet
383 -17 m 0,0,1
 197 -17 197 -17 101 71.5 c 128,-1,2
 5 160 5 160 30 310 c 0,3,4
 46 405 46 405 103 476.5 c 128,-1,5
 160 548 160 548 256.5 588 c 128,-1,6
 353 628 353 628 485 629 c 0,7,8
 539 630 539 630 589 629.5 c 128,-1,9
 639 629 639 629 692.5 629 c 128,-1,10
 746 629 746 629 810 629 c 1,11,-1
 785 452 l 1,12,13
 722 452 722 452 655.5 451.5 c 128,-1,14
 589 451 589 451 527 450 c 0,15,16
 439 449 439 449 382 416 c 128,-1,17
 325 383 325 383 315 320 c 0,18,19
 305 256 305 256 341.5 222.5 c 128,-1,20
 378 189 378 189 453 189 c 0,21,22
 526 189 526 189 582.5 216.5 c 128,-1,23
 639 244 639 244 675.5 290.5 c 128,-1,24
 712 337 712 337 721 395 c 2,25,-1
 780 740 l 2,26,27
 793 812 793 812 753 850 c 128,-1,28
 713 888 713 888 623 888 c 0,29,30
 569 888 569 888 525 871 c 128,-1,31
 481 854 481 854 451 823 c 128,-1,32
 421 792 421 792 409 749 c 1,33,-1
 131 760 l 1,34,35
 157 861 157 861 229 939.5 c 128,-1,36
 301 1018 301 1018 411.5 1063 c 128,-1,37
 522 1108 522 1108 662 1108 c 0,38,39
 799 1108 799 1108 884.5 1062.5 c 128,-1,40
 970 1017 970 1017 1003 937 c 128,-1,41
 1036 857 1036 857 1018 749 c 2,42,-1
 948 330 l 1,43,-1
 931 323 l 1,44,45
 902 219 902 219 831 143 c 128,-1,46
 760 67 760 67 648.5 25 c 128,-1,47
 537 -17 537 -17 383 -17 c 0,0,1
1214 -24 m 0,48,49
 1057 -24 1057 -24 947 35.5 c 128,-1,50
 837 95 837 95 785.5 210 c 128,-1,51
 734 325 734 325 750 492 c 0,52,53
 761 629 761 629 811.5 742.5 c 128,-1,54
 862 856 862 856 945 938 c 128,-1,55
 1028 1020 1028 1020 1136 1064 c 128,-1,56
 1244 1108 1244 1108 1371 1108 c 0,57,58
 1490 1108 1490 1108 1584.5 1071 c 128,-1,59
 1679 1034 1679 1034 1733.5 962.5 c 128,-1,60
 1788 891 1788 891 1788 788 c 256,61,62
 1788 685 1788 685 1726.5 619 c 128,-1,63
 1665 553 1665 553 1546 516 c 128,-1,64
 1427 479 1427 479 1254.5 464.5 c 128,-1,65
 1082 450 1082 450 859 450 c 1,66,-1
 888 628 l 1,67,68
 1080 628 1080 628 1201.5 636 c 128,-1,69
 1323 644 1323 644 1390.5 662 c 128,-1,70
 1458 680 1458 680 1484.5 708.5 c 128,-1,71
 1511 737 1511 737 1511 779 c 0,72,73
 1511 829 1511 829 1467.5 856.5 c 128,-1,74
 1424 884 1424 884 1347 884 c 0,75,76
 1267 884 1267 884 1205.5 852.5 c 128,-1,77
 1144 821 1144 821 1104.5 760.5 c 128,-1,78
 1065 700 1065 700 1050 611 c 0,79,80
 1045 578 1045 578 1039 542 c 128,-1,81
 1033 506 1033 506 1029 472.5 c 128,-1,82
 1025 439 1025 439 1025 417 c 0,83,84
 1025 305 1025 305 1078 252 c 128,-1,85
 1131 199 1131 199 1231 199 c 0,86,87
 1323 199 1323 199 1387.5 238 c 128,-1,88
 1452 277 1452 277 1478 339 c 1,89,-1
 1755 329 l 1,90,91
 1695 166 1695 166 1556.5 71 c 128,-1,92
 1418 -24 1418 -24 1214 -24 c 0,48,49
EndSplineSet
EndChar

StartChar: b
Encoding: 98 98 548
Width: 1258
GlyphClass: 2
Flags: W
AnchorPoint: "Anchor-1" 851 1294 basechar 0
AnchorPoint: "Anchor-0" 589 0 basechar 0
LayerCount: 2
Fore
SplineSet
657 -20 m 0,0,1
 572 -20 572 -20 512 6.5 c 128,-1,2
 452 33 452 33 414 79 c 128,-1,3
 376 125 376 125 358 180 c 1,4,-1
 349 180 l 1,5,-1
 319 0 l 1,6,-1
 26 0 l 1,7,-1
 273 1490 l 1,8,-1
 570 1490 l 1,9,-1
 477 924 l 1,10,-1
 483 924 l 1,11,12
 514 976 514 976 561 1016.5 c 128,-1,13
 608 1057 608 1057 670.5 1081 c 128,-1,14
 733 1105 733 1105 811 1105 c 0,15,16
 926 1105 926 1105 1012.5 1052.5 c 128,-1,17
 1099 1000 1099 1000 1148 901 c 128,-1,18
 1197 802 1197 802 1197 661 c 0,19,20
 1197 542 1197 542 1162.5 421 c 128,-1,21
 1128 300 1128 300 1060 200.5 c 128,-1,22
 992 101 992 101 891 40.5 c 128,-1,23
 790 -20 790 -20 657 -20 c 0,0,1
578 220 m 0,24,25
 657 220 657 220 717 260.5 c 128,-1,26
 777 301 777 301 817 366 c 128,-1,27
 857 431 857 431 876.5 506.5 c 128,-1,28
 896 582 896 582 896 653 c 0,29,30
 896 753 896 753 851 809.5 c 128,-1,31
 806 866 806 866 717 866 c 0,32,33
 639 866 639 866 578.5 828 c 128,-1,34
 518 790 518 790 476.5 727 c 128,-1,35
 435 664 435 664 413.5 588.5 c 128,-1,36
 392 513 392 513 392 440 c 0,37,38
 392 338 392 338 440.5 279 c 128,-1,39
 489 220 489 220 578 220 c 0,24,25
EndSplineSet
Substitution2: "'sups' Superscript in Latin lookup 39 subtable" b.sups
Substitution2: "'subs' Subscript in Latin lookup 38 subtable" b.subs
Substitution2: "'sinf' Scientific Inferiors in Latin lookup 18 subtable" b.subs
AlternateSubs2: "'aalt' Access All Alternates in Latin lookup 1 subtable" b.sups b.subs
EndChar

StartChar: uni0183
Encoding: 387 387 550
Width: 1258
GlyphClass: 2
Flags: W
AnchorPoint: "Anchor-1" 851 1294 basechar 0
AnchorPoint: "Anchor-0" 589 0 basechar 0
LayerCount: 2
Fore
SplineSet
386 1260 m 1,0,-1
 273 1490 l 1,1,-1
 1137 1490 l 1,2,-1
 1099 1260 l 1,3,-1
 386 1260 l 1,0,-1
657 -20 m 0,4,5
 572 -20 572 -20 512 6.5 c 128,-1,6
 452 33 452 33 414 79 c 128,-1,7
 376 125 376 125 358 180 c 1,8,-1
 349 180 l 1,9,-1
 319 0 l 1,10,-1
 26 0 l 1,11,-1
 273 1490 l 1,12,-1
 570 1490 l 1,13,-1
 477 924 l 1,14,-1
 483 924 l 1,15,16
 514 976 514 976 561 1016.5 c 128,-1,17
 608 1057 608 1057 670.5 1081 c 128,-1,18
 733 1105 733 1105 811 1105 c 0,19,20
 926 1105 926 1105 1012.5 1052.5 c 128,-1,21
 1099 1000 1099 1000 1148 901 c 128,-1,22
 1197 802 1197 802 1197 661 c 0,23,24
 1197 542 1197 542 1162.5 421 c 128,-1,25
 1128 300 1128 300 1060 200.5 c 128,-1,26
 992 101 992 101 891 40.5 c 128,-1,27
 790 -20 790 -20 657 -20 c 0,4,5
578 220 m 0,28,29
 657 220 657 220 717 260.5 c 128,-1,30
 777 301 777 301 817 366 c 128,-1,31
 857 431 857 431 876.5 506.5 c 128,-1,32
 896 582 896 582 896 653 c 0,33,34
 896 753 896 753 851 809.5 c 128,-1,35
 806 866 806 866 717 866 c 0,36,37
 639 866 639 866 578.5 828 c 128,-1,38
 518 790 518 790 476.5 727 c 128,-1,39
 435 664 435 664 413.5 588.5 c 128,-1,40
 392 513 392 513 392 440 c 0,41,42
 392 338 392 338 440.5 279 c 128,-1,43
 489 220 489 220 578 220 c 0,28,29
EndSplineSet
EndChar

StartChar: uni0253
Encoding: 595 595 551
Width: 1255
GlyphClass: 2
Flags: W
AnchorPoint: "Anchor-1" 596 1490 basechar 0
AnchorPoint: "Anchor-0" 547 0 basechar 0
LayerCount: 2
Fore
SplineSet
641 -20 m 0,0,1
 561 -20 561 -20 503 5.5 c 128,-1,2
 445 31 445 31 408 74 c 128,-1,3
 371 117 371 117 354 168 c 1,4,-1
 345 168 l 1,5,-1
 317 0 l 1,6,-1
 27 0 l 1,7,-1
 172 875 l 1,8,-1
 467 875 l 1,9,-1
 472 909 l 1,10,-1
 479 912 l 1,11,12
 514 960 514 960 562.5 1001.5 c 128,-1,13
 611 1043 611 1043 674.5 1067.5 c 128,-1,14
 738 1092 738 1092 818 1092 c 0,15,16
 949 1092 949 1092 1041.5 1026.5 c 128,-1,17
 1134 961 1134 961 1174 837 c 128,-1,18
 1214 713 1214 713 1185 539 c 0,19,20
 1158 367 1158 367 1079 241 c 128,-1,21
 1000 115 1000 115 887.5 47.5 c 128,-1,22
 775 -20 775 -20 641 -20 c 0,0,1
594 219 m 0,23,24
 669 219 669 219 729 258 c 128,-1,25
 789 297 789 297 829.5 369.5 c 128,-1,26
 870 442 870 442 885 540 c 0,27,28
 902 637 902 637 885.5 709 c 128,-1,29
 869 781 869 781 822.5 820 c 128,-1,30
 776 859 776 859 699 859 c 0,31,32
 623 859 623 859 561.5 820 c 128,-1,33
 500 781 500 781 458.5 709 c 128,-1,34
 417 637 417 637 400 540 c 0,35,36
 384 444 384 444 402.5 371 c 128,-1,37
 421 298 421 298 469.5 258.5 c 128,-1,38
 518 219 518 219 594 219 c 0,23,24
172 876 m 1,39,-1
 207 1087 l 1,40,-1
 223 1180 l 2,41,42
 249 1337 249 1337 352 1417 c 128,-1,43
 455 1497 455 1497 634 1497 c 0,44,45
 683 1497 683 1497 723 1495 c 128,-1,46
 763 1493 763 1493 792 1489 c 1,47,-1
 754 1262 l 1,48,49
 734 1263 734 1263 705.5 1264 c 128,-1,50
 677 1265 677 1265 650 1265 c 0,51,52
 589 1265 589 1265 558 1243.5 c 128,-1,53
 527 1222 527 1222 519 1174 c 2,54,-1
 505 1087 l 1,55,-1
 469 876 l 1,56,-1
 172 876 l 1,39,-1
EndSplineSet
EndChar

StartChar: thorn
Encoding: 254 254 555
Width: 1258
Flags: W
LayerCount: 2
Fore
SplineSet
639 -20 m 0,0,1
 559 -20 559 -20 502.5 5 c 128,-1,2
 446 30 446 30 411 73 c 128,-1,3
 376 116 376 116 359 169 c 1,4,-1
 352 169 l 1,5,-1
 255 -418 l 1,6,-1
 -43 -418 l 1,7,-1
 273 1490 l 1,8,-1
 571 1490 l 1,9,-1
 477 922 l 1,10,-1
 484 922 l 1,11,12
 518 972 518 972 567 1013.5 c 128,-1,13
 616 1055 616 1055 681 1080 c 128,-1,14
 746 1105 746 1105 827 1105 c 0,15,16
 957 1105 957 1105 1048.5 1038.5 c 128,-1,17
 1140 972 1140 972 1179 846.5 c 128,-1,18
 1218 721 1218 721 1188 544 c 0,19,20
 1160 368 1160 368 1080.5 241.5 c 128,-1,21
 1001 115 1001 115 887 47.5 c 128,-1,22
 773 -20 773 -20 639 -20 c 0,0,1
595 220 m 0,23,24
 669 220 669 220 729 260 c 128,-1,25
 789 300 789 300 829.5 372.5 c 128,-1,26
 870 445 870 445 886 545 c 0,27,28
 902 642 902 642 886 714.5 c 128,-1,29
 870 787 870 787 823.5 826.5 c 128,-1,30
 777 866 777 866 702 866 c 0,31,32
 626 866 626 866 565 826.5 c 128,-1,33
 504 787 504 787 462.5 715 c 128,-1,34
 421 643 421 643 403 545 c 0,35,36
 388 447 388 447 405.5 374 c 128,-1,37
 423 301 423 301 471 260.5 c 128,-1,38
 519 220 519 220 595 220 c 0,23,24
EndSplineSet
EndChar

StartChar: c
Encoding: 99 99 556
Width: 1171
GlyphClass: 2
Flags: W
AnchorPoint: "Anchor-3" 518 0 basechar 0
AnchorPoint: "Anchor-1" 697 1087 basechar 0
AnchorPoint: "Anchor-0" 519 0 basechar 0
LayerCount: 2
Fore
SplineSet
531 -23 m 0,0,1
 385 -23 385 -23 280.5 34.5 c 128,-1,2
 176 92 176 92 119 195.5 c 128,-1,3
 62 299 62 299 62 438 c 0,4,5
 62 566 62 566 103.5 686 c 128,-1,6
 145 806 145 806 225.5 901 c 128,-1,7
 306 996 306 996 421.5 1051 c 128,-1,8
 537 1106 537 1106 685 1106 c 0,9,10
 787 1106 787 1106 870 1078 c 128,-1,11
 953 1050 953 1050 1013 998 c 128,-1,12
 1073 946 1073 946 1104 873 c 128,-1,13
 1135 800 1135 800 1132 710 c 1,14,-1
 846 687 l 1,15,16
 846 727 846 727 836.5 760.5 c 128,-1,17
 827 794 827 794 807.5 818.5 c 128,-1,18
 788 843 788 843 757 856.5 c 128,-1,19
 726 870 726 870 682 870 c 0,20,21
 602 870 602 870 541.5 830 c 128,-1,22
 481 790 481 790 440.5 724.5 c 128,-1,23
 400 659 400 659 380 582.5 c 128,-1,24
 360 506 360 506 360 431 c 0,25,26
 360 365 360 365 380 316 c 128,-1,27
 400 267 400 267 440 241 c 128,-1,28
 480 215 480 215 541 215 c 0,29,30
 587 215 587 215 627 228.5 c 128,-1,31
 667 242 667 242 701 267.5 c 128,-1,32
 735 293 735 293 760.5 328 c 128,-1,33
 786 363 786 363 800 404 c 1,34,-1
 1079 376 l 1,35,36
 1053 286 1053 286 1002.5 212.5 c 128,-1,37
 952 139 952 139 880.5 87 c 128,-1,38
 809 35 809 35 721 6 c 128,-1,39
 633 -23 633 -23 531 -23 c 0,0,1
EndSplineSet
Substitution2: "'sups' Superscript in Latin lookup 39 subtable" c.sups
Substitution2: "'subs' Subscript in Latin lookup 38 subtable" c.subs
Substitution2: "'sinf' Scientific Inferiors in Latin lookup 18 subtable" c.subs
AlternateSubs2: "'aalt' Access All Alternates in Latin lookup 1 subtable" c.sups c.subs
EndChar

StartChar: uni023C
Encoding: 572 572 557
Width: 1171
GlyphClass: 2
Flags: W
AnchorPoint: "Anchor-3" 518 0 basechar 0
AnchorPoint: "Anchor-1" 697 1087 basechar 0
AnchorPoint: "Anchor-0" 519 0 basechar 0
LayerCount: 2
Fore
SplineSet
54 -418 m 1,0,-1
 994 1490 l 1,1,-1
 1150 1490 l 1,2,-1
 209 -418 l 1,3,-1
 54 -418 l 1,0,-1
531 -23 m 0,4,5
 385 -23 385 -23 280.5 34.5 c 128,-1,6
 176 92 176 92 119 195.5 c 128,-1,7
 62 299 62 299 62 438 c 0,8,9
 62 566 62 566 103.5 686 c 128,-1,10
 145 806 145 806 225.5 901 c 128,-1,11
 306 996 306 996 421.5 1051 c 128,-1,12
 537 1106 537 1106 685 1106 c 0,13,14
 787 1106 787 1106 870 1078 c 128,-1,15
 953 1050 953 1050 1013 998 c 128,-1,16
 1073 946 1073 946 1104 873 c 128,-1,17
 1135 800 1135 800 1132 710 c 1,18,-1
 846 687 l 1,19,20
 846 727 846 727 836.5 760.5 c 128,-1,21
 827 794 827 794 807.5 818.5 c 128,-1,22
 788 843 788 843 757 856.5 c 128,-1,23
 726 870 726 870 682 870 c 0,24,25
 602 870 602 870 541.5 830 c 128,-1,26
 481 790 481 790 440.5 724.5 c 128,-1,27
 400 659 400 659 380 582.5 c 128,-1,28
 360 506 360 506 360 431 c 0,29,30
 360 365 360 365 380 316 c 128,-1,31
 400 267 400 267 440 241 c 128,-1,32
 480 215 480 215 541 215 c 0,33,34
 587 215 587 215 627 228.5 c 128,-1,35
 667 242 667 242 701 267.5 c 128,-1,36
 735 293 735 293 760.5 328 c 128,-1,37
 786 363 786 363 800 404 c 1,38,-1
 1079 376 l 1,39,40
 1053 286 1053 286 1002.5 212.5 c 128,-1,41
 952 139 952 139 880.5 87 c 128,-1,42
 809 35 809 35 721 6 c 128,-1,43
 633 -23 633 -23 531 -23 c 0,4,5
EndSplineSet
Ligature2: "'ccmp' Glyph Composition/Decomposition in Latin lookup 6 subtable" c uni0338
EndChar

StartChar: uni0188
Encoding: 392 392 558
Width: 1171
GlyphClass: 2
Flags: W
AnchorPoint: "Anchor-3" 518 0 basechar 0
AnchorPoint: "Anchor-1" 697 1087 basechar 0
AnchorPoint: "Anchor-0" 519 0 basechar 0
LayerCount: 2
Fore
SplineSet
883 704 m 1,0,-1
 895 965 l 2,1,2
 900 1129 900 1129 986.5 1208 c 128,-1,3
 1073 1287 1073 1287 1252 1287 c 0,4,5
 1295 1287 1295 1287 1330.5 1285 c 128,-1,6
 1366 1283 1366 1283 1391 1282 c 1,7,-1
 1351 1051 l 1,8,9
 1332 1052 1332 1052 1303 1054 c 128,-1,10
 1274 1056 1274 1056 1249 1056 c 0,11,12
 1195 1056 1195 1056 1170 1032 c 128,-1,13
 1145 1008 1145 1008 1144 956 c 2,14,-1
 1132 710 l 1,15,-1
 883 704 l 1,0,-1
531 -23 m 0,16,17
 385 -23 385 -23 280.5 34.5 c 128,-1,18
 176 92 176 92 119 195.5 c 128,-1,19
 62 299 62 299 62 438 c 0,20,21
 62 566 62 566 103.5 686 c 128,-1,22
 145 806 145 806 225.5 901 c 128,-1,23
 306 996 306 996 421.5 1051 c 128,-1,24
 537 1106 537 1106 685 1106 c 0,25,26
 787 1106 787 1106 870 1078 c 128,-1,27
 953 1050 953 1050 1013 998 c 128,-1,28
 1073 946 1073 946 1104 873 c 128,-1,29
 1135 800 1135 800 1132 710 c 1,30,-1
 846 687 l 1,31,32
 846 727 846 727 836.5 760.5 c 128,-1,33
 827 794 827 794 807.5 818.5 c 128,-1,34
 788 843 788 843 757 856.5 c 128,-1,35
 726 870 726 870 682 870 c 0,36,37
 602 870 602 870 541.5 830 c 128,-1,38
 481 790 481 790 440.5 724.5 c 128,-1,39
 400 659 400 659 380 582.5 c 128,-1,40
 360 506 360 506 360 431 c 0,41,42
 360 365 360 365 380 316 c 128,-1,43
 400 267 400 267 440 241 c 128,-1,44
 480 215 480 215 541 215 c 0,45,46
 587 215 587 215 627 228.5 c 128,-1,47
 667 242 667 242 701 267.5 c 128,-1,48
 735 293 735 293 760.5 328 c 128,-1,49
 786 363 786 363 800 404 c 1,50,-1
 1079 376 l 1,51,52
 1053 286 1053 286 1002.5 212.5 c 128,-1,53
 952 139 952 139 880.5 87 c 128,-1,54
 809 35 809 35 721 6 c 128,-1,55
 633 -23 633 -23 531 -23 c 0,16,17
EndSplineSet
EndChar

StartChar: d
Encoding: 100 100 567
Width: 1257
GlyphClass: 2
Flags: W
AnchorPoint: "Anchor-1" 631 1294 basechar 0
AnchorPoint: "Anchor-0" 530 0 basechar 0
LayerCount: 2
Fore
SplineSet
449 -20 m 0,0,1
 272 -20 272 -20 166 96.5 c 128,-1,2
 60 213 60 213 60 419 c 0,3,4
 60 546 60 546 96.5 668 c 128,-1,5
 133 790 133 790 203 889 c 128,-1,6
 273 988 273 988 373 1046.5 c 128,-1,7
 473 1105 473 1105 600 1105 c 0,8,9
 687 1105 687 1105 746.5 1078 c 128,-1,10
 806 1051 806 1051 843 1006.5 c 128,-1,11
 880 962 880 962 899 910 c 1,12,-1
 905 910 l 1,13,-1
 1000 1490 l 1,14,-1
 1298 1490 l 1,15,-1
 1051 0 l 1,16,-1
 759 0 l 1,17,-1
 787 167 l 1,18,-1
 778 167 l 1,19,20
 745 110 745 110 697 68.5 c 128,-1,21
 649 27 649 27 587 3.5 c 128,-1,22
 525 -20 525 -20 449 -20 c 0,0,1
541 220 m 0,23,24
 618 220 618 220 678.5 258.5 c 128,-1,25
 739 297 739 297 780.5 360.5 c 128,-1,26
 822 424 822 424 844 499 c 128,-1,27
 866 574 866 574 866 649 c 0,28,29
 866 750 866 750 817.5 808 c 128,-1,30
 769 866 769 866 680 866 c 0,31,32
 602 866 602 866 542.5 827 c 128,-1,33
 483 788 483 788 442.5 724.5 c 128,-1,34
 402 661 402 661 381.5 585 c 128,-1,35
 361 509 361 509 361 434 c 0,36,37
 361 333 361 333 407 276.5 c 128,-1,38
 453 220 453 220 541 220 c 0,23,24
EndSplineSet
Substitution2: "'sups' Superscript in Latin lookup 39 subtable" d.sups
Substitution2: "'subs' Subscript in Latin lookup 38 subtable" d.subs
Substitution2: "'sinf' Scientific Inferiors in Latin lookup 18 subtable" d.subs
AlternateSubs2: "'aalt' Access All Alternates in Latin lookup 1 subtable" d.sups d.subs
EndChar

StartChar: drthook
Encoding: 598 598 569
Width: 1257
GlyphClass: 2
Flags: W
AnchorPoint: "Anchor-1" 631 1294 basechar 0
AnchorPoint: "Anchor-0" 530 0 basechar 0
LayerCount: 2
Fore
SplineSet
1039 -426 m 0,0,1
 861 -426 861 -426 787.5 -346 c 128,-1,2
 714 -266 714 -266 740 -108 c 2,3,-1
 790 198 l 1,4,-1
 1084 198 l 1,5,-1
 1034 -102 l 2,6,7
 1026 -151 1026 -151 1049 -172.5 c 128,-1,8
 1072 -194 1072 -194 1131 -194 c 0,9,10
 1158 -194 1158 -194 1187 -193 c 128,-1,11
 1216 -192 1216 -192 1236 -191 c 1,12,-1
 1199 -417 l 1,13,14
 1169 -422 1169 -422 1128.5 -424 c 128,-1,15
 1088 -426 1088 -426 1039 -426 c 0,0,1
449 -20 m 0,16,17
 272 -20 272 -20 166 96.5 c 128,-1,18
 60 213 60 213 60 419 c 0,19,20
 60 546 60 546 96.5 668 c 128,-1,21
 133 790 133 790 203 889 c 128,-1,22
 273 988 273 988 373 1046.5 c 128,-1,23
 473 1105 473 1105 600 1105 c 0,24,25
 687 1105 687 1105 746.5 1078 c 128,-1,26
 806 1051 806 1051 843 1006.5 c 128,-1,27
 880 962 880 962 899 910 c 1,28,-1
 905 910 l 1,29,-1
 1000 1490 l 1,30,-1
 1298 1490 l 1,31,-1
 1051 0 l 1,32,-1
 759 0 l 1,33,-1
 787 167 l 1,34,-1
 778 167 l 1,35,36
 745 110 745 110 697 68.5 c 128,-1,37
 649 27 649 27 587 3.5 c 128,-1,38
 525 -20 525 -20 449 -20 c 0,16,17
541 220 m 0,39,40
 618 220 618 220 678.5 258.5 c 128,-1,41
 739 297 739 297 780.5 360.5 c 128,-1,42
 822 424 822 424 844 499 c 128,-1,43
 866 574 866 574 866 649 c 0,44,45
 866 750 866 750 817.5 808 c 128,-1,46
 769 866 769 866 680 866 c 0,47,48
 602 866 602 866 542.5 827 c 128,-1,49
 483 788 483 788 442.5 724.5 c 128,-1,50
 402 661 402 661 381.5 585 c 128,-1,51
 361 509 361 509 361 434 c 0,52,53
 361 333 361 333 407 276.5 c 128,-1,54
 453 220 453 220 541 220 c 0,39,40
EndSplineSet
EndChar

StartChar: uni0257
Encoding: 599 599 570
Width: 1257
GlyphClass: 2
Flags: W
AnchorPoint: "Anchor-4" 1050 0 basechar 0
AnchorPoint: "Anchor-1" 721 1087 basechar 0
AnchorPoint: "Anchor-0" 537 0 basechar 0
LayerCount: 2
Fore
SplineSet
898 876 m 1,0,-1
 933 1087 l 1,1,-1
 948 1180 l 2,2,3
 974 1337 974 1337 1077.5 1417 c 128,-1,4
 1181 1497 1181 1497 1360 1497 c 0,5,6
 1409 1497 1409 1497 1449 1495 c 128,-1,7
 1489 1493 1489 1493 1518 1489 c 1,8,-1
 1480 1262 l 1,9,10
 1460 1263 1460 1263 1431 1264 c 128,-1,11
 1402 1265 1402 1265 1375 1265 c 0,12,13
 1315 1265 1315 1265 1283.5 1243.5 c 128,-1,14
 1252 1222 1252 1222 1245 1174 c 2,15,-1
 1230 1087 l 1,16,-1
 1195 876 l 1,17,-1
 898 876 l 1,0,-1
432 -20 m 0,18,19
 299 -20 299 -20 207 47.5 c 128,-1,20
 115 115 115 115 77.5 241.5 c 128,-1,21
 40 368 40 368 70 544 c 0,22,23
 99 721 99 721 179.5 846 c 128,-1,24
 260 971 260 971 374 1038 c 128,-1,25
 488 1105 488 1105 618 1105 c 0,26,27
 699 1105 699 1105 756 1080 c 128,-1,28
 813 1055 813 1055 849 1013.5 c 128,-1,29
 885 972 885 972 903 922 c 1,30,-1
 909 922 l 1,31,-1
 937 1087 l 1,32,-1
 1230 1087 l 1,33,-1
 1050 0 l 1,34,-1
 759 0 l 1,35,-1
 787 169 l 1,36,-1
 777 169 l 1,37,38
 744 116 744 116 693.5 73 c 128,-1,39
 643 30 643 30 578 5 c 128,-1,40
 513 -20 513 -20 432 -20 c 0,18,19
557 220 m 0,41,42
 633 220 633 220 694 260.5 c 128,-1,43
 755 301 755 301 797 373.5 c 128,-1,44
 839 446 839 446 855 545 c 0,45,46
 870 643 870 643 852.5 715 c 128,-1,47
 835 787 835 787 787 826.5 c 128,-1,48
 739 866 739 866 663 866 c 0,49,50
 588 866 588 866 528.5 826.5 c 128,-1,51
 469 787 469 787 429 714.5 c 128,-1,52
 389 642 389 642 371 545 c 0,53,54
 356 446 356 446 372.5 373 c 128,-1,55
 389 300 389 300 435.5 260 c 128,-1,56
 482 220 482 220 557 220 c 0,41,42
EndSplineSet
EndChar

StartChar: uni018C
Encoding: 396 396 571
Width: 1257
GlyphClass: 2
Flags: W
AnchorPoint: "Anchor-1" 631 1294 basechar 0
AnchorPoint: "Anchor-0" 530 0 basechar 0
LayerCount: 2
Fore
SplineSet
1109 1260 m 1,0,-1
 395 1260 l 1,1,-1
 433 1490 l 1,2,-1
 1298 1490 l 1,3,-1
 1109 1260 l 1,0,-1
449 -20 m 0,4,5
 272 -20 272 -20 166 96.5 c 128,-1,6
 60 213 60 213 60 419 c 0,7,8
 60 546 60 546 96.5 668 c 128,-1,9
 133 790 133 790 203 889 c 128,-1,10
 273 988 273 988 373 1046.5 c 128,-1,11
 473 1105 473 1105 600 1105 c 0,12,13
 687 1105 687 1105 746.5 1078 c 128,-1,14
 806 1051 806 1051 843 1006.5 c 128,-1,15
 880 962 880 962 899 910 c 1,16,-1
 905 910 l 1,17,-1
 1000 1490 l 1,18,-1
 1298 1490 l 1,19,-1
 1051 0 l 1,20,-1
 759 0 l 1,21,-1
 787 167 l 1,22,-1
 778 167 l 1,23,24
 745 110 745 110 697 68.5 c 128,-1,25
 649 27 649 27 587 3.5 c 128,-1,26
 525 -20 525 -20 449 -20 c 0,4,5
541 220 m 0,27,28
 618 220 618 220 678.5 258.5 c 128,-1,29
 739 297 739 297 780.5 360.5 c 128,-1,30
 822 424 822 424 844 499 c 128,-1,31
 866 574 866 574 866 649 c 0,32,33
 866 750 866 750 817.5 808 c 128,-1,34
 769 866 769 866 680 866 c 0,35,36
 602 866 602 866 542.5 827 c 128,-1,37
 483 788 483 788 442.5 724.5 c 128,-1,38
 402 661 402 661 381.5 585 c 128,-1,39
 361 509 361 509 361 434 c 0,40,41
 361 333 361 333 407 276.5 c 128,-1,42
 453 220 453 220 541 220 c 0,27,28
EndSplineSet
EndChar

StartChar: uni0221
Encoding: 545 545 572
Width: 1577
GlyphClass: 2
Flags: W
AnchorPoint: "Anchor-1" 631 1294 basechar 0
AnchorPoint: "Anchor-0" 530 0 basechar 0
LayerCount: 2
Fore
SplineSet
1085 -418 m 0,0,1
 944 -418 944 -418 863.5 -372.5 c 128,-1,2
 783 -327 783 -327 755 -245 c 128,-1,3
 727 -163 727 -163 745 -53 c 2,4,-1
 790 215 l 1,5,-1
 1087 215 l 1,6,-1
 1031 -121 l 2,7,8
 1022 -176 1022 -176 1049.5 -204 c 128,-1,9
 1077 -232 1077 -232 1122 -232 c 0,10,11
 1163 -232 1163 -232 1194 -209 c 128,-1,12
 1225 -186 1225 -186 1231 -149 c 256,13,14
 1237 -112 1237 -112 1216.5 -88 c 128,-1,15
 1196 -64 1196 -64 1148 -61 c 0,16,17
 1117 -58 1117 -58 1083.5 -66.5 c 128,-1,18
 1050 -75 1050 -75 1006 -98 c 128,-1,19
 962 -121 962 -121 900 -163 c 2,20,-1
 562 -408 l 1,21,-1
 449 -234 l 1,22,-1
 775 -2 l 2,23,24
 859 59 859 59 962 99 c 128,-1,25
 1065 139 1065 139 1169 139 c 0,26,27
 1339 139 1339 139 1424.5 55 c 128,-1,28
 1510 -29 1510 -29 1489 -157 c 0,29,30
 1469 -280 1469 -280 1364 -349 c 128,-1,31
 1259 -418 1259 -418 1085 -418 c 0,0,1
449 -20 m 0,32,33
 272 -20 272 -20 166 96.5 c 128,-1,34
 60 213 60 213 60 419 c 0,35,36
 60 546 60 546 96.5 668 c 128,-1,37
 133 790 133 790 203 889 c 128,-1,38
 273 988 273 988 373 1046.5 c 128,-1,39
 473 1105 473 1105 600 1105 c 0,40,41
 687 1105 687 1105 746.5 1078 c 128,-1,42
 806 1051 806 1051 843 1006.5 c 128,-1,43
 880 962 880 962 899 910 c 1,44,-1
 905 910 l 1,45,-1
 1000 1490 l 1,46,-1
 1298 1490 l 1,47,-1
 1051 0 l 1,48,-1
 759 0 l 1,49,-1
 787 167 l 1,50,-1
 778 167 l 1,51,52
 745 110 745 110 697 68.5 c 128,-1,53
 649 27 649 27 587 3.5 c 128,-1,54
 525 -20 525 -20 449 -20 c 0,32,33
541 220 m 0,55,56
 618 220 618 220 678.5 258.5 c 128,-1,57
 739 297 739 297 780.5 360.5 c 128,-1,58
 822 424 822 424 844 499 c 128,-1,59
 866 574 866 574 866 649 c 0,60,61
 866 750 866 750 817.5 808 c 128,-1,62
 769 866 769 866 680 866 c 0,63,64
 602 866 602 866 542.5 827 c 128,-1,65
 483 788 483 788 442.5 724.5 c 128,-1,66
 402 661 402 661 381.5 585 c 128,-1,67
 361 509 361 509 361 434 c 0,68,69
 361 333 361 333 407 276.5 c 128,-1,70
 453 220 453 220 541 220 c 0,55,56
EndSplineSet
EndChar

StartChar: uni02A3
Encoding: 675 675 580
Width: 2260
GlyphClass: 2
Flags: W
AnchorPoint: "Anchor-1" 631 1294 basechar 0
AnchorPoint: "Anchor-0" 530 0 basechar 0
LayerCount: 2
Fore
SplineSet
1129 0 m 1,0,-1
 1158 180 l 1,1,-1
 1829 870 l 1,2,-1
 1830 879 l 1,3,-1
 1080 879 l 1,4,-1
 1120 1118 l 1,5,-1
 2228 1118 l 1,6,-1
 2197 922 l 1,7,-1
 1560 248 l 1,8,-1
 1558 239 l 1,9,-1
 2100 239 l 1,10,-1
 2062 0 l 1,11,-1
 1129 0 l 1,0,-1
449 -20 m 0,12,13
 272 -20 272 -20 166 96.5 c 128,-1,14
 60 213 60 213 60 419 c 0,15,16
 60 546 60 546 96.5 668 c 128,-1,17
 133 790 133 790 203 889 c 128,-1,18
 273 988 273 988 373 1046.5 c 128,-1,19
 473 1105 473 1105 600 1105 c 0,20,21
 687 1105 687 1105 746.5 1078 c 128,-1,22
 806 1051 806 1051 843 1006.5 c 128,-1,23
 880 962 880 962 899 910 c 1,24,-1
 905 910 l 1,25,-1
 1000 1490 l 1,26,-1
 1298 1490 l 1,27,-1
 1051 0 l 1,28,-1
 759 0 l 1,29,-1
 787 167 l 1,30,-1
 778 167 l 1,31,32
 745 110 745 110 697 68.5 c 128,-1,33
 649 27 649 27 587 3.5 c 128,-1,34
 525 -20 525 -20 449 -20 c 0,12,13
541 220 m 0,35,36
 618 220 618 220 678.5 258.5 c 128,-1,37
 739 297 739 297 780.5 360.5 c 128,-1,38
 822 424 822 424 844 499 c 128,-1,39
 866 574 866 574 866 649 c 0,40,41
 866 750 866 750 817.5 808 c 128,-1,42
 769 866 769 866 680 866 c 0,43,44
 602 866 602 866 542.5 827 c 128,-1,45
 483 788 483 788 442.5 724.5 c 128,-1,46
 402 661 402 661 381.5 585 c 128,-1,47
 361 509 361 509 361 434 c 0,48,49
 361 333 361 333 407 276.5 c 128,-1,50
 453 220 453 220 541 220 c 0,35,36
EndSplineSet
EndChar

StartChar: dyogh
Encoding: 676 676 582
Width: 2052
GlyphClass: 2
Flags: W
AnchorPoint: "Anchor-1" 631 1294 basechar 0
AnchorPoint: "Anchor-0" 530 0 basechar 0
LayerCount: 2
Fore
SplineSet
1049 -75 m 1,0,1
 1054 -113 1054 -113 1084 -140.5 c 128,-1,2
 1114 -168 1114 -168 1164 -183 c 128,-1,3
 1214 -198 1214 -198 1275 -198 c 0,4,5
 1355 -198 1355 -198 1419.5 -170.5 c 128,-1,6
 1484 -143 1484 -143 1527 -92 c 128,-1,7
 1570 -41 1570 -41 1581 29 c 0,8,9
 1592 96 1592 96 1567 146.5 c 128,-1,10
 1542 197 1542 197 1481.5 225.5 c 128,-1,11
 1421 254 1421 254 1325 254 c 2,12,-1
 1208 254 l 1,13,-1
 1247 486 l 1,14,-1
 1618 830 l 1,15,-1
 1620 836 l 1,16,-1
 1097 836 l 1,17,-1
 1138 1088 l 1,18,-1
 2014 1088 l 1,19,-1
 1978 870 l 1,20,-1
 1499 443 l 1,21,-1
 1498 437 l 1,22,23
 1613 426 1613 426 1693.5 387.5 c 128,-1,24
 1774 349 1774 349 1820.5 290 c 128,-1,25
 1867 231 1867 231 1883 160 c 128,-1,26
 1899 89 1899 89 1886 12 c 0,27,28
 1865 -122 1865 -122 1772 -222.5 c 128,-1,29
 1679 -323 1679 -323 1539.5 -378.5 c 128,-1,30
 1400 -434 1400 -434 1234 -434 c 0,31,32
 1084 -434 1084 -434 975 -389 c 128,-1,33
 866 -344 866 -344 807.5 -263 c 128,-1,34
 749 -182 749 -182 749 -75 c 1,35,-1
 1049 -75 l 1,0,1
449 -20 m 0,36,37
 272 -20 272 -20 166 96.5 c 128,-1,38
 60 213 60 213 60 419 c 0,39,40
 60 546 60 546 96.5 668 c 128,-1,41
 133 790 133 790 203 889 c 128,-1,42
 273 988 273 988 373 1046.5 c 128,-1,43
 473 1105 473 1105 600 1105 c 0,44,45
 687 1105 687 1105 746.5 1078 c 128,-1,46
 806 1051 806 1051 843 1006.5 c 128,-1,47
 880 962 880 962 899 910 c 1,48,-1
 905 910 l 1,49,-1
 1000 1490 l 1,50,-1
 1298 1490 l 1,51,-1
 1051 0 l 1,52,-1
 759 0 l 1,53,-1
 787 167 l 1,54,-1
 778 167 l 1,55,56
 745 110 745 110 697 68.5 c 128,-1,57
 649 27 649 27 587 3.5 c 128,-1,58
 525 -20 525 -20 449 -20 c 0,36,37
541 220 m 0,59,60
 618 220 618 220 678.5 258.5 c 128,-1,61
 739 297 739 297 780.5 360.5 c 128,-1,62
 822 424 822 424 844 499 c 128,-1,63
 866 574 866 574 866 649 c 0,64,65
 866 750 866 750 817.5 808 c 128,-1,66
 769 866 769 866 680 866 c 0,67,68
 602 866 602 866 542.5 827 c 128,-1,69
 483 788 483 788 442.5 724.5 c 128,-1,70
 402 661 402 661 381.5 585 c 128,-1,71
 361 509 361 509 361 434 c 0,72,73
 361 333 361 333 407 276.5 c 128,-1,74
 453 220 453 220 541 220 c 0,59,60
EndSplineSet
EndChar

StartChar: e
Encoding: 101 101 584
Width: 1177
GlyphClass: 2
Flags: W
AnchorPoint: "Anchor-4" 1075 320 basechar 0
AnchorPoint: "Anchor-3" 527 0 basechar 0
AnchorPoint: "Anchor-1" 704 1087 basechar 0
AnchorPoint: "Anchor-0" 528 0 basechar 0
LayerCount: 2
Fore
SplineSet
536 -24 m 0,0,1
 384 -24 384 -24 275.5 31 c 128,-1,2
 167 86 167 86 111 193.5 c 128,-1,3
 55 301 55 301 63 457 c 0,4,5
 69 597 69 597 117.5 715.5 c 128,-1,6
 166 834 166 834 251 922.5 c 128,-1,7
 336 1011 336 1011 449.5 1059.5 c 128,-1,8
 563 1108 563 1108 697 1108 c 0,9,10
 816 1108 816 1108 910 1070.5 c 128,-1,11
 1004 1033 1004 1033 1058 961 c 128,-1,12
 1112 889 1112 889 1112 783 c 0,13,14
 1112 675 1112 675 1050.5 607.5 c 128,-1,15
 989 540 989 540 870 504.5 c 128,-1,16
 751 469 751 469 578.5 456 c 128,-1,17
 406 443 406 443 182 443 c 1,18,-1
 213 629 l 1,19,20
 404 629 404 629 526 637 c 128,-1,21
 648 645 648 645 715 661.5 c 128,-1,22
 782 678 782 678 808.5 706 c 128,-1,23
 835 734 835 734 835 774 c 0,24,25
 835 826 835 826 791 855 c 128,-1,26
 747 884 747 884 667 884 c 0,27,28
 573 884 573 884 512.5 842 c 128,-1,29
 452 800 452 800 417 734 c 128,-1,30
 382 668 382 668 368 592.5 c 128,-1,31
 354 517 354 517 351 449 c 0,32,33
 348 379 348 379 363.5 322 c 128,-1,34
 379 265 379 265 425.5 232 c 128,-1,35
 472 199 472 199 557 199 c 0,36,37
 649 199 649 199 712.5 237 c 128,-1,38
 776 275 776 275 803 338 c 1,39,-1
 1075 320 l 1,40,41
 1019 165 1019 165 879 70.5 c 128,-1,42
 739 -24 739 -24 536 -24 c 0,0,1
EndSplineSet
Substitution2: "'sups' Superscript in Latin lookup 39 subtable" e.sups
Substitution2: "'subs' Subscript in Latin lookup 38 subtable" e.subs
Substitution2: "'sinf' Scientific Inferiors in Latin lookup 18 subtable" e.subs
AlternateSubs2: "'aalt' Access All Alternates in Latin lookup 1 subtable" e.sups e.subs
EndChar

StartChar: uni0247
Encoding: 583 583 586
Width: 1177
GlyphClass: 2
Flags: W
AnchorPoint: "Anchor-4" 1075 320 basechar 0
AnchorPoint: "Anchor-3" 527 0 basechar 0
AnchorPoint: "Anchor-1" 704 1087 basechar 0
AnchorPoint: "Anchor-0" 528 0 basechar 0
LayerCount: 2
Fore
SplineSet
29 -418 m 1,0,-1
 1012 1490 l 1,1,-1
 1162 1490 l 1,2,-1
 180 -418 l 1,3,-1
 29 -418 l 1,0,-1
536 -24 m 0,4,5
 384 -24 384 -24 275.5 31 c 128,-1,6
 167 86 167 86 111 193.5 c 128,-1,7
 55 301 55 301 63 457 c 0,8,9
 69 597 69 597 117.5 715.5 c 128,-1,10
 166 834 166 834 251 922.5 c 128,-1,11
 336 1011 336 1011 449.5 1059.5 c 128,-1,12
 563 1108 563 1108 697 1108 c 0,13,14
 816 1108 816 1108 910 1070.5 c 128,-1,15
 1004 1033 1004 1033 1058 961 c 128,-1,16
 1112 889 1112 889 1112 783 c 0,17,18
 1112 675 1112 675 1050.5 607.5 c 128,-1,19
 989 540 989 540 870 504.5 c 128,-1,20
 751 469 751 469 578.5 456 c 128,-1,21
 406 443 406 443 182 443 c 1,22,-1
 213 629 l 1,23,24
 404 629 404 629 526 637 c 128,-1,25
 648 645 648 645 715 661.5 c 128,-1,26
 782 678 782 678 808.5 706 c 128,-1,27
 835 734 835 734 835 774 c 0,28,29
 835 826 835 826 791 855 c 128,-1,30
 747 884 747 884 667 884 c 0,31,32
 573 884 573 884 512.5 842 c 128,-1,33
 452 800 452 800 417 734 c 128,-1,34
 382 668 382 668 368 592.5 c 128,-1,35
 354 517 354 517 351 449 c 0,36,37
 348 379 348 379 363.5 322 c 128,-1,38
 379 265 379 265 425.5 232 c 128,-1,39
 472 199 472 199 557 199 c 0,40,41
 649 199 649 199 712.5 237 c 128,-1,42
 776 275 776 275 803 338 c 1,43,-1
 1075 320 l 1,44,45
 1019 165 1019 165 879 70.5 c 128,-1,46
 739 -24 739 -24 536 -24 c 0,4,5
EndSplineSet
EndChar

StartChar: eturn
Encoding: 477 477 615
Width: 1177
GlyphClass: 2
Flags: W
AnchorPoint: "Anchor-4" 102 767 basechar 0
AnchorPoint: "Anchor-3" 650 1087 basechar 0
AnchorPoint: "Anchor-1" 664 1087 basechar 0
AnchorPoint: "Anchor-0" 487 4 basechar 0
LayerCount: 2
Fore
SplineSet
641 1111 m 0,0,1
 793 1111 793 1111 902 1056 c 128,-1,2
 1011 1001 1011 1001 1066.5 894 c 128,-1,3
 1122 787 1122 787 1114 630 c 0,4,5
 1108 491 1108 491 1059.5 372 c 128,-1,6
 1011 253 1011 253 926 165 c 128,-1,7
 841 77 841 77 727.5 28 c 128,-1,8
 614 -21 614 -21 480 -21 c 0,9,10
 361 -21 361 -21 267 16.5 c 128,-1,11
 173 54 173 54 119 127 c 128,-1,12
 65 200 65 200 65 304 c 0,13,14
 65 412 65 412 126.5 479.5 c 128,-1,15
 188 547 188 547 307 582.5 c 128,-1,16
 426 618 426 618 598.5 631.5 c 128,-1,17
 771 645 771 645 995 645 c 1,18,-1
 964 458 l 1,19,20
 773 458 773 458 651 450.5 c 128,-1,21
 529 443 529 443 462 426 c 128,-1,22
 395 409 395 409 368.5 381.5 c 128,-1,23
 342 354 342 354 342 313 c 0,24,25
 342 263 342 263 386 233 c 128,-1,26
 430 203 430 203 509 203 c 0,27,28
 604 203 604 203 664.5 245 c 128,-1,29
 725 287 725 287 760 353.5 c 128,-1,30
 795 420 795 420 809.5 495.5 c 128,-1,31
 824 571 824 571 826 639 c 0,32,33
 829 710 829 710 813.5 766 c 128,-1,34
 798 822 798 822 752 855 c 128,-1,35
 706 888 706 888 620 888 c 0,36,37
 528 888 528 888 465 850.5 c 128,-1,38
 402 813 402 813 374 750 c 1,39,-1
 102 767 l 1,40,41
 158 923 158 923 298 1017 c 128,-1,42
 438 1111 438 1111 641 1111 c 0,0,1
EndSplineSet
EndChar

StartChar: _part.f_base
Encoding: 1114123 -1 616
Width: 779
GlyphClass: 2
Flags: W
AnchorPoint: "Anchor-1" 624 1517 basechar 0
LayerCount: 2
Fore
SplineSet
-34 -435 m 0,0,1
 -64 -435 -64 -435 -91.5 -434.5 c 128,-1,2
 -119 -434 -119 -434 -144 -432 c 128,-1,3
 -169 -430 -169 -430 -192 -427 c 1,4,-1
 -141 -192 l 1,5,6
 -122 -193 -122 -193 -99 -195 c 128,-1,7
 -76 -197 -76 -197 -54 -197 c 0,8,9
 14 -197 14 -197 48 -165.5 c 128,-1,10
 82 -134 82 -134 94 -61 c 2,11,-1
 298 1167 l 2,12,13
 317 1284 317 1284 372.5 1363.5 c 128,-1,14
 428 1443 428 1443 518 1483.5 c 128,-1,15
 608 1524 608 1524 730 1524 c 0,16,17
 779 1524 779 1524 822 1522 c 128,-1,18
 865 1520 865 1520 901 1514 c 1,19,-1
 843 1285 l 1,20,21
 824 1287 824 1287 795.5 1288 c 128,-1,22
 767 1289 767 1289 737 1289 c 0,23,24
 672 1289 672 1289 638.5 1258 c 128,-1,25
 605 1227 605 1227 593 1158 c 2,26,-1
 390 -71 l 2,27,28
 370 -191 370 -191 317 -271.5 c 128,-1,29
 264 -352 264 -352 176.5 -393.5 c 128,-1,30
 89 -435 89 -435 -34 -435 c 0,0,1
EndSplineSet
EndChar

StartChar: f
Encoding: 102 102 617
Width: 796
GlyphClass: 2
Flags: W
AnchorPoint: "Anchor-1" 645 1517 basechar 0
AnchorPoint: "Anchor-0" 273 0 basechar 0
LayerCount: 2
Fore
SplineSet
832 1087 m 1,0,-1
 794 859 l 1,1,-1
 72 859 l 1,2,-1
 110 1087 l 1,3,-1
 832 1087 l 1,0,-1
-13 -435 m 0,4,5
 -43 -435 -43 -435 -70.5 -434.5 c 128,-1,6
 -98 -434 -98 -434 -123.5 -432 c 128,-1,7
 -149 -430 -149 -430 -172 -427 c 1,8,-1
 -120 -192 l 1,9,10
 -100 -193 -100 -193 -77 -195 c 128,-1,11
 -54 -197 -54 -197 -32 -197 c 0,12,13
 35 -197 35 -197 69.5 -165.5 c 128,-1,14
 104 -134 104 -134 116 -61 c 2,15,-1
 318 1167 l 2,16,17
 338 1284 338 1284 394 1363.5 c 128,-1,18
 450 1443 450 1443 539.5 1483.5 c 128,-1,19
 629 1524 629 1524 751 1524 c 0,20,21
 799 1524 799 1524 843 1522 c 128,-1,22
 887 1520 887 1520 922 1514 c 1,23,-1
 865 1285 l 1,24,25
 845 1287 845 1287 816.5 1288 c 128,-1,26
 788 1289 788 1289 758 1289 c 0,27,28
 694 1289 694 1289 660 1258 c 128,-1,29
 626 1227 626 1227 615 1158 c 2,30,-1
 410 -71 l 2,31,32
 391 -191 391 -191 338 -271.5 c 128,-1,33
 285 -352 285 -352 197.5 -393.5 c 128,-1,34
 110 -435 110 -435 -13 -435 c 0,4,5
EndSplineSet
Substitution2: "'cv12' Character Variants 12 in Latin lookup 65 subtable" f.1
Substitution2: "'salt' Stylistic Alternatives in Latin lookup 46 subtable" f.1
Substitution2: "'sups' Superscript in Latin lookup 39 subtable" f.sups
Substitution2: "'subs' Subscript in Latin lookup 38 subtable" f.subs
Substitution2: "Single Substitution lookup 36 subtable" f.1
Substitution2: "Single Substitution lookup 35 subtable" f.i.1
Substitution2: "Single Substitution lookup 34 subtable" f.i
Substitution2: "'sinf' Scientific Inferiors in Latin lookup 18 subtable" f.subs
AlternateSubs2: "'aalt' Access All Alternates in Latin lookup 1 subtable" f.sups f.subs
EndChar

StartChar: f.1
Encoding: 60941 60941 618
Width: 697
GlyphClass: 2
Flags: W
AnchorPoint: "Anchor-1" 546 1517 basechar 0
AnchorPoint: "Anchor-0" 174 0 basechar 0
LayerCount: 2
Fore
SplineSet
733 1087 m 1,0,-1
 696 859 l 1,1,-1
 314 859 l 1,2,-1
 352 1087 l 1,3,-1
 733 1087 l 1,0,-1
-111 -435 m 0,4,5
 -142 -435 -142 -435 -169 -434.5 c 128,-1,6
 -196 -434 -196 -434 -221.5 -432 c 128,-1,7
 -247 -430 -247 -430 -270 -427 c 1,8,-1
 -219 -192 l 1,9,10
 -199 -193 -199 -193 -176 -195 c 128,-1,11
 -153 -197 -153 -197 -130 -197 c 0,12,13
 -63 -197 -63 -197 -29 -165.5 c 128,-1,14
 5 -134 5 -134 17 -61 c 2,15,-1
 220 1167 l 2,16,17
 240 1284 240 1284 295.5 1363.5 c 128,-1,18
 351 1443 351 1443 441 1483.5 c 128,-1,19
 531 1524 531 1524 653 1524 c 0,20,21
 701 1524 701 1524 745 1522 c 128,-1,22
 789 1520 789 1520 823 1514 c 1,23,-1
 766 1285 l 1,24,25
 746 1287 746 1287 718 1288 c 128,-1,26
 690 1289 690 1289 659 1289 c 0,27,28
 595 1289 595 1289 561.5 1258 c 128,-1,29
 528 1227 528 1227 516 1158 c 2,30,-1
 312 -71 l 2,31,32
 293 -191 293 -191 239.5 -271.5 c 128,-1,33
 186 -352 186 -352 99 -393.5 c 128,-1,34
 12 -435 12 -435 -111 -435 c 0,4,5
EndSplineSet
EndChar

StartChar: f.i
Encoding: 60942 60942 619
Width: 700
GlyphClass: 2
Flags: W
AnchorPoint: "Anchor-1" 617 1517 basechar 0
AnchorPoint: "Anchor-0" 247 0 basechar 0
LayerCount: 2
Fore
SplineSet
-41 -435 m 0,0,1
 -71 -435 -71 -435 -99 -434.5 c 128,-1,2
 -127 -434 -127 -434 -151.5 -432 c 128,-1,3
 -176 -430 -176 -430 -199 -427 c 1,4,-1
 -148 -192 l 1,5,6
 -128 -193 -128 -193 -105 -195 c 128,-1,7
 -82 -197 -82 -197 -61 -197 c 0,8,9
 6 -197 6 -197 40.5 -165.5 c 128,-1,10
 75 -134 75 -134 87 -61 c 2,11,-1
 291 1167 l 2,12,13
 310 1284 310 1284 365.5 1363.5 c 128,-1,14
 421 1443 421 1443 511 1483.5 c 128,-1,15
 601 1524 601 1524 723 1524 c 0,16,17
 749 1524 749 1524 773.5 1524 c 128,-1,18
 798 1524 798 1524 822 1523 c 1,19,-1
 785 1289 l 1,20,21
 770 1290 770 1290 755 1289.5 c 128,-1,22
 740 1289 740 1289 726 1289 c 0,23,24
 663 1289 663 1289 630.5 1259.5 c 128,-1,25
 598 1230 598 1230 587 1165 c 2,26,-1
 383 -71 l 2,27,28
 363 -191 363 -191 310 -271.5 c 128,-1,29
 257 -352 257 -352 169.5 -393.5 c 128,-1,30
 82 -435 82 -435 -41 -435 c 0,0,1
82 858 m 1,31,-1
 119 1087 l 1,32,-1
 1058 1087 l 1,33,-1
 1021 858 l 1,34,-1
 82 858 l 1,31,-1
EndSplineSet
Substitution2: "Single Substitution lookup 35 subtable" f.i.1
EndChar

StartChar: f.i.1
Encoding: 60943 60943 620
Width: 630
GlyphClass: 2
Flags: W
AnchorPoint: "Anchor-1" 546 1517 basechar 0
AnchorPoint: "Anchor-0" 175 0 basechar 0
LayerCount: 2
Fore
SplineSet
-111 -435 m 0,0,1
 -142 -435 -142 -435 -169 -434.5 c 128,-1,2
 -196 -434 -196 -434 -221.5 -432 c 128,-1,3
 -247 -430 -247 -430 -270 -427 c 1,4,-1
 -219 -192 l 1,5,6
 -199 -193 -199 -193 -176 -195 c 128,-1,7
 -153 -197 -153 -197 -130 -197 c 0,8,9
 -63 -197 -63 -197 -29 -165.5 c 128,-1,10
 5 -134 5 -134 17 -61 c 2,11,-1
 220 1167 l 2,12,13
 240 1284 240 1284 295.5 1363.5 c 128,-1,14
 351 1443 351 1443 441 1483.5 c 128,-1,15
 531 1524 531 1524 653 1524 c 0,16,17
 678 1524 678 1524 702.5 1524 c 128,-1,18
 727 1524 727 1524 751 1523 c 1,19,-1
 714 1289 l 1,20,21
 699 1290 699 1290 684 1289.5 c 128,-1,22
 669 1289 669 1289 655 1289 c 0,23,24
 593 1289 593 1289 560.5 1259.5 c 128,-1,25
 528 1230 528 1230 517 1165 c 2,26,-1
 312 -71 l 2,27,28
 293 -191 293 -191 239.5 -271.5 c 128,-1,29
 186 -352 186 -352 98.5 -393.5 c 128,-1,30
 11 -435 11 -435 -111 -435 c 0,0,1
312 858 m 1,31,-1
 350 1087 l 1,32,-1
 988 1087 l 1,33,-1
 950 858 l 1,34,-1
 312 858 l 1,31,-1
EndSplineSet
EndChar

StartChar: g
Encoding: 103 103 628
Width: 1259
GlyphClass: 2
Flags: W
AnchorPoint: "Anchor-1" 699 1087 basechar 0
AnchorPoint: "Anchor-0" 456 -425 basechar 0
LayerCount: 2
Fore
SplineSet
468 -437 m 0,0,1
 319 -437 319 -437 218.5 -396.5 c 128,-1,2
 118 -356 118 -356 65 -285.5 c 128,-1,3
 12 -215 12 -215 7 -124 c 1,4,-1
 278 -97 l 1,5,6
 284 -133 284 -133 306 -160 c 128,-1,7
 328 -187 328 -187 368.5 -203 c 128,-1,8
 409 -219 409 -219 470 -219 c 0,9,10
 588 -219 588 -219 665.5 -158 c 128,-1,11
 743 -97 743 -97 761 15 c 2,12,-1
 790 189 l 1,13,-1
 776 188 l 1,14,15
 741 135 741 135 695 94 c 128,-1,16
 649 53 649 53 589.5 30.5 c 128,-1,17
 530 8 530 8 453 8 c 0,18,19
 336 8 336 8 248 58 c 128,-1,20
 160 108 160 108 111 203.5 c 128,-1,21
 62 299 62 299 62 432 c 0,22,23
 62 557 62 557 99.5 677 c 128,-1,24
 137 797 137 797 207 893.5 c 128,-1,25
 277 990 277 990 376.5 1047.5 c 128,-1,26
 476 1105 476 1105 602 1105 c 0,27,28
 666 1105 666 1105 715.5 1089.5 c 128,-1,29
 765 1074 765 1074 802 1046 c 128,-1,30
 839 1018 839 1018 863.5 983 c 128,-1,31
 888 948 888 948 902 910 c 1,32,-1
 910 911 l 1,33,-1
 939 1087 l 1,34,-1
 1233 1087 l 1,35,-1
 1055 16 l 2,36,37
 1029 -143 1029 -143 947.5 -243 c 128,-1,38
 866 -343 866 -343 742.5 -390 c 128,-1,39
 619 -437 619 -437 468 -437 c 0,0,1
543 240 m 0,40,41
 622 240 622 240 682 277 c 128,-1,42
 742 314 742 314 783 374.5 c 128,-1,43
 824 435 824 435 845 508 c 128,-1,44
 866 581 866 581 866 654 c 0,45,46
 866 755 866 755 818.5 812 c 128,-1,47
 771 869 771 869 680 869 c 0,48,49
 604 869 604 869 544.5 831 c 128,-1,50
 485 793 485 793 444.5 731 c 128,-1,51
 404 669 404 669 383 594.5 c 128,-1,52
 362 520 362 520 362 447 c 0,53,54
 362 347 362 347 409 293.5 c 128,-1,55
 456 240 456 240 543 240 c 0,40,41
EndSplineSet
Substitution2: "'smcp' Lowercase to Small Capitals in Latin lookup 68 subtable" g.sc
Substitution2: "'sups' Superscript in Latin lookup 39 subtable" g.sups
Substitution2: "'subs' Subscript in Latin lookup 38 subtable" g.subs
Substitution2: "'sinf' Scientific Inferiors in Latin lookup 18 subtable" g.subs
AlternateSubs2: "'aalt' Access All Alternates in Latin lookup 1 subtable" g.sc g.sups g.subs
EndChar

StartChar: uni0260
Encoding: 608 608 629
Width: 1259
GlyphClass: 2
Flags: W
AnchorPoint: "Anchor-1" 699 1087 basechar 0
AnchorPoint: "Anchor-0" 456 -425 basechar 0
LayerCount: 2
Fore
SplineSet
900 876 m 1,0,-1
 935 1087 l 1,1,-1
 951 1180 l 2,2,3
 977 1337 977 1337 1080 1417 c 128,-1,4
 1183 1497 1183 1497 1362 1497 c 0,5,6
 1411 1497 1411 1497 1451 1495 c 128,-1,7
 1491 1493 1491 1493 1520 1489 c 1,8,-1
 1482 1262 l 1,9,10
 1462 1263 1462 1263 1433.5 1264 c 128,-1,11
 1405 1265 1405 1265 1379 1265 c 0,12,13
 1317 1265 1317 1265 1286 1243.5 c 128,-1,14
 1255 1222 1255 1222 1247 1174 c 2,15,-1
 1233 1087 l 1,16,-1
 1197 876 l 1,17,-1
 900 876 l 1,0,-1
468 -437 m 0,18,19
 319 -437 319 -437 218.5 -396.5 c 128,-1,20
 118 -356 118 -356 65 -285.5 c 128,-1,21
 12 -215 12 -215 7 -124 c 1,22,-1
 278 -97 l 1,23,24
 284 -133 284 -133 306 -160 c 128,-1,25
 328 -187 328 -187 368.5 -203 c 128,-1,26
 409 -219 409 -219 470 -219 c 0,27,28
 588 -219 588 -219 665.5 -158 c 128,-1,29
 743 -97 743 -97 761 15 c 2,30,-1
 790 189 l 1,31,-1
 776 188 l 1,32,33
 741 135 741 135 695 94 c 128,-1,34
 649 53 649 53 589.5 30.5 c 128,-1,35
 530 8 530 8 453 8 c 0,36,37
 336 8 336 8 248 58 c 128,-1,38
 160 108 160 108 111 203.5 c 128,-1,39
 62 299 62 299 62 432 c 0,40,41
 62 557 62 557 99.5 677 c 128,-1,42
 137 797 137 797 207 893.5 c 128,-1,43
 277 990 277 990 376.5 1047.5 c 128,-1,44
 476 1105 476 1105 602 1105 c 0,45,46
 666 1105 666 1105 715.5 1089.5 c 128,-1,47
 765 1074 765 1074 802 1046 c 128,-1,48
 839 1018 839 1018 863.5 983 c 128,-1,49
 888 948 888 948 902 910 c 1,50,-1
 910 911 l 1,51,-1
 939 1087 l 1,52,-1
 1233 1087 l 1,53,-1
 1055 16 l 2,54,55
 1029 -143 1029 -143 947.5 -243 c 128,-1,56
 866 -343 866 -343 742.5 -390 c 128,-1,57
 619 -437 619 -437 468 -437 c 0,18,19
543 240 m 0,58,59
 622 240 622 240 682 277 c 128,-1,60
 742 314 742 314 783 374.5 c 128,-1,61
 824 435 824 435 845 508 c 128,-1,62
 866 581 866 581 866 654 c 0,63,64
 866 755 866 755 818.5 812 c 128,-1,65
 771 869 771 869 680 869 c 0,66,67
 604 869 604 869 544.5 831 c 128,-1,68
 485 793 485 793 444.5 731 c 128,-1,69
 404 669 404 669 383 594.5 c 128,-1,70
 362 520 362 520 362 447 c 0,71,72
 362 347 362 347 409 293.5 c 128,-1,73
 456 240 456 240 543 240 c 0,58,59
EndSplineSet
Substitution2: "'smcp' Lowercase to Small Capitals in Latin lookup 68 subtable" uni0260.sc
Substitution2: "'c2sc' Capitals to Small Capitals in Latin lookup 67 subtable" uni0260.sc
Substitution2: "'aalt' Access All Alternates in Latin lookup 0 subtable" uni0260.sc
EndChar

StartChar: g.sc
Encoding: 610 610 638
Width: 1147
GlyphClass: 2
Flags: W
AnchorPoint: "Anchor-1" 684 1087 basechar 0
AnchorPoint: "Anchor-0" 502 0 basechar 0
LayerCount: 2
Fore
SplineSet
525 -15 m 0,0,1
 382 -15 382 -15 278.5 39.5 c 128,-1,2
 175 94 175 94 118.5 195.5 c 128,-1,3
 62 297 62 297 62 437 c 0,4,5
 62 572 62 572 106.5 692.5 c 128,-1,6
 151 813 151 813 233 905.5 c 128,-1,7
 315 998 315 998 428 1050.5 c 128,-1,8
 541 1103 541 1103 678 1103 c 0,9,10
 802 1103 802 1103 903.5 1058.5 c 128,-1,11
 1005 1014 1005 1014 1064 929 c 128,-1,12
 1123 844 1123 844 1116 724 c 1,13,-1
 822 724 l 1,14,15
 819 766 819 766 801 794 c 128,-1,16
 783 822 783 822 751 836.5 c 128,-1,17
 719 851 719 851 673 851 c 0,18,19
 594 851 594 851 533.5 815 c 128,-1,20
 473 779 473 779 433 718.5 c 128,-1,21
 393 658 393 658 373.5 585.5 c 128,-1,22
 354 513 354 513 354 440 c 0,23,24
 354 342 354 342 401.5 289 c 128,-1,25
 449 236 449 236 542 236 c 0,26,27
 613 236 613 236 666.5 259 c 128,-1,28
 720 282 720 282 753.5 321.5 c 128,-1,29
 787 361 787 361 794 410 c 1,30,-1
 847 395 l 1,31,-1
 593 395 l 1,32,-1
 628 605 l 1,33,-1
 1106 605 l 1,34,-1
 1079 440 l 2,35,36
 1055 297 1055 297 977 195 c 128,-1,37
 899 93 899 93 782.5 39 c 128,-1,38
 666 -15 666 -15 525 -15 c 0,0,1
EndSplineSet
EndChar

StartChar: uni0260.sc
Encoding: 60947 60947 639
Width: 1258
GlyphClass: 2
Flags: W
AnchorPoint: "Anchor-1" 684 1087 basechar 0
AnchorPoint: "Anchor-0" 502 0 basechar 0
LayerCount: 2
Fore
SplineSet
926 724 m 1,0,-1
 929 927 l 2,1,2
 929 1030 929 1030 960 1104.5 c 128,-1,3
 991 1179 991 1179 1059 1220 c 128,-1,4
 1127 1261 1127 1261 1233 1261 c 0,5,6
 1274 1261 1274 1261 1306 1259 c 128,-1,7
 1338 1257 1338 1257 1368 1253 c 1,8,-1
 1330 1026 l 1,9,10
 1310 1028 1310 1028 1289 1028.5 c 128,-1,11
 1268 1029 1268 1029 1249 1029 c 0,12,13
 1187 1029 1187 1029 1160 994.5 c 128,-1,14
 1133 960 1133 960 1134 873 c 1,15,-1
 1115 724 l 1,16,-1
 926 724 l 1,0,-1
525 -15 m 0,17,18
 382 -15 382 -15 278.5 39.5 c 128,-1,19
 175 94 175 94 118.5 195.5 c 128,-1,20
 62 297 62 297 62 437 c 0,21,22
 62 572 62 572 106.5 692.5 c 128,-1,23
 151 813 151 813 233 905.5 c 128,-1,24
 315 998 315 998 428 1050.5 c 128,-1,25
 541 1103 541 1103 678 1103 c 0,26,27
 802 1103 802 1103 903.5 1058.5 c 128,-1,28
 1005 1014 1005 1014 1064 929 c 128,-1,29
 1123 844 1123 844 1116 724 c 1,30,-1
 822 724 l 1,31,32
 819 766 819 766 801 794 c 128,-1,33
 783 822 783 822 751 836.5 c 128,-1,34
 719 851 719 851 673 851 c 0,35,36
 594 851 594 851 533.5 815 c 128,-1,37
 473 779 473 779 433 718.5 c 128,-1,38
 393 658 393 658 373.5 585.5 c 128,-1,39
 354 513 354 513 354 440 c 0,40,41
 354 342 354 342 401.5 289 c 128,-1,42
 449 236 449 236 542 236 c 0,43,44
 613 236 613 236 666.5 259 c 128,-1,45
 720 282 720 282 753.5 321.5 c 128,-1,46
 787 361 787 361 794 410 c 1,47,-1
 847 395 l 1,48,-1
 593 395 l 1,49,-1
 628 605 l 1,50,-1
 1106 605 l 1,51,-1
 1079 440 l 2,52,53
 1055 297 1055 297 977 195 c 128,-1,54
 899 93 899 93 782.5 39 c 128,-1,55
 666 -15 666 -15 525 -15 c 0,17,18
EndSplineSet
EndChar

StartChar: h
Encoding: 104 104 640
Width: 1237
GlyphClass: 2
Flags: W
AnchorPoint: "Anchor-3" 178 0 basechar 0
AnchorPoint: "Anchor-1" 420 1490 basechar 0
AnchorPoint: "Anchor-0" 529 0 basechar 0
LayerCount: 2
Fore
SplineSet
426 617 m 2,0,-1
 323 0 l 1,1,-1
 26 0 l 1,2,-1
 273 1490 l 1,3,-1
 567 1490 l 1,4,-1
 455 811 l 1,5,-1
 415 811 l 1,6,7
 463 905 463 905 521.5 970.5 c 128,-1,8
 580 1036 580 1036 654.5 1070.5 c 128,-1,9
 729 1105 729 1105 824 1105 c 0,10,11
 939 1105 939 1105 1018.5 1055.5 c 128,-1,12
 1098 1006 1098 1006 1132.5 912.5 c 128,-1,13
 1167 819 1167 819 1145 686 c 2,14,-1
 1032 0 l 1,15,-1
 734 0 l 1,16,-1
 839 634 l 2,17,18
 856 739 856 739 813.5 796 c 128,-1,19
 771 853 771 853 676 853 c 0,20,21
 615 853 615 853 562.5 826.5 c 128,-1,22
 510 800 510 800 474.5 748 c 128,-1,23
 439 696 439 696 426 617 c 2,0,-1
EndSplineSet
Substitution2: "'smcp' Lowercase to Small Capitals in Latin lookup 68 subtable" h.sc
Substitution2: "'sups' Superscript in Latin lookup 39 subtable" h.sups
Substitution2: "'subs' Subscript in Latin lookup 38 subtable" h.subs
Substitution2: "'sinf' Scientific Inferiors in Latin lookup 18 subtable" h.subs
AlternateSubs2: "'aalt' Access All Alternates in Latin lookup 1 subtable" h.sups h.subs h.sc
EndChar

StartChar: uni0452
Encoding: 1106 1106 643
Width: 1237
GlyphClass: 2
Flags: W
AnchorPoint: "Anchor-3" 178 0 basechar 0
AnchorPoint: "Anchor-1" 420 1490 basechar 0
AnchorPoint: "Anchor-0" 529 0 basechar 0
LayerCount: 2
Fore
SplineSet
608 -426 m 0,0,1
 560 -426 560 -426 518.5 -424 c 128,-1,2
 477 -422 477 -422 448 -417 c 1,3,-1
 486 -191 l 1,4,5
 506 -192 506 -192 534.5 -193 c 128,-1,6
 563 -194 563 -194 590 -194 c 0,7,8
 651 -194 651 -194 680.5 -172 c 128,-1,9
 710 -150 710 -150 717 -102 c 2,10,-1
 734 0 l 1,11,-1
 1032 0 l 1,12,-1
 1013 -108 l 2,13,14
 987 -266 987 -266 886 -346 c 128,-1,15
 785 -426 785 -426 608 -426 c 0,0,1
426 617 m 2,16,-1
 323 0 l 1,17,-1
 26 0 l 1,18,-1
 273 1490 l 1,19,-1
 567 1490 l 1,20,-1
 455 811 l 1,21,-1
 415 811 l 1,22,23
 463 905 463 905 521.5 970.5 c 128,-1,24
 580 1036 580 1036 654.5 1070.5 c 128,-1,25
 729 1105 729 1105 824 1105 c 0,26,27
 939 1105 939 1105 1018.5 1055.5 c 128,-1,28
 1098 1006 1098 1006 1132.5 912.5 c 128,-1,29
 1167 819 1167 819 1145 686 c 2,30,-1
 1032 0 l 1,31,-1
 734 0 l 1,32,-1
 839 634 l 2,33,34
 856 739 856 739 813.5 796 c 128,-1,35
 771 853 771 853 676 853 c 0,36,37
 615 853 615 853 562.5 826.5 c 128,-1,38
 510 800 510 800 474.5 748 c 128,-1,39
 439 696 439 696 426 617 c 2,16,-1
84 1192 m 1,40,-1
 115 1374 l 1,41,-1
 854 1374 l 1,42,-1
 824 1192 l 1,43,-1
 84 1192 l 1,40,-1
EndSplineSet
EndChar

StartChar: uni0266
Encoding: 614 614 644
Width: 1238
GlyphClass: 2
Flags: W
AnchorPoint: "Anchor-1" 709 1087 basechar 0
AnchorPoint: "Anchor-0" 529 0 basechar 0
LayerCount: 2
Fore
SplineSet
171 876 m 1,0,-1
 207 1087 l 1,1,-1
 221 1180 l 2,2,3
 248 1337 248 1337 351 1417 c 128,-1,4
 454 1497 454 1497 634 1497 c 0,5,6
 682 1497 682 1497 722 1495 c 128,-1,7
 762 1493 762 1493 791 1489 c 1,8,-1
 753 1262 l 1,9,10
 733 1263 733 1263 704 1264 c 128,-1,11
 675 1265 675 1265 649 1265 c 0,12,13
 589 1265 589 1265 557.5 1243.5 c 128,-1,14
 526 1222 526 1222 518 1174 c 2,15,-1
 503 1087 l 1,16,-1
 468 876 l 1,17,-1
 171 876 l 1,0,-1
424 607 m 2,18,-1
 323 0 l 1,19,-1
 26 0 l 1,20,-1
 206 1087 l 1,21,-1
 493 1087 l 1,22,-1
 451 811 l 1,23,-1
 414 819 l 1,24,25
 484 959 484 959 583.5 1032 c 128,-1,26
 683 1105 683 1105 820 1105 c 0,27,28
 939 1105 939 1105 1019 1053 c 128,-1,29
 1099 1001 1099 1001 1132.5 905 c 128,-1,30
 1166 809 1166 809 1144 676 c 2,31,-1
 1032 0 l 1,32,-1
 734 0 l 1,33,-1
 840 644 l 2,34,35
 858 749 858 749 815 801 c 128,-1,36
 772 853 772 853 684 853 c 0,37,38
 618 853 618 853 563.5 824 c 128,-1,39
 509 795 509 795 473 740.5 c 128,-1,40
 437 686 437 686 424 607 c 2,18,-1
EndSplineSet
EndChar

StartChar: uni0267
Encoding: 615 615 645
Width: 1238
GlyphClass: 2
Flags: W
AnchorPoint: "Anchor-1" 709 1087 basechar 0
AnchorPoint: "Anchor-0" 529 0 basechar 0
LayerCount: 2
Fore
SplineSet
608 -426 m 0,0,1
 560 -426 560 -426 518.5 -424 c 128,-1,2
 477 -422 477 -422 448 -417 c 1,3,-1
 486 -191 l 1,4,5
 506 -192 506 -192 534.5 -193 c 128,-1,6
 563 -194 563 -194 590 -194 c 0,7,8
 651 -194 651 -194 680.5 -172 c 128,-1,9
 710 -150 710 -150 717 -102 c 2,10,-1
 734 0 l 1,11,-1
 1032 0 l 1,12,-1
 1013 -108 l 2,13,14
 987 -266 987 -266 886 -346 c 128,-1,15
 785 -426 785 -426 608 -426 c 0,0,1
424 607 m 2,16,-1
 323 0 l 1,17,-1
 26 0 l 1,18,-1
 206 1087 l 1,19,-1
 493 1087 l 1,20,-1
 451 811 l 1,21,-1
 414 819 l 1,22,23
 484 959 484 959 583.5 1032 c 128,-1,24
 683 1105 683 1105 820 1105 c 0,25,26
 939 1105 939 1105 1019 1053 c 128,-1,27
 1099 1001 1099 1001 1132.5 905 c 128,-1,28
 1166 809 1166 809 1144 676 c 2,29,-1
 1032 0 l 1,30,-1
 734 0 l 1,31,-1
 840 644 l 2,32,33
 858 749 858 749 815 801 c 128,-1,34
 772 853 772 853 684 853 c 0,35,36
 618 853 618 853 563.5 824 c 128,-1,37
 509 795 509 795 473 740.5 c 128,-1,38
 437 686 437 686 424 607 c 2,16,-1
171 876 m 1,39,-1
 207 1087 l 1,40,-1
 221 1180 l 2,41,42
 248 1337 248 1337 351 1417 c 128,-1,43
 454 1497 454 1497 634 1497 c 0,44,45
 682 1497 682 1497 722 1495 c 128,-1,46
 762 1493 762 1493 791 1489 c 1,47,-1
 753 1262 l 1,48,49
 733 1263 733 1263 704 1264 c 128,-1,50
 675 1265 675 1265 649 1265 c 0,51,52
 589 1265 589 1265 557.5 1243.5 c 128,-1,53
 526 1222 526 1222 518 1174 c 2,54,-1
 503 1087 l 1,55,-1
 468 876 l 1,56,-1
 171 876 l 1,39,-1
EndSplineSet
EndChar

StartChar: uni0195
Encoding: 405 405 646
Width: 1985
Flags: W
LayerCount: 2
Fore
SplineSet
27 0 m 1,0,-1
 273 1490 l 1,1,-1
 563 1490 l 1,2,-1
 469 921 l 1,3,-1
 483 921 l 1,4,5
 537 1020 537 1020 630 1076 c 128,-1,6
 723 1132 723 1132 851 1132 c 0,7,8
 967 1132 967 1132 1045 1082 c 128,-1,9
 1123 1032 1123 1032 1156 938 c 128,-1,10
 1189 844 1189 844 1167 711 c 2,11,-1
 1142 558 l 1,12,-1
 844 558 l 1,13,-1
 860 660 l 2,14,15
 877 765 877 765 833.5 824.5 c 128,-1,16
 790 884 790 884 692 883 c 0,17,18
 628 883 628 883 573.5 855.5 c 128,-1,19
 519 828 519 828 481.5 775.5 c 128,-1,20
 444 723 444 723 432 648 c 2,21,-1
 325 0 l 1,22,-1
 27 0 l 1,0,-1
1192 -20 m 0,23,24
 1052 -20 1052 -20 961 33.5 c 128,-1,25
 870 87 870 87 834.5 188.5 c 128,-1,26
 799 290 799 290 824 436 c 2,27,-1
 844 558 l 1,28,-1
 1142 558 l 1,29,-1
 1122 436 l 2,30,31
 1108 357 1108 357 1123.5 311 c 128,-1,32
 1139 265 1139 265 1173 246.5 c 128,-1,33
 1207 228 1207 228 1245 227 c 0,34,35
 1332 228 1332 228 1406.5 310.5 c 128,-1,36
 1481 393 1481 393 1542 562.5 c 128,-1,37
 1603 732 1603 732 1646 991 c 2,38,-1
 1667 1118 l 1,39,-1
 1965 1118 l 1,40,-1
 1944 991 l 2,41,42
 1887 649 1887 649 1785.5 424.5 c 128,-1,43
 1684 200 1684 200 1536 90 c 128,-1,44
 1388 -20 1388 -20 1192 -20 c 0,23,24
EndSplineSet
EndChar

StartChar: hturn
Encoding: 613 613 647
Width: 1237
GlyphClass: 2
Flags: W
AnchorPoint: "Anchor-3" 1061 1087 basechar 0
AnchorPoint: "Anchor-1" 708 1087 basechar 0
AnchorPoint: "Anchor-0" 710 1087 basechar 0
LayerCount: 2
Fore
SplineSet
812 470 m 2,0,-1
 914 1087 l 1,1,-1
 1211 1087 l 1,2,-1
 964 -403 l 1,3,-1
 670 -403 l 1,4,-1
 783 277 l 1,5,-1
 823 277 l 1,6,7
 776 184 776 184 717 118 c 128,-1,8
 658 52 658 52 583.5 17 c 128,-1,9
 509 -18 509 -18 414 -18 c 0,10,11
 300 -18 300 -18 220 31.5 c 128,-1,12
 140 81 140 81 105.5 175 c 128,-1,13
 71 269 71 269 93 401 c 2,14,-1
 207 1087 l 1,15,-1
 504 1087 l 1,16,-1
 399 455 l 2,17,18
 382 349 382 349 425 291.5 c 128,-1,19
 468 234 468 234 561 234 c 0,20,21
 623 234 623 234 675.5 260.5 c 128,-1,22
 728 287 728 287 763.5 339.5 c 128,-1,23
 799 392 799 392 812 470 c 2,0,-1
EndSplineSet
EndChar

StartChar: hturnlthook
Encoding: 686 686 648
Width: 1373
Flags: W
LayerCount: 2
Fore
SplineSet
803 -418 m 1,0,-1
 917 277 l 1,1,-1
 958 277 l 1,2,3
 888 138 888 138 783.5 60 c 128,-1,4
 679 -18 679 -18 537 -18 c 0,5,6
 423 -18 423 -18 346 32 c 128,-1,7
 269 82 269 82 238 175.5 c 128,-1,8
 207 269 207 269 228 401 c 2,9,-1
 286 753 l 2,10,11
 297 816 297 816 262 839 c 128,-1,12
 227 862 227 862 164 862 c 0,13,14
 151 862 151 862 134.5 861.5 c 128,-1,15
 118 861 118 861 100.5 860.5 c 128,-1,16
 83 860 83 860 71 859 c 1,17,-1
 110 1088 l 1,18,19
 142 1092 142 1092 181.5 1093 c 128,-1,20
 221 1094 221 1094 267 1094 c 0,21,22
 350 1094 350 1094 415 1076 c 128,-1,23
 480 1058 480 1058 523.5 1019 c 128,-1,24
 567 980 567 980 583.5 918 c 128,-1,25
 600 856 600 856 586 768 c 2,26,-1
 534 455 l 2,27,28
 517 350 517 350 559.5 292 c 128,-1,29
 602 234 602 234 696 234 c 0,30,31
 758 234 758 234 810.5 260.5 c 128,-1,32
 863 287 863 287 898.5 339.5 c 128,-1,33
 934 392 934 392 947 470 c 2,34,-1
 1049 1087 l 1,35,-1
 1346 1087 l 1,36,-1
 1097 -418 l 1,37,-1
 803 -418 l 1,0,-1
EndSplineSet
EndChar

StartChar: hturnhook2
Encoding: 687 687 649
Width: 1375
Flags: W
LayerCount: 2
Fore
SplineSet
1132 -426 m 0,0,1
 970 -426 970 -426 898.5 -349.5 c 128,-1,2
 827 -273 827 -273 851 -125 c 2,3,-1
 918 277 l 1,4,-1
 957 277 l 1,5,6
 888 138 888 138 783.5 60 c 128,-1,7
 679 -18 679 -18 537 -18 c 0,8,9
 423 -18 423 -18 346 32 c 128,-1,10
 269 82 269 82 238 175.5 c 128,-1,11
 207 269 207 269 228 401 c 2,12,-1
 286 753 l 2,13,14
 297 816 297 816 262 839 c 128,-1,15
 227 862 227 862 164 862 c 0,16,17
 151 862 151 862 134.5 861.5 c 128,-1,18
 118 861 118 861 100.5 860.5 c 128,-1,19
 83 860 83 860 71 859 c 1,20,-1
 110 1088 l 1,21,22
 142 1092 142 1092 181.5 1093 c 128,-1,23
 221 1094 221 1094 267 1094 c 0,24,25
 350 1094 350 1094 415 1076 c 128,-1,26
 480 1058 480 1058 523.5 1019 c 128,-1,27
 567 980 567 980 583.5 918 c 128,-1,28
 600 856 600 856 586 768 c 2,29,-1
 533 455 l 2,30,31
 517 350 517 350 559.5 292 c 128,-1,32
 602 234 602 234 696 234 c 0,33,34
 758 234 758 234 810.5 260.5 c 128,-1,35
 863 287 863 287 898.5 339.5 c 128,-1,36
 934 392 934 392 947 470 c 2,37,-1
 1049 1087 l 1,38,-1
 1346 1087 l 1,39,-1
 1148 -111 l 2,40,41
 1140 -156 1140 -156 1162.5 -176 c 128,-1,42
 1185 -196 1185 -196 1242 -196 c 0,43,44
 1269 -196 1269 -196 1301 -195.5 c 128,-1,45
 1333 -195 1333 -195 1354 -193 c 1,46,-1
 1317 -417 l 1,47,48
 1297 -420 1297 -420 1266 -422 c 128,-1,49
 1235 -424 1235 -424 1200 -425 c 128,-1,50
 1165 -426 1165 -426 1132 -426 c 0,0,1
EndSplineSet
EndChar

StartChar: dotlessi
Encoding: 305 305 660
Width: 530
GlyphClass: 2
Flags: W
AnchorPoint: "Anchor-4" 324 0 basechar 0
AnchorPoint: "Anchor-1" 356 1087 basechar 0
AnchorPoint: "Anchor-0" 177 0 basechar 0
LayerCount: 2
Fore
SplineSet
27 0 m 1,0,-1
 206 1087 l 1,1,-1
 504 1087 l 1,2,-1
 324 0 l 1,3,-1
 27 0 l 1,0,-1
EndSplineSet
EndChar

StartChar: uni0237
Encoding: 567 567 682
Width: 530
GlyphClass: 2
Flags: W
AnchorPoint: "Anchor-1" 356 1087 basechar 0
AnchorPoint: "Anchor-0" 47 -425 basechar 0
LayerCount: 2
Fore
SplineSet
207 1087 m 1,0,-1
 504 1087 l 1,1,-1
 312 -73 l 2,2,3
 293 -189 293 -189 235.5 -265.5 c 128,-1,4
 178 -342 178 -342 85 -380 c 128,-1,5
 -8 -418 -8 -418 -131 -418 c 2,6,-1
 -220 -418 l 1,7,-1
 -181 -183 l 1,8,-1
 -127 -183 l 2,9,10
 -61 -183 -61 -183 -27 -152 c 128,-1,11
 7 -121 7 -121 18 -55 c 2,12,-1
 207 1087 l 1,0,-1
EndSplineSet
EndChar

StartChar: i.sc
Encoding: 60950 60950 689
Width: 710
GlyphClass: 2
Flags: W
AnchorPoint: "Anchor-4" 579 0 basechar 0
AnchorPoint: "Anchor-1" 445 1087 basechar 0
AnchorPoint: "Anchor-0" 265 0 basechar 0
LayerCount: 2
Fore
SplineSet
-49 0 m 1,0,-1
 -10 238 l 1,1,-1
 156 238 l 1,2,-1
 258 850 l 1,3,-1
 92 850 l 1,4,-1
 131 1087 l 1,5,-1
 759 1087 l 1,6,-1
 720 850 l 1,7,-1
 554 850 l 1,8,-1
 453 238 l 1,9,-1
 618 238 l 1,10,-1
 579 0 l 1,11,-1
 -49 0 l 1,0,-1
EndSplineSet
EndChar

StartChar: jcrosstail.ccmp
Encoding: 57423 57423 691
Width: 918
GlyphClass: 2
Flags: W
AnchorPoint: "Anchor-4" 670 0 basechar 0
AnchorPoint: "Anchor-1" 702 1087 basechar 0
AnchorPoint: "Anchor-0" 453 -460 basechar 0
LayerCount: 2
Fore
SplineSet
213 -431 m 0,0,1
 93 -431 93 -431 20 -395 c 128,-1,2
 -53 -359 -53 -359 -82 -296.5 c 128,-1,3
 -111 -234 -111 -234 -99 -153 c 0,4,5
 -86 -69 -86 -69 -35 -6.5 c 128,-1,6
 16 56 16 56 98.5 91 c 128,-1,7
 181 126 181 126 287 126 c 2,8,-1
 954 126 l 1,9,-1
 920 -81 l 1,10,-1
 279 -81 l 2,11,12
 236 -82 236 -82 200.5 -100.5 c 128,-1,13
 165 -119 165 -119 158 -162 c 0,14,15
 151 -202 151 -202 176 -221 c 128,-1,16
 201 -240 201 -240 241 -240 c 0,17,18
 297 -240 297 -240 321 -203.5 c 128,-1,19
 345 -167 345 -167 353 -121 c 2,20,-1
 393 125 l 1,21,-1
 689 125 l 1,22,-1
 659 -55 l 2,23,24
 648 -125 648 -125 617.5 -192.5 c 128,-1,25
 587 -260 587 -260 534.5 -314 c 128,-1,26
 482 -368 482 -368 402.5 -399.5 c 128,-1,27
 323 -431 323 -431 213 -431 c 0,0,1
373 0 m 1,28,-1
 553 1087 l 1,29,-1
 850 1087 l 1,30,-1
 670 0 l 1,31,-1
 373 0 l 1,28,-1
EndSplineSet
EndChar

StartChar: k
Encoding: 107 107 698
Width: 1158
GlyphClass: 2
Flags: W
AnchorPoint: "Anchor-1" 422 1490 basechar 0
AnchorPoint: "Anchor-0" 504 0 basechar 0
LayerCount: 2
Fore
SplineSet
348 316 m 1,0,-1
 407 670 l 1,1,-1
 445 670 l 1,2,-1
 882 1087 l 1,3,-1
 1228 1087 l 1,4,-1
 656 542 l 1,5,-1
 587 542 l 1,6,-1
 348 316 l 1,0,-1
26 0 m 1,7,-1
 273 1490 l 1,8,-1
 570 1490 l 1,9,-1
 323 0 l 1,10,-1
 26 0 l 1,7,-1
720 0 m 1,11,-1
 465 476 l 1,12,-1
 697 684 l 1,13,-1
 1070 0 l 1,14,-1
 720 0 l 1,11,-1
EndSplineSet
Substitution2: "'sups' Superscript in Latin lookup 39 subtable" k.sups
Substitution2: "'subs' Subscript in Latin lookup 38 subtable" k.subs
Substitution2: "'sinf' Scientific Inferiors in Latin lookup 18 subtable" k.subs
AlternateSubs2: "'aalt' Access All Alternates in Latin lookup 1 subtable" k.sups k.subs
EndChar

StartChar: uni0199
Encoding: 409 409 699
Width: 1159
GlyphClass: 2
Flags: W
AnchorPoint: "Anchor-1" 356 1087 basechar 0
AnchorPoint: "Anchor-0" 505 0 basechar 0
LayerCount: 2
Fore
SplineSet
172 876 m 1,0,-1
 207 1087 l 1,1,-1
 222 1180 l 2,2,3
 248 1337 248 1337 351.5 1417 c 128,-1,4
 455 1497 455 1497 634 1497 c 0,5,6
 683 1497 683 1497 723 1495 c 128,-1,7
 763 1493 763 1493 792 1489 c 1,8,-1
 754 1262 l 1,9,10
 734 1263 734 1263 705 1264 c 128,-1,11
 676 1265 676 1265 649 1265 c 0,12,13
 589 1265 589 1265 558 1243.5 c 128,-1,14
 527 1222 527 1222 519 1174 c 2,15,-1
 504 1087 l 1,16,-1
 469 876 l 1,17,-1
 172 876 l 1,0,-1
349 316 m 1,18,-1
 407 670 l 1,19,-1
 445 670 l 1,20,-1
 883 1087 l 1,21,-1
 1229 1087 l 1,22,-1
 657 542 l 1,23,-1
 588 542 l 1,24,-1
 349 316 l 1,18,-1
27 0 m 1,25,-1
 207 1087 l 1,26,-1
 504 1087 l 1,27,-1
 324 0 l 1,28,-1
 27 0 l 1,25,-1
721 0 m 1,29,-1
 465 476 l 1,30,-1
 698 684 l 1,31,-1
 1071 0 l 1,32,-1
 721 0 l 1,29,-1
EndSplineSet
EndChar

StartChar: kturn
Encoding: 670 670 705
Width: 1158
GlyphClass: 2
Flags: W
AnchorPoint: "Anchor-1" 666 1087 basechar 0
AnchorPoint: "Anchor-0" 655 1087 basechar 0
LayerCount: 2
Fore
SplineSet
810 771 m 1,0,-1
 751 417 l 1,1,-1
 713 417 l 1,2,-1
 277 0 l 1,3,-1
 -70 0 l 1,4,-1
 501 547 l 1,5,-1
 571 547 l 1,6,-1
 810 771 l 1,0,-1
1132 1087 m 1,7,-1
 885 -403 l 1,8,-1
 587 -403 l 1,9,-1
 834 1087 l 1,10,-1
 1132 1087 l 1,7,-1
437 1087 m 1,11,-1
 693 613 l 1,12,-1
 461 403 l 1,13,-1
 89 1087 l 1,14,-1
 437 1087 l 1,11,-1
EndSplineSet
EndChar

StartChar: k.base
Encoding: 60951 60951 706
Width: 1159
GlyphClass: 2
Flags: W
AnchorPoint: "Anchor-1" 355 1087 basechar 0
AnchorPoint: "Anchor-0" 504 0 basechar 0
LayerCount: 2
Fore
SplineSet
349 316 m 1,0,-1
 408 670 l 1,1,-1
 446 670 l 1,2,-1
 882 1087 l 1,3,-1
 1229 1087 l 1,4,-1
 657 542 l 1,5,-1
 588 542 l 1,6,-1
 349 316 l 1,0,-1
27 0 m 1,7,-1
 207 1087 l 1,8,-1
 504 1087 l 1,9,-1
 324 0 l 1,10,-1
 27 0 l 1,7,-1
721 0 m 1,11,-1
 466 476 l 1,12,-1
 697 684 l 1,13,-1
 1070 0 l 1,14,-1
 721 0 l 1,11,-1
EndSplineSet
EndChar

StartChar: l
Encoding: 1114124 -1 707
Width: 530
GlyphClass: 2
Flags: W
AnchorPoint: "Anchor-1" 422 1490 basechar 0
AnchorPoint: "Anchor-0" 174 0 basechar 0
LayerCount: 2
Fore
SplineSet
570 1490 m 1,0,-1
 323 0 l 1,1,-1
 26 0 l 1,2,-1
 273 1490 l 1,3,-1
 570 1490 l 1,0,-1
EndSplineSet
Substitution2: "'smcp' Lowercase to Small Capitals in Latin lookup 68 subtable" l.sc
Substitution2: "'c2sc' Capitals to Small Capitals in Latin lookup 67 subtable" l.sc
Substitution2: "'cv05' Character Variants 05 in Latin lookup 59 subtable" l.ss02
Substitution2: "'ss04' Style Set 4 in Latin lookup 50 subtable" l.ss02
Substitution2: "'ss02' Style Set 2 in Latin lookup 48 subtable" l.ss02
Substitution2: "'salt' Stylistic Alternatives in Latin lookup 46 subtable" l.ss02
Substitution2: "'sups' Superscript in Latin lookup 39 subtable" l.sups
Substitution2: "'subs' Subscript in Latin lookup 38 subtable" l.subs
Substitution2: "'sinf' Scientific Inferiors in Latin lookup 18 subtable" l.subs
AlternateSubs2: "'aalt' Access All Alternates in Latin lookup 1 subtable" l.sc l.sups l.subs
EndChar

StartChar: lrthook
Encoding: 621 621 711
Width: 530
GlyphClass: 2
Flags: W
AnchorPoint: "Anchor-1" 422 1490 basechar 0
AnchorPoint: "Anchor-0" 174 0 basechar 0
LayerCount: 2
Fore
SplineSet
311 -426 m 0,0,1
 134 -426 134 -426 58 -346 c 128,-1,2
 -18 -266 -18 -266 9 -108 c 2,3,-1
 27 0 l 1,4,-1
 323 0 l 1,5,-1
 306 -102 l 2,6,7
 299 -150 299 -150 321 -172 c 128,-1,8
 343 -194 343 -194 404 -194 c 0,9,10
 431 -194 431 -194 459.5 -193 c 128,-1,11
 488 -192 488 -192 509 -191 c 1,12,-1
 471 -417 l 1,13,14
 441 -422 441 -422 400 -424 c 128,-1,15
 359 -426 359 -426 311 -426 c 0,0,1
570 1490 m 1,16,-1
 323 0 l 1,17,-1
 26 0 l 1,18,-1
 273 1490 l 1,19,-1
 570 1490 l 1,16,-1
EndSplineSet
EndChar

StartChar: uni026C
Encoding: 1114128 -1 712
Width: 993
Flags: W
LayerCount: 2
Fore
SplineSet
985 555 m 1,0,-1
 357 555 l 2,1,2
 252 555 252 555 183.5 590 c 128,-1,3
 115 625 115 625 87 687.5 c 128,-1,4
 59 750 59 750 72 832 c 256,5,6
 85 914 85 914 136.5 981.5 c 128,-1,7
 188 1049 188 1049 275 1090.5 c 128,-1,8
 362 1132 362 1132 482 1132 c 0,9,10
 589 1132 589 1132 657 1100 c 128,-1,11
 725 1068 725 1068 760 1013 c 128,-1,12
 795 958 795 958 803 886.5 c 128,-1,13
 811 815 811 815 799 737 c 2,14,-1
 748 430 l 1,15,-1
 450 430 l 1,16,-1
 511 807 l 2,17,18
 520 856 520 856 504.5 887.5 c 128,-1,19
 489 919 489 919 441 918 c 0,20,21
 414 919 414 919 390 907 c 128,-1,22
 366 895 366 895 351 877 c 128,-1,23
 336 859 336 859 332 837 c 0,24,25
 327 808 327 808 348 784 c 128,-1,26
 369 760 369 760 417 760 c 2,27,-1
 1018 760 l 1,28,-1
 985 555 l 1,0,-1
924 1490 m 1,29,-1
 677 0 l 1,30,-1
 379 0 l 1,31,-1
 625 1490 l 1,32,-1
 924 1490 l 1,29,-1
EndSplineSet
Substitution2: "'cv05' Character Variants 05 in Latin lookup 59 subtable" uni026C.ss02
Substitution2: "'ss04' Style Set 4 in Latin lookup 50 subtable" uni026C.ss02
Substitution2: "'ss02' Style Set 2 in Latin lookup 48 subtable" uni026C.ss02
Substitution2: "'salt' Stylistic Alternatives in Latin lookup 46 subtable" uni026C.ss02
EndChar

StartChar: uni0234
Encoding: 564 564 713
Width: 850
GlyphClass: 2
Flags: W
AnchorPoint: "Anchor-1" 422 1490 basechar 0
AnchorPoint: "Anchor-0" 174 0 basechar 0
LayerCount: 2
Fore
SplineSet
357 -418 m 0,0,1
 216 -418 216 -418 135.5 -372.5 c 128,-1,2
 55 -327 55 -327 27 -245 c 128,-1,3
 -1 -163 -1 -163 17 -53 c 2,4,-1
 62 215 l 1,5,-1
 359 215 l 1,6,-1
 303 -121 l 2,7,8
 294 -176 294 -176 321.5 -204 c 128,-1,9
 349 -232 349 -232 394 -232 c 0,10,11
 435 -232 435 -232 466 -209 c 128,-1,12
 497 -186 497 -186 504 -149 c 0,13,14
 509 -112 509 -112 489 -88 c 128,-1,15
 469 -64 469 -64 420 -61 c 0,16,17
 390 -58 390 -58 356 -66.5 c 128,-1,18
 322 -75 322 -75 278.5 -98 c 128,-1,19
 235 -121 235 -121 172 -163 c 2,20,-1
 -166 -408 l 1,21,-1
 -279 -234 l 1,22,-1
 47 -2 l 2,23,24
 131 59 131 59 234 99 c 128,-1,25
 337 139 337 139 441 139 c 0,26,27
 611 139 611 139 696.5 55 c 128,-1,28
 782 -29 782 -29 761 -157 c 0,29,30
 741 -280 741 -280 636 -349 c 128,-1,31
 531 -418 531 -418 357 -418 c 0,0,1
570 1490 m 1,32,-1
 323 0 l 1,33,-1
 26 0 l 1,34,-1
 273 1490 l 1,35,-1
 570 1490 l 1,32,-1
EndSplineSet
EndChar

StartChar: l.ss02
Encoding: 57424 57424 722
AltUni2: 00006c.ffffffff.0
Width: 596
GlyphClass: 2
Flags: W
AnchorPoint: "Anchor-1" 422 1490 basechar 0
AnchorPoint: "Anchor-0" 234 0 basechar 0
LayerCount: 2
Fore
SplineSet
363 -3 m 0,0,1
 187 -3 187 -3 118 67 c 128,-1,2
 49 137 49 137 75 288 c 2,3,-1
 274 1490 l 1,4,-1
 571 1490 l 1,5,-1
 377 324 l 2,6,7
 368 272 368 272 384 250 c 128,-1,8
 400 228 400 228 448 228 c 0,9,10
 464 228 464 228 477.5 229 c 128,-1,11
 491 230 491 230 500 232 c 1,12,-1
 486 9 l 1,13,14
 464 5 464 5 432 1 c 128,-1,15
 400 -3 400 -3 363 -3 c 0,0,1
EndSplineSet
EndChar

StartChar: uni026C.ss02
Encoding: 57428 57428 726
AltUni2: 00026c.ffffffff.0
Width: 980
GlyphClass: 2
Flags: W
AnchorPoint: "Anchor-1" 774 1490 basechar 0
AnchorPoint: "Anchor-0" 586 0 basechar 0
LayerCount: 2
Fore
SplineSet
383 561 m 2,0,1
 215 561 215 561 132.5 645 c 128,-1,2
 50 729 50 729 73 868 c 0,3,4
 88 956 88 956 136 1023 c 128,-1,5
 184 1090 184 1090 255 1128.5 c 128,-1,6
 326 1167 326 1167 407 1167 c 0,7,8
 505 1167 505 1167 553 1113 c 128,-1,9
 601 1059 601 1059 610.5 970 c 128,-1,10
 620 881 620 881 602 773 c 2,11,-1
 592 713 l 1,12,-1
 496 713 l 1,13,-1
 517 841 l 2,14,15
 525 886 525 886 502.5 919.5 c 128,-1,16
 480 953 480 953 429 953 c 0,17,18
 391 953 391 953 363.5 929 c 128,-1,19
 336 905 336 905 330 868 c 0,20,21
 324 833 324 833 347 806 c 128,-1,22
 370 779 370 779 415 779 c 2,23,-1
 972 784 l 1,24,-1
 936 561 l 1,25,-1
 383 561 l 2,0,1
715 -3 m 0,26,27
 539 -3 539 -3 470 67 c 128,-1,28
 401 137 401 137 426 288 c 2,29,-1
 626 1490 l 1,30,-1
 923 1490 l 1,31,-1
 728 324 l 2,32,33
 720 272 720 272 735.5 250 c 128,-1,34
 751 228 751 228 800 228 c 0,35,36
 816 228 816 228 829 229 c 128,-1,37
 842 230 842 230 851 232 c 1,38,-1
 838 9 l 1,39,40
 815 5 815 5 783 1 c 128,-1,41
 751 -3 751 -3 715 -3 c 0,26,27
EndSplineSet
EndChar

StartChar: l.sc
Encoding: 60952 60952 736
Width: 838
GlyphClass: 2
Flags: W
AnchorPoint: "Anchor-1" 304 1087 basechar 0
AnchorPoint: "Anchor-0" 345 0 basechar 0
LayerCount: 2
Fore
SplineSet
-23 0 m 1,0,-1
 157 1087 l 1,1,-1
 454 1087 l 1,2,-1
 313 246 l 1,3,-1
 769 246 l 1,4,-1
 729 0 l 1,5,-1
 -23 0 l 1,0,-1
EndSplineSet
EndChar

StartChar: m
Encoding: 109 109 737
Width: 1839
GlyphClass: 2
Flags: W
AnchorPoint: "Anchor-1" 1010 1087 basechar 0
AnchorPoint: "Anchor-0" 830 0 basechar 0
LayerCount: 2
Fore
SplineSet
26 0 m 1,0,-1
 206 1087 l 1,1,-1
 488 1087 l 1,2,-1
 453 829 l 1,3,-1
 432 838 l 1,4,5
 474 935 474 935 533.5 993.5 c 128,-1,6
 593 1052 593 1052 661.5 1079 c 128,-1,7
 730 1106 730 1106 800 1106 c 0,8,9
 885 1106 885 1106 946 1070.5 c 128,-1,10
 1007 1035 1007 1035 1041 969.5 c 128,-1,11
 1075 904 1075 904 1077 810 c 1,12,-1
 1046 830 l 1,13,14
 1084 924 1084 924 1146 985.5 c 128,-1,15
 1208 1047 1208 1047 1285.5 1076.5 c 128,-1,16
 1363 1106 1363 1106 1445 1106 c 0,17,18
 1551 1106 1551 1106 1627.5 1059.5 c 128,-1,19
 1704 1013 1704 1013 1738 926 c 128,-1,20
 1772 839 1772 839 1752 717 c 2,21,-1
 1633 0 l 1,22,-1
 1337 0 l 1,23,-1
 1449 681 l 2,24,25
 1460 745 1460 745 1445 784 c 128,-1,26
 1430 823 1430 823 1396.5 841.5 c 128,-1,27
 1363 860 1363 860 1317 860 c 0,28,29
 1256 860 1256 860 1205.5 832.5 c 128,-1,30
 1155 805 1155 805 1123.5 758 c 128,-1,31
 1092 711 1092 711 1082 652 c 2,32,-1
 974 0 l 1,33,-1
 687 0 l 1,34,-1
 801 690 l 2,35,36
 815 773 815 773 778 816.5 c 128,-1,37
 741 860 741 860 670 860 c 0,38,39
 614 860 614 860 563 833 c 128,-1,40
 512 806 512 806 476.5 757 c 128,-1,41
 441 708 441 708 430 640 c 2,42,-1
 323 0 l 1,43,-1
 26 0 l 1,0,-1
EndSplineSet
Substitution2: "'smcp' Lowercase to Small Capitals in Latin lookup 68 subtable" m.sc
Substitution2: "'c2sc' Capitals to Small Capitals in Latin lookup 67 subtable" m.sc
Substitution2: "'sups' Superscript in Latin lookup 39 subtable" m.sups
Substitution2: "'subs' Subscript in Latin lookup 38 subtable" m.subs
Substitution2: "'sinf' Scientific Inferiors in Latin lookup 18 subtable" m.subs
AlternateSubs2: "'aalt' Access All Alternates in Latin lookup 1 subtable" m.sups m.subs m.sc
EndChar

StartChar: uni0271
Encoding: 625 625 738
Width: 1839
GlyphClass: 2
Flags: W
AnchorPoint: "Anchor-1" 1010 1087 basechar 0
AnchorPoint: "Anchor-0" 830 0 basechar 0
LayerCount: 2
Fore
SplineSet
1211 -426 m 0,0,1
 1162 -426 1162 -426 1120.5 -424 c 128,-1,2
 1079 -422 1079 -422 1051 -417 c 1,3,-1
 1088 -191 l 1,4,5
 1107 -192 1107 -192 1136.5 -193 c 128,-1,6
 1166 -194 1166 -194 1192 -194 c 0,7,8
 1254 -194 1254 -194 1282.5 -172 c 128,-1,9
 1311 -150 1311 -150 1319 -102 c 2,10,-1
 1337 0 l 1,11,-1
 1633 0 l 1,12,-1
 1616 -108 l 2,13,14
 1589 -266 1589 -266 1488.5 -346 c 128,-1,15
 1388 -426 1388 -426 1211 -426 c 0,0,1
26 0 m 1,16,-1
 206 1087 l 1,17,-1
 488 1087 l 1,18,-1
 453 829 l 1,19,-1
 432 838 l 1,20,21
 474 935 474 935 533.5 993.5 c 128,-1,22
 593 1052 593 1052 661.5 1079 c 128,-1,23
 730 1106 730 1106 800 1106 c 0,24,25
 885 1106 885 1106 946 1070.5 c 128,-1,26
 1007 1035 1007 1035 1041 969.5 c 128,-1,27
 1075 904 1075 904 1077 810 c 1,28,-1
 1046 830 l 1,29,30
 1084 924 1084 924 1146 985.5 c 128,-1,31
 1208 1047 1208 1047 1285.5 1076.5 c 128,-1,32
 1363 1106 1363 1106 1445 1106 c 0,33,34
 1551 1106 1551 1106 1627.5 1059.5 c 128,-1,35
 1704 1013 1704 1013 1738 926 c 128,-1,36
 1772 839 1772 839 1752 717 c 2,37,-1
 1633 0 l 1,38,-1
 1337 0 l 1,39,-1
 1449 681 l 2,40,41
 1460 745 1460 745 1445 784 c 128,-1,42
 1430 823 1430 823 1396.5 841.5 c 128,-1,43
 1363 860 1363 860 1317 860 c 0,44,45
 1256 860 1256 860 1205.5 832.5 c 128,-1,46
 1155 805 1155 805 1123.5 758 c 128,-1,47
 1092 711 1092 711 1082 652 c 2,48,-1
 974 0 l 1,49,-1
 687 0 l 1,50,-1
 801 690 l 2,51,52
 815 773 815 773 778 816.5 c 128,-1,53
 741 860 741 860 670 860 c 0,54,55
 614 860 614 860 563 833 c 128,-1,56
 512 806 512 806 476.5 757 c 128,-1,57
 441 708 441 708 430 640 c 2,58,-1
 323 0 l 1,59,-1
 26 0 l 1,16,-1
EndSplineSet
EndChar

StartChar: mturn
Encoding: 623 623 739
Width: 1839
GlyphClass: 2
Flags: W
AnchorPoint: "Anchor-1" 1009 1087 basechar 0
AnchorPoint: "Anchor-0" 829 0 basechar 0
LayerCount: 2
Fore
SplineSet
1813 1087 m 1,0,-1
 1633 0 l 1,1,-1
 1353 0 l 1,2,-1
 1386 258 l 1,3,-1
 1408 249 l 1,4,5
 1366 154 1366 154 1307 94.5 c 128,-1,6
 1248 35 1248 35 1179.5 8 c 128,-1,7
 1111 -19 1111 -19 1040 -19 c 0,8,9
 955 -19 955 -19 894 16.5 c 128,-1,10
 833 52 833 52 799.5 118.5 c 128,-1,11
 766 185 766 185 763 277 c 1,12,-1
 793 258 l 1,13,14
 756 164 756 164 693.5 102.5 c 128,-1,15
 631 41 631 41 554 11 c 128,-1,16
 477 -19 477 -19 395 -19 c 0,17,18
 289 -19 289 -19 213 28 c 128,-1,19
 137 75 137 75 102.5 162.5 c 128,-1,20
 68 250 68 250 88 370 c 2,21,-1
 206 1087 l 1,22,-1
 504 1087 l 1,23,-1
 391 406 l 2,24,25
 380 343 380 343 395 304 c 128,-1,26
 410 265 410 265 443.5 246 c 128,-1,27
 477 227 477 227 523 227 c 0,28,29
 585 227 585 227 634.5 255 c 128,-1,30
 684 283 684 283 716.5 330 c 128,-1,31
 749 377 749 377 759 435 c 2,32,-1
 867 1087 l 1,33,-1
 1154 1087 l 1,34,-1
 1039 399 l 2,35,36
 1026 315 1026 315 1062.5 271 c 128,-1,37
 1099 227 1099 227 1169 227 c 0,38,39
 1227 227 1227 227 1277.5 254.5 c 128,-1,40
 1328 282 1328 282 1364 331 c 128,-1,41
 1400 380 1400 380 1411 448 c 2,42,-1
 1516 1087 l 1,43,-1
 1813 1087 l 1,0,-1
EndSplineSet
EndChar

StartChar: mturndescend
Encoding: 624 624 740
Width: 1839
GlyphClass: 2
Flags: W
AnchorPoint: "Anchor-1" 1009 1087 basechar 0
AnchorPoint: "Anchor-0" 829 0 basechar 0
LayerCount: 2
Fore
SplineSet
1277 -418 m 1,0,-1
 1346 0 l 1,1,-1
 1630 0 l 1,2,-1
 1561 -418 l 1,3,-1
 1277 -418 l 1,0,-1
1813 1087 m 1,4,-1
 1633 0 l 1,5,-1
 1353 0 l 1,6,-1
 1386 258 l 1,7,-1
 1408 249 l 1,8,9
 1366 154 1366 154 1307 94.5 c 128,-1,10
 1248 35 1248 35 1179.5 8 c 128,-1,11
 1111 -19 1111 -19 1040 -19 c 0,12,13
 955 -19 955 -19 894 16.5 c 128,-1,14
 833 52 833 52 799.5 118.5 c 128,-1,15
 766 185 766 185 763 277 c 1,16,-1
 793 258 l 1,17,18
 756 164 756 164 693.5 102.5 c 128,-1,19
 631 41 631 41 554 11 c 128,-1,20
 477 -19 477 -19 395 -19 c 0,21,22
 289 -19 289 -19 213 28 c 128,-1,23
 137 75 137 75 102.5 162.5 c 128,-1,24
 68 250 68 250 88 370 c 2,25,-1
 206 1087 l 1,26,-1
 504 1087 l 1,27,-1
 391 406 l 2,28,29
 380 343 380 343 395 304 c 128,-1,30
 410 265 410 265 443.5 246 c 128,-1,31
 477 227 477 227 523 227 c 0,32,33
 585 227 585 227 634.5 255 c 128,-1,34
 684 283 684 283 716.5 330 c 128,-1,35
 749 377 749 377 759 435 c 2,36,-1
 867 1087 l 1,37,-1
 1154 1087 l 1,38,-1
 1039 399 l 2,39,40
 1026 315 1026 315 1062.5 271 c 128,-1,41
 1099 227 1099 227 1169 227 c 0,42,43
 1227 227 1227 227 1277.5 254.5 c 128,-1,44
 1328 282 1328 282 1364 331 c 128,-1,45
 1400 380 1400 380 1411 448 c 2,46,-1
 1516 1087 l 1,47,-1
 1813 1087 l 1,4,-1
EndSplineSet
EndChar

StartChar: n
Encoding: 110 110 744
Width: 1238
GlyphClass: 2
Flags: W
AnchorPoint: "Anchor-1" 709 1087 basechar 0
AnchorPoint: "Anchor-0" 529 0 basechar 0
LayerCount: 2
Fore
SplineSet
424 607 m 2,0,-1
 323 0 l 1,1,-1
 26 0 l 1,2,-1
 206 1087 l 1,3,-1
 493 1087 l 1,4,-1
 451 811 l 1,5,-1
 414 819 l 1,6,7
 484 959 484 959 583.5 1032 c 128,-1,8
 683 1105 683 1105 820 1105 c 0,9,10
 939 1105 939 1105 1019 1053 c 128,-1,11
 1099 1001 1099 1001 1132.5 905 c 128,-1,12
 1166 809 1166 809 1144 676 c 2,13,-1
 1032 0 l 1,14,-1
 734 0 l 1,15,-1
 840 644 l 2,16,17
 858 749 858 749 815 801 c 128,-1,18
 772 853 772 853 684 853 c 0,19,20
 618 853 618 853 563.5 824 c 128,-1,21
 509 795 509 795 473 740.5 c 128,-1,22
 437 686 437 686 424 607 c 2,0,-1
EndSplineSet
Substitution2: "'smcp' Lowercase to Small Capitals in Latin lookup 68 subtable" n.sc
Substitution2: "'c2sc' Capitals to Small Capitals in Latin lookup 67 subtable" n.sc
Substitution2: "'sups' Superscript in Latin lookup 39 subtable" n.sups
Substitution2: "'subs' Subscript in Latin lookup 38 subtable" n.subs
Substitution2: "'numr' Numerators in Latin lookup 19 subtable" n.numr
Substitution2: "'sinf' Scientific Inferiors in Latin lookup 18 subtable" n.subs
AlternateSubs2: "'aalt' Access All Alternates in Latin lookup 1 subtable" n.sc n.numr n.sups n.subs
EndChar

StartChar: nrthook
Encoding: 627 627 746
Width: 1238
GlyphClass: 2
Flags: W
AnchorPoint: "Anchor-1" 709 1087 basechar 0
AnchorPoint: "Anchor-0" 529 0 basechar 0
LayerCount: 2
Fore
SplineSet
1018 -426 m 0,0,1
 841 -426 841 -426 766 -346 c 128,-1,2
 691 -266 691 -266 716 -108 c 2,3,-1
 734 0 l 1,4,-1
 1032 0 l 1,5,-1
 1014 -102 l 2,6,7
 1006 -150 1006 -150 1028.5 -172 c 128,-1,8
 1051 -194 1051 -194 1112 -194 c 0,9,10
 1138 -194 1138 -194 1167 -193 c 128,-1,11
 1196 -192 1196 -192 1216 -191 c 1,12,-1
 1179 -417 l 1,13,14
 1149 -422 1149 -422 1108 -424 c 128,-1,15
 1067 -426 1067 -426 1018 -426 c 0,0,1
424 607 m 2,16,-1
 323 0 l 1,17,-1
 26 0 l 1,18,-1
 206 1087 l 1,19,-1
 493 1087 l 1,20,-1
 451 811 l 1,21,-1
 414 819 l 1,22,23
 484 959 484 959 583.5 1032 c 128,-1,24
 683 1105 683 1105 820 1105 c 0,25,26
 939 1105 939 1105 1019 1053 c 128,-1,27
 1099 1001 1099 1001 1132.5 905 c 128,-1,28
 1166 809 1166 809 1144 676 c 2,29,-1
 1032 0 l 1,30,-1
 734 0 l 1,31,-1
 840 644 l 2,32,33
 858 749 858 749 815 801 c 128,-1,34
 772 853 772 853 684 853 c 0,35,36
 618 853 618 853 563.5 824 c 128,-1,37
 509 795 509 795 473 740.5 c 128,-1,38
 437 686 437 686 424 607 c 2,16,-1
EndSplineSet
EndChar

StartChar: eng
Encoding: 331 331 747
Width: 1238
GlyphClass: 2
Flags: W
AnchorPoint: "Anchor-1" 709 1087 basechar 0
AnchorPoint: "Anchor-0" 529 0 basechar 0
LayerCount: 2
Fore
SplineSet
456 -417 m 1,0,-1
 495 -180 l 1,1,2
 518 -182 518 -182 544 -183 c 128,-1,3
 570 -184 570 -184 593 -184 c 0,4,5
 654 -184 654 -184 682.5 -162.5 c 128,-1,6
 711 -141 711 -141 719 -92 c 2,7,-1
 734 0 l 1,8,-1
 1032 0 l 1,9,-1
 1013 -108 l 2,10,11
 987 -266 987 -266 884.5 -346 c 128,-1,12
 782 -426 782 -426 605 -426 c 0,13,14
 556 -426 556 -426 520.5 -424 c 128,-1,15
 485 -422 485 -422 456 -417 c 1,0,-1
424 607 m 2,16,-1
 323 0 l 1,17,-1
 26 0 l 1,18,-1
 206 1087 l 1,19,-1
 493 1087 l 1,20,-1
 451 811 l 1,21,-1
 414 819 l 1,22,23
 484 959 484 959 583.5 1032 c 128,-1,24
 683 1105 683 1105 820 1105 c 0,25,26
 939 1105 939 1105 1019 1053 c 128,-1,27
 1099 1001 1099 1001 1132.5 905 c 128,-1,28
 1166 809 1166 809 1144 676 c 2,29,-1
 1032 0 l 1,30,-1
 734 0 l 1,31,-1
 840 644 l 2,32,33
 858 749 858 749 815 801 c 128,-1,34
 772 853 772 853 684 853 c 0,35,36
 618 853 618 853 563.5 824 c 128,-1,37
 509 795 509 795 473 740.5 c 128,-1,38
 437 686 437 686 424 607 c 2,16,-1
EndSplineSet
EndChar

StartChar: uni0235
Encoding: 565 565 748
Width: 1558
GlyphClass: 2
Flags: W
AnchorPoint: "Anchor-1" 709 1087 basechar 0
AnchorPoint: "Anchor-0" 529 0 basechar 0
LayerCount: 2
Fore
SplineSet
1065 -418 m 0,0,1
 924 -418 924 -418 843 -372.5 c 128,-1,2
 762 -327 762 -327 735 -245 c 128,-1,3
 708 -163 708 -163 726 -53 c 2,4,-1
 769 215 l 1,5,-1
 1067 215 l 1,6,-1
 1011 -121 l 2,7,8
 1002 -176 1002 -176 1029.5 -204 c 128,-1,9
 1057 -232 1057 -232 1103 -232 c 0,10,11
 1144 -232 1144 -232 1174.5 -209 c 128,-1,12
 1205 -186 1205 -186 1211 -149 c 0,13,14
 1218 -112 1218 -112 1197 -88 c 128,-1,15
 1176 -64 1176 -64 1128 -61 c 0,16,17
 1097 -58 1097 -58 1063 -66.5 c 128,-1,18
 1029 -75 1029 -75 985.5 -98 c 128,-1,19
 942 -121 942 -121 880 -163 c 2,20,-1
 541 -408 l 1,21,-1
 429 -234 l 1,22,-1
 756 -2 l 2,23,24
 838 59 838 59 941 99 c 128,-1,25
 1044 139 1044 139 1150 139 c 0,26,27
 1318 139 1318 139 1404.5 55 c 128,-1,28
 1491 -29 1491 -29 1469 -157 c 0,29,30
 1449 -280 1449 -280 1344 -349 c 128,-1,31
 1239 -418 1239 -418 1065 -418 c 0,0,1
424 607 m 2,32,-1
 323 0 l 1,33,-1
 26 0 l 1,34,-1
 206 1087 l 1,35,-1
 493 1087 l 1,36,-1
 451 811 l 1,37,-1
 414 819 l 1,38,39
 484 959 484 959 583.5 1032 c 128,-1,40
 683 1105 683 1105 820 1105 c 0,41,42
 939 1105 939 1105 1019 1053 c 128,-1,43
 1099 1001 1099 1001 1132.5 905 c 128,-1,44
 1166 809 1166 809 1144 676 c 2,45,-1
 1032 0 l 1,46,-1
 734 0 l 1,47,-1
 840 644 l 2,48,49
 858 749 858 749 815 801 c 128,-1,50
 772 853 772 853 684 853 c 0,51,52
 618 853 618 853 563.5 824 c 128,-1,53
 509 795 509 795 473 740.5 c 128,-1,54
 437 686 437 686 424 607 c 2,32,-1
EndSplineSet
EndChar

StartChar: nlfthook
Encoding: 626 626 749
Width: 1238
GlyphClass: 2
Flags: W
AnchorPoint: "Anchor-1" 709 1087 basechar 0
AnchorPoint: "Anchor-0" 529 0 basechar 0
LayerCount: 2
Fore
SplineSet
-100 -426 m 0,0,1
 -148 -426 -148 -426 -189.5 -424 c 128,-1,2
 -231 -422 -231 -422 -260 -417 c 1,3,-1
 -222 -191 l 1,4,5
 -202 -192 -202 -192 -173.5 -193 c 128,-1,6
 -145 -194 -145 -194 -118 -194 c 0,7,8
 -56 -194 -56 -194 -27 -172 c 128,-1,9
 2 -150 2 -150 9 -102 c 2,10,-1
 26 0 l 1,11,-1
 324 0 l 1,12,-1
 305 -108 l 2,13,14
 279 -266 279 -266 178.5 -346 c 128,-1,15
 78 -426 78 -426 -100 -426 c 0,0,1
424 607 m 2,16,-1
 323 0 l 1,17,-1
 26 0 l 1,18,-1
 206 1087 l 1,19,-1
 493 1087 l 1,20,-1
 451 811 l 1,21,-1
 414 819 l 1,22,23
 484 959 484 959 583.5 1032 c 128,-1,24
 683 1105 683 1105 820 1105 c 0,25,26
 939 1105 939 1105 1019 1053 c 128,-1,27
 1099 1001 1099 1001 1132.5 905 c 128,-1,28
 1166 809 1166 809 1144 676 c 2,29,-1
 1032 0 l 1,30,-1
 734 0 l 1,31,-1
 840 644 l 2,32,33
 858 749 858 749 815 801 c 128,-1,34
 772 853 772 853 684 853 c 0,35,36
 618 853 618 853 563.5 824 c 128,-1,37
 509 795 509 795 473 740.5 c 128,-1,38
 437 686 437 686 424 607 c 2,16,-1
EndSplineSet
EndChar

StartChar: n.sc
Encoding: 60953 60953 760
Width: 1279
GlyphClass: 2
Flags: W
AnchorPoint: "Anchor-1" 730 1087 basechar 0
AnchorPoint: "Anchor-0" 550 0 basechar 0
LayerCount: 2
Fore
SplineSet
27 0 m 1,0,-1
 207 1087 l 1,1,-1
 507 1087 l 1,2,-1
 732 629 l 2,3,4
 780 532 780 532 814.5 447.5 c 128,-1,5
 849 363 849 363 878 285 c 1,6,-1
 836 285 l 1,7,8
 845 342 845 342 853 396 c 128,-1,9
 861 450 861 450 869.5 507 c 128,-1,10
 878 564 878 564 889 629 c 2,11,-1
 965 1087 l 1,12,-1
 1253 1087 l 1,13,-1
 1073 0 l 1,14,-1
 775 0 l 1,15,-1
 549 460 l 2,16,17
 502 556 502 556 467.5 640 c 128,-1,18
 433 724 433 724 403 804 c 1,19,-1
 443 804 l 1,20,21
 436 749 436 749 428 695 c 128,-1,22
 420 641 420 641 411 583.5 c 128,-1,23
 402 526 402 526 390 460 c 2,24,-1
 315 0 l 1,25,-1
 27 0 l 1,0,-1
EndSplineSet
EndChar

StartChar: o
Encoding: 111 111 761
Width: 1222
GlyphClass: 2
Flags: W
AnchorPoint: "Anchor-4" 1153 541 basechar 0
AnchorPoint: "Anchor-1" 702 1087 basechar 0
AnchorPoint: "Anchor-0" 522 0 basechar 0
LayerCount: 2
Fore
SplineSet
534 -23 m 0,0,1
 386 -23 386 -23 281 34 c 128,-1,2
 176 91 176 91 119 194.5 c 128,-1,3
 62 298 62 298 62 437 c 0,4,5
 62 571 62 571 106 692 c 128,-1,6
 150 813 150 813 232 906 c 128,-1,7
 314 999 314 999 430 1052.5 c 128,-1,8
 546 1106 546 1106 688 1106 c 0,9,10
 836 1106 836 1106 941.5 1049 c 128,-1,11
 1047 992 1047 992 1104 888.5 c 128,-1,12
 1161 785 1161 785 1161 645 c 0,13,14
 1161 513 1161 513 1118 393 c 128,-1,15
 1075 273 1075 273 993 179 c 128,-1,16
 911 85 911 85 795.5 31 c 128,-1,17
 680 -23 680 -23 534 -23 c 0,0,1
547 216 m 0,18,19
 627 216 627 216 686.5 256 c 128,-1,20
 746 296 746 296 785.5 361.5 c 128,-1,21
 825 427 825 427 844 503.5 c 128,-1,22
 863 580 863 580 863 651 c 0,23,24
 863 719 863 719 840.5 767.5 c 128,-1,25
 818 816 818 816 776 842.5 c 128,-1,26
 734 869 734 869 675 869 c 0,27,28
 596 869 596 869 536.5 828.5 c 128,-1,29
 477 788 477 788 438 723 c 128,-1,30
 399 658 399 658 379.5 581.5 c 128,-1,31
 360 505 360 505 360 433 c 0,32,33
 360 332 360 332 409 274 c 128,-1,34
 458 216 458 216 547 216 c 0,18,19
EndSplineSet
Substitution2: "Single Substitution lookup 44 subtable" ordmasculine
Substitution2: "'sups' Superscript in Latin lookup 39 subtable" o.sups
Substitution2: "'subs' Subscript in Latin lookup 38 subtable" o.subs
Substitution2: "'sinf' Scientific Inferiors in Latin lookup 18 subtable" o.subs
AlternateSubs2: "'aalt' Access All Alternates in Latin lookup 1 subtable" ordmasculine o.sups o.subs
EndChar

StartChar: ohorn
Encoding: 417 417 765
Width: 1221
GlyphClass: 2
Flags: W
AnchorPoint: "Anchor-4" 1153 541 basechar 0
AnchorPoint: "Anchor-1" 702 1087 basechar 0
AnchorPoint: "Anchor-0" 522 0 basechar 0
LayerCount: 2
Fore
SplineSet
671 916 m 1,0,-1
 703 1106 l 1,1,2
 744 1106 744 1106 778 1103.5 c 128,-1,3
 812 1101 812 1101 844.5 1097.5 c 128,-1,4
 877 1094 877 1094 911.5 1091.5 c 128,-1,5
 946 1089 946 1089 986 1089 c 0,6,7
 1015 1089 1015 1089 1018 1114 c 2,8,-1
 1052 1311 l 1,9,-1
 1309 1311 l 1,10,-1
 1273 1105 l 2,11,12
 1263 1037 1263 1037 1225.5 995 c 128,-1,13
 1188 953 1188 953 1133.5 933 c 128,-1,14
 1079 913 1079 913 1014 913 c 0,15,16
 929 913 929 913 843 914.5 c 128,-1,17
 757 916 757 916 671 916 c 1,0,-1
534 -23 m 0,18,19
 386 -23 386 -23 281 34 c 128,-1,20
 176 91 176 91 119 194.5 c 128,-1,21
 62 298 62 298 62 437 c 0,22,23
 62 571 62 571 106 692 c 128,-1,24
 150 813 150 813 232 906 c 128,-1,25
 314 999 314 999 430 1052.5 c 128,-1,26
 546 1106 546 1106 688 1106 c 0,27,28
 836 1106 836 1106 941.5 1049 c 128,-1,29
 1047 992 1047 992 1104 888.5 c 128,-1,30
 1161 785 1161 785 1161 645 c 0,31,32
 1161 513 1161 513 1118 393 c 128,-1,33
 1075 273 1075 273 993 179 c 128,-1,34
 911 85 911 85 795.5 31 c 128,-1,35
 680 -23 680 -23 534 -23 c 0,18,19
547 216 m 0,36,37
 627 216 627 216 686.5 256 c 128,-1,38
 746 296 746 296 785.5 361.5 c 128,-1,39
 825 427 825 427 844 503.5 c 128,-1,40
 863 580 863 580 863 651 c 0,41,42
 863 719 863 719 840.5 767.5 c 128,-1,43
 818 816 818 816 776 842.5 c 128,-1,44
 734 869 734 869 675 869 c 0,45,46
 596 869 596 869 536.5 828.5 c 128,-1,47
 477 788 477 788 438 723 c 128,-1,48
 399 658 399 658 379.5 581.5 c 128,-1,49
 360 505 360 505 360 433 c 0,50,51
 360 332 360 332 409 274 c 128,-1,52
 458 216 458 216 547 216 c 0,36,37
EndSplineSet
EndChar

StartChar: uni1EE1
Encoding: 7905 7905 795
Width: 1221
GlyphClass: 2
Flags: W
AnchorPoint: "Anchor-4" 1153 541 basechar 0
AnchorPoint: "Anchor-1" 765 1497 basechar 0
AnchorPoint: "Anchor-0" 522 0 basechar 0
LayerCount: 2
Fore
SplineSet
534 -23 m 0,0,1
 386 -23 386 -23 281 34 c 128,-1,2
 176 91 176 91 119 194.5 c 128,-1,3
 62 298 62 298 62 437 c 0,4,5
 62 571 62 571 106 692 c 128,-1,6
 150 813 150 813 232 906 c 128,-1,7
 314 999 314 999 430 1052.5 c 128,-1,8
 546 1106 546 1106 688 1106 c 0,9,10
 836 1106 836 1106 941.5 1049 c 128,-1,11
 1047 992 1047 992 1104 888.5 c 128,-1,12
 1161 785 1161 785 1161 645 c 0,13,14
 1161 513 1161 513 1118 393 c 128,-1,15
 1075 273 1075 273 993 179 c 128,-1,16
 911 85 911 85 795.5 31 c 128,-1,17
 680 -23 680 -23 534 -23 c 0,0,1
547 216 m 0,18,19
 627 216 627 216 686.5 256 c 128,-1,20
 746 296 746 296 785.5 361.5 c 128,-1,21
 825 427 825 427 844 503.5 c 128,-1,22
 863 580 863 580 863 651 c 0,23,24
 863 719 863 719 840.5 767.5 c 128,-1,25
 818 816 818 816 776 842.5 c 128,-1,26
 734 869 734 869 675 869 c 0,27,28
 596 869 596 869 536.5 828.5 c 128,-1,29
 477 788 477 788 438 723 c 128,-1,30
 399 658 399 658 379.5 581.5 c 128,-1,31
 360 505 360 505 360 433 c 0,32,33
 360 332 360 332 409 274 c 128,-1,34
 458 216 458 216 547 216 c 0,18,19
671 916 m 1,35,-1
 703 1106 l 1,36,37
 744 1106 744 1106 778 1103.5 c 128,-1,38
 812 1101 812 1101 844.5 1097.5 c 128,-1,39
 877 1094 877 1094 911.5 1091.5 c 128,-1,40
 946 1089 946 1089 986 1089 c 0,41,42
 1015 1089 1015 1089 1018 1114 c 2,43,-1
 1052 1311 l 1,44,-1
 1309 1311 l 1,45,-1
 1273 1105 l 2,46,47
 1263 1037 1263 1037 1225.5 995 c 128,-1,48
 1188 953 1188 953 1133.5 933 c 128,-1,49
 1079 913 1079 913 1014 913 c 0,50,51
 929 913 929 913 843 914.5 c 128,-1,52
 757 916 757 916 671 916 c 1,35,-1
845 1273 m 0,53,54
 806 1273 806 1273 777 1286 c 128,-1,55
 748 1299 748 1299 725.5 1316 c 128,-1,56
 703 1333 703 1333 683 1346 c 128,-1,57
 663 1359 663 1359 645 1359 c 0,58,59
 619 1359 619 1359 602 1336 c 128,-1,60
 585 1313 585 1313 578 1278 c 1,61,-1
 445 1278 l 1,62,63
 465 1383 465 1383 519.5 1441 c 128,-1,64
 574 1499 574 1499 649 1499 c 0,65,66
 688 1499 688 1499 716 1485.5 c 128,-1,67
 744 1472 744 1472 766.5 1455.5 c 128,-1,68
 789 1439 789 1439 808.5 1426 c 128,-1,69
 828 1413 828 1413 849 1413 c 0,70,71
 877 1413 877 1413 892.5 1433.5 c 128,-1,72
 908 1454 908 1454 917 1494 c 1,73,-1
 1048 1494 l 1,74,75
 1028 1388 1028 1388 972.5 1330.5 c 128,-1,76
 917 1273 917 1273 845 1273 c 0,53,54
EndSplineSet
Ligature2: "'ccmp' Glyph Composition/Decomposition in Latin lookup 6 subtable" ohorn tildecomb
EndChar

StartChar: obar
Encoding: 629 629 808
Width: 1222
GlyphClass: 2
Flags: W
AnchorPoint: "Anchor-4" 1153 541 basechar 0
AnchorPoint: "Anchor-1" 702 1087 basechar 0
AnchorPoint: "Anchor-0" 522 0 basechar 0
LayerCount: 2
Fore
SplineSet
988 620 m 1,0,-1
 962 467 l 1,1,-1
 234 467 l 1,2,-1
 260 620 l 1,3,-1
 988 620 l 1,0,-1
534 -23 m 0,4,5
 386 -23 386 -23 281 34 c 128,-1,6
 176 91 176 91 119 194.5 c 128,-1,7
 62 298 62 298 62 437 c 0,8,9
 62 571 62 571 106 692 c 128,-1,10
 150 813 150 813 232 906 c 128,-1,11
 314 999 314 999 430 1052.5 c 128,-1,12
 546 1106 546 1106 688 1106 c 0,13,14
 836 1106 836 1106 941.5 1049 c 128,-1,15
 1047 992 1047 992 1104 888.5 c 128,-1,16
 1161 785 1161 785 1161 645 c 0,17,18
 1161 513 1161 513 1118 393 c 128,-1,19
 1075 273 1075 273 993 179 c 128,-1,20
 911 85 911 85 795.5 31 c 128,-1,21
 680 -23 680 -23 534 -23 c 0,4,5
547 216 m 0,22,23
 627 216 627 216 686.5 256 c 128,-1,24
 746 296 746 296 785.5 361.5 c 128,-1,25
 825 427 825 427 844 503.5 c 128,-1,26
 863 580 863 580 863 651 c 0,27,28
 863 719 863 719 840.5 767.5 c 128,-1,29
 818 816 818 816 776 842.5 c 128,-1,30
 734 869 734 869 675 869 c 0,31,32
 596 869 596 869 536.5 828.5 c 128,-1,33
 477 788 477 788 438 723 c 128,-1,34
 399 658 399 658 379.5 581.5 c 128,-1,35
 360 505 360 505 360 433 c 0,36,37
 360 332 360 332 409 274 c 128,-1,38
 458 216 458 216 547 216 c 0,22,23
EndSplineSet
EndChar

StartChar: oe.sc
Encoding: 60954 60954 812
Width: 1588
GlyphClass: 2
Flags: W
AnchorPoint: "Anchor-4" 1456 0 basechar 0
AnchorPoint: "Anchor-3" 1053 0 basechar 0
AnchorPoint: "Anchor-1" 1232 1087 basechar 0
AnchorPoint: "Anchor-0" 1052 0 basechar 0
LayerCount: 2
Fore
SplineSet
647 0 m 1,0,-1
 827 1087 l 1,1,-1
 1637 1087 l 1,2,-1
 1597 842 l 1,3,-1
 1083 842 l 1,4,-1
 1054 667 l 1,5,-1
 1527 667 l 1,6,-1
 1487 428 l 1,7,-1
 1013 428 l 1,8,-1
 983 246 l 1,9,-1
 1496 246 l 1,10,-1
 1456 0 l 1,11,-1
 647 0 l 1,0,-1
510 0 m 2,12,13
 354 0 354 0 244.5 63 c 128,-1,14
 135 126 135 126 88 247 c 128,-1,15
 41 368 41 368 70 543 c 0,16,17
 98 717 98 717 186 838 c 128,-1,18
 274 959 274 959 404 1023 c 128,-1,19
 534 1087 534 1087 691 1087 c 2,20,-1
 969 1087 l 1,21,-1
 929 845 l 1,22,-1
 659 845 l 2,23,24
 583 845 583 845 524 815 c 128,-1,25
 465 785 465 785 425.5 719 c 128,-1,26
 386 653 386 653 367 543 c 0,27,28
 350 434 350 434 366.5 368.5 c 128,-1,29
 383 303 383 303 432 273.5 c 128,-1,30
 481 244 481 244 558 244 c 2,31,-1
 828 244 l 1,32,-1
 786 0 l 1,33,-1
 510 0 l 2,12,13
EndSplineSet
EndChar

StartChar: p
Encoding: 112 112 814
Width: 1257
GlyphClass: 2
Flags: W
AnchorPoint: "Anchor-1" 761 1087 basechar 0
AnchorPoint: "Anchor-0" 106 -413 basechar 0
LayerCount: 2
Fore
SplineSet
-43 -418 m 1,0,-1
 206 1087 l 1,1,-1
 499 1087 l 1,2,-1
 471 922 l 1,3,-1
 476 922 l 1,4,5
 510 975 510 975 558.5 1016.5 c 128,-1,6
 607 1058 607 1058 670 1081.5 c 128,-1,7
 733 1105 733 1105 811 1105 c 0,8,9
 926 1105 926 1105 1012.5 1053 c 128,-1,10
 1099 1001 1099 1001 1148 902.5 c 128,-1,11
 1197 804 1197 804 1197 665 c 0,12,13
 1197 545 1197 545 1162 423.5 c 128,-1,14
 1127 302 1127 302 1058.5 201.5 c 128,-1,15
 990 101 990 101 888.5 40.5 c 128,-1,16
 787 -20 787 -20 655 -20 c 0,17,18
 570 -20 570 -20 511 8 c 128,-1,19
 452 36 452 36 414.5 80.5 c 128,-1,20
 377 125 377 125 360 178 c 1,21,-1
 353 178 l 1,22,-1
 254 -418 l 1,23,-1
 -43 -418 l 1,0,-1
578 220 m 0,24,25
 657 220 657 220 717 260.5 c 128,-1,26
 777 301 777 301 817 366 c 128,-1,27
 857 431 857 431 876.5 506.5 c 128,-1,28
 896 582 896 582 896 653 c 0,29,30
 896 753 896 753 851 809.5 c 128,-1,31
 806 866 806 866 717 866 c 0,32,33
 639 866 639 866 578.5 828 c 128,-1,34
 518 790 518 790 476.5 727 c 128,-1,35
 435 664 435 664 413.5 588.5 c 128,-1,36
 392 513 392 513 392 440 c 0,37,38
 392 338 392 338 440.5 279 c 128,-1,39
 489 220 489 220 578 220 c 0,24,25
EndSplineSet
Substitution2: "'sups' Superscript in Latin lookup 39 subtable" p.sups
Substitution2: "'subs' Subscript in Latin lookup 38 subtable" p.subs
Substitution2: "'sinf' Scientific Inferiors in Latin lookup 18 subtable" p.subs
AlternateSubs2: "'aalt' Access All Alternates in Latin lookup 1 subtable" p.sups p.subs
EndChar

StartChar: uni048F
Encoding: 1167 1167 815
Width: 1228
GlyphClass: 2
Flags: W
AnchorPoint: "Anchor-1" 766 1087 basechar 0
AnchorPoint: "Anchor-0" 112 -413 basechar 0
LayerCount: 2
Fore
SplineSet
718 457 m 1,0,-1
 1033 -7 l 1,1,-1
 909 -96 l 1,2,-1
 596 369 l 1,3,-1
 718 457 l 1,0,-1
-38 -418 m 1,4,-1
 211 1087 l 1,5,-1
 504 1087 l 1,6,-1
 477 922 l 1,7,-1
 482 922 l 1,8,9
 516 975 516 975 564.5 1016.5 c 128,-1,10
 613 1058 613 1058 676 1081.5 c 128,-1,11
 739 1105 739 1105 816 1105 c 0,12,13
 932 1105 932 1105 1018 1053 c 128,-1,14
 1104 1001 1104 1001 1153.5 902.5 c 128,-1,15
 1203 804 1203 804 1203 665 c 0,16,17
 1203 545 1203 545 1167.5 423.5 c 128,-1,18
 1132 302 1132 302 1063.5 201.5 c 128,-1,19
 995 101 995 101 894 40.5 c 128,-1,20
 793 -20 793 -20 660 -20 c 0,21,22
 576 -20 576 -20 516.5 8 c 128,-1,23
 457 36 457 36 419.5 80.5 c 128,-1,24
 382 125 382 125 365 178 c 1,25,-1
 358 178 l 1,26,-1
 260 -418 l 1,27,-1
 -38 -418 l 1,4,-1
583 220 m 0,28,29
 663 220 663 220 723 260.5 c 128,-1,30
 783 301 783 301 823 366 c 128,-1,31
 863 431 863 431 882.5 506.5 c 128,-1,32
 902 582 902 582 902 653 c 0,33,34
 902 753 902 753 856.5 809.5 c 128,-1,35
 811 866 811 866 722 866 c 0,36,37
 644 866 644 866 583.5 828 c 128,-1,38
 523 790 523 790 481.5 727 c 128,-1,39
 440 664 440 664 419 588.5 c 128,-1,40
 398 513 398 513 398 440 c 0,41,42
 398 338 398 338 446 279 c 128,-1,43
 494 220 494 220 583 220 c 0,28,29
EndSplineSet
EndChar

StartChar: uni01A5
Encoding: 421 421 816
Width: 1257
GlyphClass: 2
Flags: W
AnchorPoint: "Anchor-1" 761 1087 basechar 0
AnchorPoint: "Anchor-0" 106 -413 basechar 0
LayerCount: 2
Fore
SplineSet
171 876 m 1,0,-1
 207 1087 l 1,1,-1
 221 1180 l 2,2,3
 248 1337 248 1337 351 1417 c 128,-1,4
 454 1497 454 1497 634 1497 c 0,5,6
 682 1497 682 1497 722 1495 c 128,-1,7
 762 1493 762 1493 791 1489 c 1,8,-1
 753 1262 l 1,9,10
 733 1263 733 1263 704 1264 c 128,-1,11
 675 1265 675 1265 649 1265 c 0,12,13
 589 1265 589 1265 557.5 1243.5 c 128,-1,14
 526 1222 526 1222 518 1174 c 2,15,-1
 503 1087 l 1,16,-1
 468 876 l 1,17,-1
 171 876 l 1,0,-1
-43 -418 m 1,18,-1
 206 1087 l 1,19,-1
 499 1087 l 1,20,-1
 471 922 l 1,21,-1
 476 922 l 1,22,23
 510 975 510 975 558.5 1016.5 c 128,-1,24
 607 1058 607 1058 670 1081.5 c 128,-1,25
 733 1105 733 1105 811 1105 c 0,26,27
 926 1105 926 1105 1012.5 1053 c 128,-1,28
 1099 1001 1099 1001 1148 902.5 c 128,-1,29
 1197 804 1197 804 1197 665 c 0,30,31
 1197 545 1197 545 1162 423.5 c 128,-1,32
 1127 302 1127 302 1058.5 201.5 c 128,-1,33
 990 101 990 101 888.5 40.5 c 128,-1,34
 787 -20 787 -20 655 -20 c 0,35,36
 570 -20 570 -20 511 8 c 128,-1,37
 452 36 452 36 414.5 80.5 c 128,-1,38
 377 125 377 125 360 178 c 1,39,-1
 353 178 l 1,40,-1
 254 -418 l 1,41,-1
 -43 -418 l 1,18,-1
578 220 m 0,42,43
 657 220 657 220 717 260.5 c 128,-1,44
 777 301 777 301 817 366 c 128,-1,45
 857 431 857 431 876.5 506.5 c 128,-1,46
 896 582 896 582 896 653 c 0,47,48
 896 753 896 753 851 809.5 c 128,-1,49
 806 866 806 866 717 866 c 0,50,51
 639 866 639 866 578.5 828 c 128,-1,52
 518 790 518 790 476.5 727 c 128,-1,53
 435 664 435 664 413.5 588.5 c 128,-1,54
 392 513 392 513 392 440 c 0,55,56
 392 338 392 338 440.5 279 c 128,-1,57
 489 220 489 220 578 220 c 0,42,43
EndSplineSet
EndChar

StartChar: q
Encoding: 113 113 820
Width: 1257
GlyphClass: 2
Flags: W
AnchorPoint: "Anchor-1" 719 1087 basechar 0
AnchorPoint: "Anchor-0" 834 -413 basechar 0
LayerCount: 2
Fore
SplineSet
982 -418 m 1,0,-1
 684 -418 l 1,1,-1
 782 162 l 1,2,-1
 773 162 l 1,3,4
 739 108 739 108 692.5 67 c 128,-1,5
 646 26 646 26 585 3 c 128,-1,6
 524 -20 524 -20 449 -20 c 0,7,8
 330 -20 330 -20 243 32.5 c 128,-1,9
 156 85 156 85 108 183 c 128,-1,10
 60 281 60 281 60 419 c 0,11,12
 60 546 60 546 96.5 668 c 128,-1,13
 133 790 133 790 203 889 c 128,-1,14
 273 988 273 988 373 1046.5 c 128,-1,15
 473 1105 473 1105 600 1105 c 0,16,17
 687 1105 687 1105 746.5 1078 c 128,-1,18
 806 1051 806 1051 845 1006 c 128,-1,19
 884 961 884 961 903 909 c 1,20,-1
 909 909 l 1,21,-1
 939 1087 l 1,22,-1
 1231 1087 l 1,23,-1
 982 -418 l 1,0,-1
541 220 m 0,24,25
 618 220 618 220 678.5 258.5 c 128,-1,26
 739 297 739 297 780.5 360.5 c 128,-1,27
 822 424 822 424 844 499 c 128,-1,28
 866 574 866 574 866 649 c 0,29,30
 866 750 866 750 817.5 808 c 128,-1,31
 769 866 769 866 680 866 c 0,32,33
 602 866 602 866 542.5 827 c 128,-1,34
 483 788 483 788 442.5 724.5 c 128,-1,35
 402 661 402 661 381.5 585 c 128,-1,36
 361 509 361 509 361 434 c 0,37,38
 361 333 361 333 407 276.5 c 128,-1,39
 453 220 453 220 541 220 c 0,24,25
EndSplineSet
Substitution2: "'sups' Superscript in Latin lookup 39 subtable" q.sups
Substitution2: "'subs' Subscript in Latin lookup 38 subtable" q.subs
Substitution2: "'sinf' Scientific Inferiors in Latin lookup 18 subtable" q.subs
AlternateSubs2: "'aalt' Access All Alternates in Latin lookup 1 subtable" q.sups q.subs
EndChar

StartChar: uni02A0
Encoding: 672 672 821
Width: 1257
GlyphClass: 2
Flags: W
AnchorPoint: "Anchor-1" 719 1087 basechar 0
AnchorPoint: "Anchor-0" 834 -413 basechar 0
LayerCount: 2
Fore
SplineSet
899 876 m 1,0,-1
 934 1087 l 1,1,-1
 949 1180 l 2,2,3
 975 1337 975 1337 1078.5 1417 c 128,-1,4
 1182 1497 1182 1497 1361 1497 c 0,5,6
 1410 1497 1410 1497 1450 1495 c 128,-1,7
 1490 1493 1490 1493 1519 1489 c 1,8,-1
 1481 1262 l 1,9,10
 1461 1263 1461 1263 1432 1264 c 128,-1,11
 1403 1265 1403 1265 1376 1265 c 0,12,13
 1316 1265 1316 1265 1285 1243.5 c 128,-1,14
 1254 1222 1254 1222 1246 1174 c 2,15,-1
 1231 1087 l 1,16,-1
 1196 876 l 1,17,-1
 899 876 l 1,0,-1
982 -418 m 1,18,-1
 684 -418 l 1,19,-1
 782 162 l 1,20,-1
 773 162 l 1,21,22
 739 108 739 108 692.5 67 c 128,-1,23
 646 26 646 26 585 3 c 128,-1,24
 524 -20 524 -20 449 -20 c 0,25,26
 330 -20 330 -20 243 32.5 c 128,-1,27
 156 85 156 85 108 183 c 128,-1,28
 60 281 60 281 60 419 c 0,29,30
 60 546 60 546 96.5 668 c 128,-1,31
 133 790 133 790 203 889 c 128,-1,32
 273 988 273 988 373 1046.5 c 128,-1,33
 473 1105 473 1105 600 1105 c 0,34,35
 687 1105 687 1105 746.5 1078 c 128,-1,36
 806 1051 806 1051 845 1006 c 128,-1,37
 884 961 884 961 903 909 c 1,38,-1
 909 909 l 1,39,-1
 939 1087 l 1,40,-1
 1231 1087 l 1,41,-1
 982 -418 l 1,18,-1
541 220 m 0,42,43
 618 220 618 220 678.5 258.5 c 128,-1,44
 739 297 739 297 780.5 360.5 c 128,-1,45
 822 424 822 424 844 499 c 128,-1,46
 866 574 866 574 866 649 c 0,47,48
 866 750 866 750 817.5 808 c 128,-1,49
 769 866 769 866 680 866 c 0,50,51
 602 866 602 866 542.5 827 c 128,-1,52
 483 788 483 788 442.5 724.5 c 128,-1,53
 402 661 402 661 381.5 585 c 128,-1,54
 361 509 361 509 361 434 c 0,55,56
 361 333 361 333 407 276.5 c 128,-1,57
 453 220 453 220 541 220 c 0,42,43
EndSplineSet
EndChar

StartChar: qrthook
Encoding: 587 587 822
Width: 1257
GlyphClass: 2
Flags: W
AnchorPoint: "Anchor-4" 1050 0 basechar 0
AnchorPoint: "Anchor-1" 721 1087 basechar 0
AnchorPoint: "Anchor-0" 537 0 basechar 0
LayerCount: 2
Fore
SplineSet
1037 -426 m 0,0,1
 859 -426 859 -426 785.5 -346 c 128,-1,2
 712 -266 712 -266 738 -108 c 2,3,-1
 789 198 l 1,4,-1
 1083 198 l 1,5,-1
 1033 -102 l 2,6,7
 1025 -151 1025 -151 1047.5 -172.5 c 128,-1,8
 1070 -194 1070 -194 1130 -194 c 0,9,10
 1157 -194 1157 -194 1185.5 -193 c 128,-1,11
 1214 -192 1214 -192 1235 -191 c 1,12,-1
 1198 -417 l 1,13,14
 1168 -422 1168 -422 1127 -424 c 128,-1,15
 1086 -426 1086 -426 1037 -426 c 0,0,1
432 -20 m 0,16,17
 299 -20 299 -20 207 47.5 c 128,-1,18
 115 115 115 115 77.5 241.5 c 128,-1,19
 40 368 40 368 70 544 c 0,20,21
 99 721 99 721 179.5 846 c 128,-1,22
 260 971 260 971 374 1038 c 128,-1,23
 488 1105 488 1105 618 1105 c 0,24,25
 699 1105 699 1105 756 1080 c 128,-1,26
 813 1055 813 1055 849 1013.5 c 128,-1,27
 885 972 885 972 903 922 c 1,28,-1
 909 922 l 1,29,-1
 937 1087 l 1,30,-1
 1230 1087 l 1,31,-1
 1050 0 l 1,32,-1
 759 0 l 1,33,-1
 787 169 l 1,34,-1
 777 169 l 1,35,36
 744 116 744 116 693.5 73 c 128,-1,37
 643 30 643 30 578 5 c 128,-1,38
 513 -20 513 -20 432 -20 c 0,16,17
557 220 m 0,39,40
 633 220 633 220 694 260.5 c 128,-1,41
 755 301 755 301 797 373.5 c 128,-1,42
 839 446 839 446 855 545 c 0,43,44
 870 643 870 643 852.5 715 c 128,-1,45
 835 787 835 787 787 826.5 c 128,-1,46
 739 866 739 866 663 866 c 0,47,48
 588 866 588 866 528.5 826.5 c 128,-1,49
 469 787 469 787 429 714.5 c 128,-1,50
 389 642 389 642 371 545 c 0,51,52
 356 446 356 446 372.5 373 c 128,-1,53
 389 300 389 300 435.5 260 c 128,-1,54
 482 220 482 220 557 220 c 0,39,40
EndSplineSet
EndChar

StartChar: r
Encoding: 114 114 823
Width: 800
GlyphClass: 2
Flags: W
AnchorPoint: "Anchor-1" 530 1087 basechar 0
AnchorPoint: "Anchor-0" 176 0 basechar 0
LayerCount: 2
Fore
SplineSet
27 0 m 1,0,-1
 207 1087 l 1,1,-1
 494 1087 l 1,2,-1
 464 900 l 1,3,-1
 471 900 l 1,4,5
 517 1000 517 1000 592.5 1049 c 128,-1,6
 668 1098 668 1098 767 1098 c 0,7,8
 792 1098 792 1098 816 1096.5 c 128,-1,9
 840 1095 840 1095 858 1093 c 1,10,-1
 815 832 l 1,11,12
 797 837 797 837 760 840 c 128,-1,13
 723 843 723 843 689 843 c 0,14,15
 624 843 624 843 568 814.5 c 128,-1,16
 512 786 512 786 474.5 732.5 c 128,-1,17
 437 679 437 679 424 604 c 2,18,-1
 324 0 l 1,19,-1
 27 0 l 1,0,-1
EndSplineSet
Substitution2: "'smcp' Lowercase to Small Capitals in Latin lookup 68 subtable" r.sc
Substitution2: "'c2sc' Capitals to Small Capitals in Latin lookup 67 subtable" r.sc
Substitution2: "'sups' Superscript in Latin lookup 39 subtable" r.sups
Substitution2: "'subs' Subscript in Latin lookup 38 subtable" r.subs
Substitution2: "'sinf' Scientific Inferiors in Latin lookup 18 subtable" r.subs
AlternateSubs2: "'aalt' Access All Alternates in Latin lookup 1 subtable" r.sc r.sups r.subs
EndChar

StartChar: rrthook
Encoding: 57437 57437 824
Width: 800
GlyphClass: 2
Flags: W
AnchorPoint: "Anchor-1" 530 1087 basechar 0
AnchorPoint: "Anchor-0" 176 0 basechar 0
LayerCount: 2
Fore
SplineSet
311 -426 m 0,0,1
 134 -426 134 -426 58.5 -346 c 128,-1,2
 -17 -266 -17 -266 9 -108 c 2,3,-1
 27 0 l 1,4,-1
 324 0 l 1,5,-1
 306 -102 l 2,6,7
 299 -150 299 -150 321 -172 c 128,-1,8
 343 -194 343 -194 404 -194 c 0,9,10
 431 -194 431 -194 459.5 -193 c 128,-1,11
 488 -192 488 -192 509 -191 c 1,12,-1
 472 -417 l 1,13,14
 441 -422 441 -422 400.5 -424 c 128,-1,15
 360 -426 360 -426 311 -426 c 0,0,1
27 0 m 1,16,-1
 207 1087 l 1,17,-1
 494 1087 l 1,18,-1
 464 900 l 1,19,-1
 471 900 l 1,20,21
 517 1000 517 1000 592.5 1049 c 128,-1,22
 668 1098 668 1098 767 1098 c 0,23,24
 792 1098 792 1098 816 1096.5 c 128,-1,25
 840 1095 840 1095 858 1093 c 1,26,-1
 815 832 l 1,27,28
 797 837 797 837 760 840 c 128,-1,29
 723 843 723 843 689 843 c 0,30,31
 624 843 624 843 568 814.5 c 128,-1,32
 512 786 512 786 474.5 732.5 c 128,-1,33
 437 679 437 679 424 604 c 2,34,-1
 324 0 l 1,35,-1
 27 0 l 1,16,-1
EndSplineSet
EndChar

StartChar: rturn
Encoding: 633 633 826
Width: 800
GlyphClass: 2
Flags: W
AnchorPoint: "Anchor-1" 625 1087 basechar 0
AnchorPoint: "Anchor-0" 328 0 basechar 0
LayerCount: 2
Fore
SplineSet
774 1087 m 1,0,-1
 594 0 l 1,1,-1
 306 0 l 1,2,-1
 338 187 l 1,3,-1
 330 187 l 1,4,5
 284 89 284 89 208.5 39 c 128,-1,6
 133 -11 133 -11 34 -11 c 0,7,8
 9 -11 9 -11 -14.5 -9 c 128,-1,9
 -38 -7 -38 -7 -57 -4 c 1,10,-1
 -14 255 l 1,11,12
 4 252 4 252 41 248 c 128,-1,13
 78 244 78 244 112 244 c 0,14,15
 178 244 178 244 233 273 c 128,-1,16
 288 302 288 302 326.5 355.5 c 128,-1,17
 365 409 365 409 376 483 c 2,18,-1
 477 1087 l 1,19,-1
 774 1087 l 1,0,-1
EndSplineSet
EndChar

StartChar: rturnrthook
Encoding: 635 635 827
Width: 800
GlyphClass: 2
Flags: W
AnchorPoint: "Anchor-1" 625 1087 basechar 0
AnchorPoint: "Anchor-0" 328 0 basechar 0
LayerCount: 2
Fore
SplineSet
558 -426 m 0,0,1
 396 -426 396 -426 327.5 -349.5 c 128,-1,2
 259 -273 259 -273 283 -125 c 2,3,-1
 304 0 l 1,4,-1
 591 0 l 1,5,-1
 573 -111 l 2,6,7
 566 -155 566 -155 586.5 -175.5 c 128,-1,8
 607 -196 607 -196 666 -196 c 0,9,10
 693 -196 693 -196 724.5 -195.5 c 128,-1,11
 756 -195 756 -195 776 -193 c 1,12,-1
 739 -417 l 1,13,14
 719 -420 719 -420 689 -422 c 128,-1,15
 659 -424 659 -424 624.5 -425 c 128,-1,16
 590 -426 590 -426 558 -426 c 0,0,1
774 1087 m 1,17,-1
 594 0 l 1,18,-1
 306 0 l 1,19,-1
 338 187 l 1,20,-1
 330 187 l 1,21,22
 284 89 284 89 208.5 39 c 128,-1,23
 133 -11 133 -11 34 -11 c 0,24,25
 9 -11 9 -11 -14.5 -9 c 128,-1,26
 -38 -7 -38 -7 -57 -4 c 1,27,-1
 -14 255 l 1,28,29
 4 252 4 252 41 248 c 128,-1,30
 78 244 78 244 112 244 c 0,31,32
 178 244 178 244 233 273 c 128,-1,33
 288 302 288 302 326.5 355.5 c 128,-1,34
 365 409 365 409 376 483 c 2,35,-1
 477 1087 l 1,36,-1
 774 1087 l 1,17,-1
EndSplineSet
EndChar

StartChar: rfishhookrev
Encoding: 639 639 828
Width: 764
Flags: W
LayerCount: 2
Fore
SplineSet
260 0 m 1,0,-1
 367 641 l 2,1,2
 380 716 380 716 361.5 761 c 128,-1,3
 343 806 343 806 301.5 826 c 128,-1,4
 260 846 260 846 203 846 c 0,5,6
 168 846 168 846 135.5 845 c 128,-1,7
 103 844 103 844 82 841 c 1,8,-1
 124 1090 l 1,9,10
 137 1092 137 1092 159 1093 c 128,-1,11
 181 1094 181 1094 208.5 1095 c 128,-1,12
 236 1096 236 1096 264 1096 c 0,13,14
 369 1096 369 1096 452 1070.5 c 128,-1,15
 535 1045 535 1045 589.5 992.5 c 128,-1,16
 644 940 644 940 665 858.5 c 128,-1,17
 686 777 686 777 667 664 c 2,18,-1
 557 0 l 1,19,-1
 260 0 l 1,0,-1
EndSplineSet
EndChar

StartChar: uni027E
Encoding: 638 638 829
Width: 764
Flags: W
LayerCount: 2
Fore
SplineSet
26 0 m 1,0,-1
 136 664 l 2,1,2
 161 814 161 814 237 909.5 c 128,-1,3
 313 1005 313 1005 427.5 1050.5 c 128,-1,4
 542 1096 542 1096 683 1096 c 0,5,6
 710 1096 710 1096 737.5 1095 c 128,-1,7
 765 1094 765 1094 786.5 1093 c 128,-1,8
 808 1092 808 1092 821 1090 c 1,9,-1
 780 841 l 1,10,11
 759 844 759 844 727.5 845 c 128,-1,12
 696 846 696 846 662 846 c 0,13,14
 604 846 604 846 556 825.5 c 128,-1,15
 508 805 508 805 475 760.5 c 128,-1,16
 442 716 442 716 429 641 c 2,17,-1
 323 0 l 1,18,-1
 26 0 l 1,0,-1
EndSplineSet
EndChar

StartChar: rdescend
Encoding: 57438 57438 830
Width: 801
GlyphClass: 2
Flags: W
AnchorPoint: "Anchor-1" 531 1087 basechar 0
AnchorPoint: "Anchor-0" 177 0 basechar 0
LayerCount: 2
Fore
SplineSet
-43 -418 m 1,0,-1
 28 0 l 1,1,-1
 323 0 l 1,2,-1
 253 -418 l 1,3,-1
 -43 -418 l 1,0,-1
29 0 m 1,4,-1
 209 1087 l 1,5,-1
 496 1087 l 1,6,-1
 465 900 l 1,7,-1
 473 900 l 1,8,9
 518 1000 518 1000 593.5 1049 c 128,-1,10
 669 1098 669 1098 768 1098 c 0,11,12
 793 1098 793 1098 817 1096.5 c 128,-1,13
 841 1095 841 1095 859 1093 c 1,14,-1
 816 832 l 1,15,16
 798 837 798 837 761.5 840 c 128,-1,17
 725 843 725 843 690 843 c 0,18,19
 626 843 626 843 570 814.5 c 128,-1,20
 514 786 514 786 476.5 732.5 c 128,-1,21
 439 679 439 679 426 604 c 2,22,-1
 326 0 l 1,23,-1
 29 0 l 1,4,-1
EndSplineSet
EndChar

StartChar: r.sc
Encoding: 60955 60955 840
Width: 1052
GlyphClass: 2
Flags: W
AnchorPoint: "Anchor-1" 633 1087 basechar 0
AnchorPoint: "Anchor-0" 469 0 basechar 0
LayerCount: 2
Fore
SplineSet
27 0 m 1,0,-1
 207 1087 l 1,1,-1
 671 1087 l 2,2,3
 799 1087 799 1087 885 1042.5 c 128,-1,4
 971 998 971 998 1008.5 914 c 128,-1,5
 1046 830 1046 830 1026 713 c 0,6,7
 1007 599 1007 599 940.5 518 c 128,-1,8
 874 437 874 437 771 394 c 128,-1,9
 668 351 668 351 536 351 c 2,10,-1
 264 351 l 1,11,-1
 302 584 l 1,12,-1
 544 584 l 2,13,14
 620 584 620 584 668 616 c 128,-1,15
 716 648 716 648 727 714 c 0,16,17
 739 779 739 779 702 813 c 128,-1,18
 665 847 665 847 588 847 c 2,19,-1
 463 847 l 1,20,-1
 323 0 l 1,21,-1
 27 0 l 1,0,-1
628 0 m 1,22,-1
 458 495 l 1,23,-1
 764 495 l 1,24,-1
 941 0 l 1,25,-1
 628 0 l 1,22,-1
EndSplineSet
EndChar

StartChar: rinv.sc
Encoding: 60956 60956 841
Width: 1158
Flags: W
LayerCount: 2
Fore
SplineSet
27 0 m 1,0,-1
 207 1087 l 1,1,-1
 489 1087 l 1,2,-1
 348 233 l 1,3,-1
 548 233 l 2,4,5
 651 233 651 233 704 268 c 128,-1,6
 757 303 757 303 769 375 c 0,7,8
 782 445 782 445 738.5 479.5 c 128,-1,9
 695 514 695 514 589 514 c 2,10,-1
 277 514 l 1,11,-1
 311 725 l 1,12,-1
 658 725 l 2,13,14
 878 725 878 725 984.5 631 c 128,-1,15
 1091 537 1091 537 1063 372 c 0,16,17
 1045 256 1045 256 977 173 c 128,-1,18
 909 90 909 90 800.5 45 c 128,-1,19
 692 0 692 0 548 0 c 2,20,-1
 27 0 l 1,0,-1
515 599 m 1,21,-1
 904 1087 l 1,22,-1
 1228 1087 l 1,23,-1
 831 599 l 1,24,-1
 515 599 l 1,21,-1
EndSplineSet
EndChar

StartChar: s
Encoding: 115 115 842
Width: 1106
GlyphClass: 2
Flags: W
AnchorPoint: "Anchor-3" 466 0 basechar 0
AnchorPoint: "Anchor-1" 643 1087 basechar 0
AnchorPoint: "Anchor-0" 464 0 basechar 0
LayerCount: 2
Fore
SplineSet
477 -23 m 0,0,1
 345 -23 345 -23 245 16 c 128,-1,2
 145 55 145 55 89 128.5 c 128,-1,3
 33 202 33 202 30 304 c 0,4,5
 30 309 30 309 30 314 c 128,-1,6
 30 319 30 319 30 324 c 1,7,-1
 314 338 l 1,8,9
 317 263 317 263 359.5 227.5 c 128,-1,10
 402 192 402 192 489 192 c 0,11,12
 544 192 544 192 591.5 207.5 c 128,-1,13
 639 223 639 223 669.5 252.5 c 128,-1,14
 700 282 700 282 702 322 c 0,15,16
 704 358 704 358 676 381 c 128,-1,17
 648 404 648 404 587 417 c 2,18,-1
 405 455 l 2,19,20
 264 484 264 484 193.5 557 c 128,-1,21
 123 630 123 630 128 742 c 0,22,23
 131 854 131 854 199 936 c 128,-1,24
 267 1018 267 1018 379.5 1061.5 c 128,-1,25
 492 1105 492 1105 629 1105 c 0,26,27
 823 1105 823 1105 933.5 1025 c 128,-1,28
 1044 945 1044 945 1051 810 c 0,29,30
 1052 802 1052 802 1052 792 c 128,-1,31
 1052 782 1052 782 1051 773 c 1,32,-1
 781 760 l 1,33,34
 781 822 781 822 742 857.5 c 128,-1,35
 703 893 703 893 626 893 c 0,36,37
 575 893 575 893 529.5 877 c 128,-1,38
 484 861 484 861 456.5 831 c 128,-1,39
 429 801 429 801 427 762 c 0,40,41
 424 727 424 727 449.5 704 c 128,-1,42
 475 681 475 681 536 668 c 2,43,-1
 730 628 l 2,44,45
 874 600 874 600 943 532 c 128,-1,46
 1012 464 1012 464 1008 357 c 0,47,48
 1005 270 1005 270 962.5 200 c 128,-1,49
 920 130 920 130 846.5 80 c 128,-1,50
 773 30 773 30 678.5 3.5 c 128,-1,51
 584 -23 584 -23 477 -23 c 0,0,1
EndSplineSet
Substitution2: "'sups' Superscript in Latin lookup 39 subtable" s.sups
Substitution2: "'subs' Subscript in Latin lookup 38 subtable" s.subs
Substitution2: "'sinf' Scientific Inferiors in Latin lookup 18 subtable" s.subs
AlternateSubs2: "'aalt' Access All Alternates in Latin lookup 1 subtable" s.sups s.subs
EndChar

